<svg preserveAspectRatio="none" width="100%" height="100%" overflow="visible" style="display: block;" viewBox="0 0 22 12" fill="none" xmlns="http://www.w3.org/2000/svg">
<path id="Vector" d="M14 1.00015H15C15.5304 1.00015 16.0391 1.21086 16.4142 1.58594C16.7893 1.96101 17 2.46972 17 3.00015V9.00015C17 9.53058 16.7893 10.0393 16.4142 10.4144C16.0391 10.7894 15.5304 11.0002 15 11.0002H13M5 1.00015H3C2.46957 1.00015 1.96086 1.21086 1.58579 1.58594C1.21071 1.96101 1 2.46972 1 3.00015V9.00015C1 9.53058 1.21071 10.0393 1.58579 10.4144C1.96086 10.7894 2.46957 11.0002 3 11.0002H4M10 1.00015L7 6.00015H11L8 11.0002M21 5.00015V7.00015" stroke="var(--stroke-0, #262625)" stroke-width="2" stroke-linecap="round" stroke-linejoin="round"/>
</svg>
