<svg preserveAspectRatio="none" width="100%" height="100%" overflow="visible" style="display: block;" viewBox="0 0 22 16" fill="none" xmlns="http://www.w3.org/2000/svg">
<path id="Vector" d="M15 6H17M15 10H17M5.16992 11.0001C5.37606 10.4141 5.75902 9.90653 6.26594 9.54748C6.77286 9.18844 7.37873 8.99561 7.99992 8.99561C8.62111 8.99561 9.22699 9.18844 9.7339 9.54748C10.2408 9.90653 10.6238 10.4141 10.8299 11.0001M10 7C10 8.10457 9.10457 9 8 9C6.89543 9 6 8.10457 6 7C6 5.89543 6.89543 5 8 5C9.10457 5 10 5.89543 10 7ZM3 1H19C20.1046 1 21 1.89543 21 3V13C21 14.1046 20.1046 15 19 15H3C1.89543 15 1 14.1046 1 13V3C1 1.89543 1.89543 1 3 1Z" stroke="var(--stroke-0, #262625)" stroke-width="2" stroke-linecap="round" stroke-linejoin="round"/>
</svg>
