<svg preserveAspectRatio="none" width="100%" height="100%" overflow="visible" style="display: block;" viewBox="0 0 22 22" fill="none" xmlns="http://www.w3.org/2000/svg">
<path id="Vector" d="M11 19C13.1217 19 15.1566 18.1571 16.6569 16.6569C18.1571 15.1566 19 13.1217 19 11C19 8.87827 18.1571 6.84344 16.6569 5.34315C15.1566 3.84285 13.1217 3 11 3M11 19C8.87827 19 6.84344 18.1571 5.34315 16.6569C3.84285 15.1566 3 13.1217 3 11M11 19V21M11 3C8.87827 3 6.84344 3.84285 5.34315 5.34315C3.84285 6.84344 3 8.87827 3 11M11 3V1M3 11H1M13 11C13 11.5304 12.7893 12.0391 12.4142 12.4142C12.0391 12.7893 11.5304 13 11 13C10.4696 13 9.96086 12.7893 9.58579 12.4142C9.21071 12.0391 9 11.5304 9 11C9 10.4696 9.21071 9.96086 9.58579 9.58579C9.96086 9.21071 10.4696 9 11 9C11.5304 9 12.0391 9.21071 12.4142 9.58579C12.7893 9.96086 13 10.4696 13 11ZM13 11H21M16 19.6599L15 17.9299M10 9.27009L6 2.34009M19.6599 16L17.9299 15M2.34009 6L4.07009 7M19.6599 6L17.9299 7M2.34009 16L4.07009 15M16 2.34009L15 4.07009M10 12.73L6 19.66" stroke="var(--stroke-0, #262625)" stroke-width="2" stroke-linecap="round" stroke-linejoin="round"/>
</svg>
