<svg preserveAspectRatio="none" width="100%" height="100%" overflow="visible" style="display: block;" viewBox="0 0 22 21" fill="none" xmlns="http://www.w3.org/2000/svg">
<path id="Vector" d="M5 15.842H17M5 11.842H17M21 6.19194V17.8419C21 18.3724 20.7893 18.8811 20.4142 19.2561C20.0391 19.6312 19.5304 19.8419 19 19.8419H3C2.46957 19.8419 1.96086 19.6312 1.58579 19.2561C1.21071 18.8811 1 18.3724 1 17.8419V6.19194C1.00161 5.79308 1.12244 5.40382 1.34696 5.07416C1.57149 4.74451 1.88945 4.48951 2.26 4.34194L10.26 1.14194C10.7352 0.952688 11.2648 0.952688 11.74 1.14194L19.74 4.34194C20.1106 4.48951 20.4285 4.74451 20.653 5.07416C20.8776 5.40382 20.9984 5.79308 21 6.19194ZM5 7.84204H17V19.842H5V7.84204Z" stroke="var(--stroke-0, #262625)" stroke-width="2" stroke-linecap="round" stroke-linejoin="round"/>
</svg>
