<svg preserveAspectRatio="none" width="100%" height="100%" overflow="visible" style="display: block;" viewBox="0 0 20 20" fill="none" xmlns="http://www.w3.org/2000/svg">
<g id="Vector">
<path d="M19 13C19 13.5304 18.7893 14.0391 18.4142 14.4142C18.0391 14.7893 17.5304 15 17 15H5L1 19V3C1 2.46957 1.21071 1.96086 1.58579 1.58579C1.96086 1.21071 2.46957 1 3 1H17C17.5304 1 18.0391 1.21071 18.4142 1.58579C18.7893 1.96086 19 2.46957 19 3V13Z" stroke="var(--stroke-0, #262625)" stroke-width="2" stroke-linecap="round" stroke-linejoin="round"/>
<path d="M12.7999 5.50001C12.4549 5.1556 11.9874 4.96216 11.4999 4.96216C11.0124 4.96216 10.5449 5.1556 10.1999 5.50001L9.99992 5.80001L9.69991 5.50001C9.51606 5.34242 9.30298 5.22259 9.07281 5.14735C8.84265 5.07212 8.59993 5.04296 8.35849 5.06153C8.11706 5.0801 7.88165 5.14604 7.6657 5.25559C7.44976 5.36514 7.2575 5.51616 7.09992 5.70001C6.94233 5.88386 6.8225 6.09695 6.74726 6.32711C6.67203 6.55727 6.64287 6.79999 6.66144 7.04143C6.68001 7.28286 6.74595 7.51827 6.8555 7.73422C6.96505 7.95016 7.11606 8.14242 7.29992 8.30001L9.99992 11L12.6999 8.30001C13.5999 7.40001 13.4999 6.20001 12.7999 5.50001Z" stroke="var(--stroke-0, #262625)" stroke-width="2" stroke-linecap="round" stroke-linejoin="round"/>
</g>
</svg>
