<svg preserveAspectRatio="none" width="100%" height="100%" overflow="visible" style="display: block;" viewBox="0 0 23 22" fill="none" xmlns="http://www.w3.org/2000/svg">
<path id="Vector" d="M9.10547 9V8C9.10547 7.46957 9.31618 6.96086 9.69126 6.58579C10.0663 6.21071 10.575 6 11.1055 6C11.6359 6 12.1446 6.21071 12.5197 6.58579C12.8948 6.96086 13.1055 7.46957 13.1055 8V9C13.1055 8.46957 13.3162 7.96086 13.6913 7.58579C14.0663 7.21071 14.575 7 15.1055 7C15.6359 7 16.1446 7.21071 16.5197 7.58579C16.8948 7.96086 17.1055 8.46957 17.1055 9V10C17.1055 9.46957 17.3163 8.96086 17.6914 8.58579C18.0664 8.21071 18.5751 8 19.1056 8C19.636 8 20.1447 8.21071 20.5198 8.58579C20.8949 8.96086 21.1056 9.46957 21.1056 10L21.1055 13C21.1055 15.1217 20.2626 17.1566 18.7623 18.6569C17.262 20.1571 15.2272 21 13.1055 21H11.1056C8.30557 21 6.60557 20.14 5.11557 18.66L1.51557 15.06C1.17151 14.6789 0.987159 14.1802 1.0007 13.6669C1.01423 13.1537 1.22462 12.6653 1.58829 12.303C1.95197 11.9406 2.44107 11.7319 2.95434 11.7202C3.46761 11.7085 3.96574 11.8946 4.34557 12.24L6.10557 14M9.10547 8.5V3C9.10547 2.46957 8.89476 1.96086 8.51968 1.58579C8.14461 1.21071 7.6359 1 7.10547 1C6.57504 1 6.06633 1.21071 5.69126 1.58579C5.31618 1.96086 5.10547 2.46957 5.10547 3V13" stroke="var(--stroke-0, #262625)" stroke-width="2" stroke-linecap="round" stroke-linejoin="round"/>
</svg>
