<svg preserveAspectRatio="none" width="100%" height="100%" overflow="visible" style="display: block;" viewBox="0 0 22 22" fill="none" xmlns="http://www.w3.org/2000/svg">
<path id="Vector" d="M1 15V3C1 2.46957 1.21071 1.96086 1.58579 1.58579C1.96086 1.21071 2.46957 1 3 1H14M1 15C1 14.4696 1.21071 13.9609 1.58579 13.5858C1.96086 13.2107 2.46957 13 3 13H4M1 15C1 15.5304 1.21071 16.0391 1.58579 16.4142C1.96086 16.7893 2.46957 17 3 17H4M21 17H10C9.46957 17 8.96086 17.2107 8.58579 17.5858C8.21071 17.9609 8 18.4696 8 19M8 19C8 19.5304 8.21071 20.0391 8.58579 20.4142C8.96086 20.7893 9.46957 21 10 21H20.5C20.6326 21 20.7598 20.9473 20.8536 20.8536C20.9473 20.7598 21 20.6326 21 20.5V5.5C21 5.36739 20.9473 5.24021 20.8536 5.14645C20.7598 5.05268 20.6326 5 20.5 5H10C9.46957 5 8.96086 5.21071 8.58579 5.58579C8.21071 5.96086 8 6.46957 8 7V19Z" stroke="var(--stroke-0, #262625)" stroke-width="2" stroke-linecap="round" stroke-linejoin="round"/>
</svg>
