<svg preserveAspectRatio="none" width="100%" height="100%" overflow="visible" style="display: block;" viewBox="0 0 18 22" fill="none" xmlns="http://www.w3.org/2000/svg">
<path id="Vector" d="M9 5.5V16.5M11.9999 8.4C11.4685 7.77864 10.7593 7.33508 9.96806 7.12906C9.17679 6.92304 8.34139 6.96446 7.57437 7.24774C6.80736 7.53102 6.14559 8.04256 5.67818 8.71345C5.21078 9.38433 4.96021 10.1823 4.96021 11C4.96021 11.8177 5.21078 12.6157 5.67818 13.2866C6.14559 13.9574 6.80736 14.469 7.57437 14.7523C8.34139 15.0355 9.17679 15.077 9.96806 14.8709C10.7593 14.6649 11.4685 14.2214 11.9999 13.6M1 1V21L3 20L5 21L7 20L9 21L11 20L13 21L15 20L17 21V1L15 2L13 1L11 2L9 1L7 2L5 1L3 2L1 1Z" stroke="var(--stroke-0, #262625)" stroke-width="2" stroke-linecap="round" stroke-linejoin="round"/>
</svg>
