<svg preserveAspectRatio="none" width="100%" height="100%" overflow="visible" style="display: block;" viewBox="0 0 18 22" fill="none" xmlns="http://www.w3.org/2000/svg">
<path id="Vector" d="M9.5 21H15C15.5304 21 16.0391 20.7893 16.4142 20.4142C16.7893 20.0391 17 19.5304 17 19V6L12 1H3C2.46957 1 1.96086 1.21071 1.58579 1.58579C1.21071 1.96086 1 2.46957 1 3V12.5M11 1V5C11 5.53043 11.2107 6.03914 11.5858 6.41421C11.9609 6.78929 12.4696 7 13 7H17M10.378 14.6259C10.5752 14.4287 10.7317 14.1945 10.8384 13.9368C10.9452 13.6791 11.0001 13.4029 11.0001 13.1239C11.0001 12.845 10.9452 12.5687 10.8384 12.311C10.7317 12.0533 10.5752 11.8191 10.378 11.6219C10.1807 11.4247 9.94657 11.2682 9.68885 11.1614C9.43114 11.0547 9.15492 10.9998 8.87598 10.9998C8.59703 10.9998 8.32081 11.0547 8.0631 11.1614C7.80539 11.2682 7.57122 11.4247 7.37398 11.6219L2.36398 16.6339C2.12622 16.8715 1.9522 17.1652 1.85798 17.4879L1.02098 20.3579C0.995879 20.444 0.994374 20.5352 1.01662 20.622C1.03887 20.7088 1.08404 20.7881 1.14742 20.8515C1.2108 20.9148 1.29006 20.96 1.37689 20.9823C1.46372 21.0045 1.55493 21.003 1.64098 20.9779L4.51098 20.1409C4.83364 20.0467 5.12735 19.8727 5.36498 19.6349L10.378 14.6259Z" stroke="var(--stroke-0, #262625)" stroke-width="2" stroke-linecap="round" stroke-linejoin="round"/>
</svg>
