<svg preserveAspectRatio="none" width="100%" height="100%" overflow="visible" style="display: block;" viewBox="0 0 22 22" fill="none" xmlns="http://www.w3.org/2000/svg">
<g id="Vector">
<path d="M14.5318 10.2889C14.3443 10.4765 14.239 10.7308 14.239 10.9959C14.239 11.2611 14.3443 11.5154 14.5318 11.7029L16.9078 14.0799C17.0953 14.2674 17.3496 14.3727 17.6148 14.3727C17.88 14.3727 18.1343 14.2674 18.3218 14.0799L20.6988 11.7029C20.8863 11.5154 20.9916 11.2611 20.9916 10.9959C20.9916 10.7308 20.8863 10.4765 20.6988 10.2889L18.3218 7.91193C18.1343 7.72446 17.88 7.61914 17.6148 7.61914C17.3496 7.61914 17.0953 7.72446 16.9078 7.91193L14.5318 10.2889Z" stroke="var(--stroke-0, #262625)" stroke-width="2" stroke-linecap="round" stroke-linejoin="round"/>
<path d="M1.29279 10.2889C1.10532 10.4765 1 10.7308 1 10.9959C1 11.2611 1.10532 11.5154 1.29279 11.7029L3.66979 14.0799C3.85731 14.2674 4.11162 14.3727 4.37679 14.3727C4.64195 14.3727 4.89626 14.2674 5.08379 14.0799L7.46079 11.7029C7.64826 11.5154 7.75357 11.2611 7.75357 10.9959C7.75357 10.7308 7.64826 10.4765 7.46079 10.2889L5.08379 7.91193C4.89626 7.72446 4.64195 7.61914 4.37679 7.61914C4.11162 7.61914 3.85731 7.72446 3.66979 7.91193L1.29279 10.2889Z" stroke="var(--stroke-0, #262625)" stroke-width="2" stroke-linecap="round" stroke-linejoin="round"/>
<path d="M7.91194 16.9078C7.81896 17.0007 7.7452 17.111 7.69488 17.2324C7.64456 17.3538 7.61865 17.4839 7.61865 17.6153C7.61865 17.7467 7.64456 17.8768 7.69488 17.9982C7.7452 18.1196 7.81896 18.2299 7.91194 18.3228L10.2889 20.6988C10.4765 20.8863 10.7308 20.9916 10.9959 20.9916C11.2611 20.9916 11.5154 20.8863 11.7029 20.6988L14.0799 18.3228C14.1729 18.2299 14.2467 18.1196 14.297 17.9982C14.3473 17.8768 14.3732 17.7467 14.3732 17.6153C14.3732 17.4839 14.3473 17.3538 14.297 17.2324C14.2467 17.111 14.1729 17.0007 14.0799 16.9078L11.7029 14.5318C11.5154 14.3443 11.2611 14.239 10.9959 14.239C10.7308 14.239 10.4765 14.3443 10.2889 14.5318L7.91194 16.9078Z" stroke="var(--stroke-0, #262625)" stroke-width="2" stroke-linecap="round" stroke-linejoin="round"/>
<path d="M7.91193 3.66979C7.72446 3.85731 7.61914 4.11162 7.61914 4.37679C7.61914 4.64195 7.72446 4.89626 7.91193 5.08379L10.2889 7.45979C10.4765 7.64726 10.7308 7.75257 10.9959 7.75257C11.2611 7.75257 11.5154 7.64726 11.7029 7.45979L14.0799 5.08379C14.2674 4.89626 14.3727 4.64195 14.3727 4.37679C14.3727 4.11162 14.2674 3.85731 14.0799 3.66979L11.7029 1.29279C11.5154 1.10532 11.2611 1 10.9959 1C10.7308 1 10.4765 1.10532 10.2889 1.29279L7.91193 3.66979Z" stroke="var(--stroke-0, #262625)" stroke-width="2" stroke-linecap="round" stroke-linejoin="round"/>
</g>
</svg>
