<svg preserveAspectRatio="none" width="100%" height="100%" overflow="visible" style="display: block;" viewBox="0 0 22 22" fill="none" xmlns="http://www.w3.org/2000/svg">
<path id="Vector" d="M13.3501 3.65176L15.3001 1.70176C15.7517 1.25231 16.3629 1 17.0001 1C17.6372 1 18.2485 1.25231 18.7001 1.70176L20.3001 3.30176C20.5238 3.52472 20.7014 3.78967 20.8225 4.08139C20.9436 4.37311 21.006 4.68588 21.006 5.00176C21.006 5.31763 20.9436 5.6304 20.8225 5.92212C20.7014 6.21384 20.5238 6.47879 20.3001 6.70176L18.3501 8.65175M21 1.00171L19.5 2.50171M19 12.0017C19 16.9723 14.9706 21.0017 10 21.0017C5.02944 21.0017 1 16.9723 1 12.0017C1 7.03115 5.02944 3.00171 10 3.00171C14.9706 3.00171 19 7.03115 19 12.0017Z" stroke="var(--stroke-0, #262625)" stroke-width="2" stroke-linecap="round" stroke-linejoin="round"/>
</svg>
