<svg preserveAspectRatio="none" width="100%" height="100%" overflow="visible" style="display: block;" viewBox="0 0 22 22" fill="none" xmlns="http://www.w3.org/2000/svg">
<path id="Vector" d="M20.9999 10.0501V11.0501C20.9898 13.0684 20.3691 15.0365 19.2196 16.6955C18.0701 18.3545 16.4454 19.6268 14.5592 20.3452C12.6731 21.0635 10.6137 21.1943 8.65175 20.7204C6.68984 20.2464 4.91727 19.1899 3.56707 17.6897C2.21687 16.1894 1.35223 14.3157 1.08684 12.3149C0.821441 10.3141 1.16771 8.2798 2.08011 6.47946C2.99251 4.67911 4.42835 3.197 6.19885 2.22796C7.96936 1.25892 9.99165 0.848312 11.9999 1.05012M7 13.05C7 13.05 8.5 15.05 11 15.05C13.5 15.05 15 13.05 15 13.05M8 8.05005H8.01M14 8.05005H14.01M15 4.05005H21M18 1.05005V7.05005" stroke="var(--stroke-0, #262625)" stroke-width="2" stroke-linecap="round" stroke-linejoin="round"/>
</svg>
