<svg preserveAspectRatio="none" width="100%" height="100%" overflow="visible" style="display: block;" viewBox="0 0 22 22" fill="none" xmlns="http://www.w3.org/2000/svg">
<path id="Vector" d="M8.26 8.26001L2 10V13L16.14 16.14M19.9999 14.34V5L12.6899 7.03M10.6 15.8C10.4949 16.1808 10.3159 16.5372 10.0731 16.8488C9.83028 17.1605 9.52847 17.4212 9.1849 17.6162C8.84132 17.8112 8.4627 17.9367 8.07065 17.9853C7.6786 18.034 7.28081 18.005 6.89997 17.9C6.51914 17.7949 6.16273 17.6159 5.85109 17.3731C5.53945 17.1303 5.27868 16.8285 5.08368 16.4849C4.88867 16.1413 4.76325 15.7627 4.71457 15.3706C4.6659 14.9786 4.69492 14.5808 4.79997 14.2M1 1L21 21" stroke="var(--stroke-0, #262625)" stroke-width="2" stroke-linecap="round" stroke-linejoin="round"/>
</svg>
