<svg preserveAspectRatio="none" width="100%" height="100%" overflow="visible" style="display: block;" viewBox="0 0 20 22" fill="none" xmlns="http://www.w3.org/2000/svg">
<path id="Vector" d="M11 21H17C17.5305 21 18.0392 20.7893 18.4142 20.4142C18.7893 20.0391 19 19.5304 19 19V6L14 1H5.00002C4.46959 1 3.96088 1.21071 3.58581 1.58579C3.21073 1.96086 3.00002 2.46957 3.00002 3V6M13 1V5C13 5.53043 13.2107 6.03914 13.5858 6.41421C13.9609 6.78929 14.4696 7 15 7H19M6.00002 15.5L7.00002 21L4.00002 20L1.00002 21L2.00002 15.5M4.00002 16C4.39399 16 4.78409 15.9224 5.14807 15.7716C5.51205 15.6209 5.84277 15.3999 6.12134 15.1213C6.39992 14.8427 6.6209 14.512 6.77166 14.1481C6.92242 13.7841 7.00002 13.394 7.00002 13C7.00002 12.606 6.92242 12.2159 6.77166 11.8519C6.6209 11.488 6.39992 11.1573 6.12134 10.8787C5.84277 10.6001 5.51205 10.3791 5.14807 10.2284C4.78409 10.0776 4.39399 10 4.00002 10C3.20437 10 2.44131 10.3161 1.8787 10.8787C1.31609 11.4413 1.00002 12.2044 1.00002 13C1.00002 13.7956 1.31609 14.5587 1.8787 15.1213C2.44131 15.6839 3.20437 16 4.00002 16Z" stroke="var(--stroke-0, #262625)" stroke-width="2" stroke-linecap="round" stroke-linejoin="round"/>
</svg>
