<svg preserveAspectRatio="none" width="100%" height="100%" overflow="visible" style="display: block;" viewBox="0 0 22 22" fill="none" xmlns="http://www.w3.org/2000/svg">
<path id="Vector" d="M9 9V16.9M10.802 5.14512C11.6379 4.93867 12.5129 4.95158 13.3424 5.1826C14.1718 5.41361 14.9276 5.85491 15.5364 6.46373C16.1452 7.07256 16.5865 7.82829 16.8175 8.65774C17.0485 9.48718 17.0614 10.3622 16.855 11.1981M13 5.1001V7.3431M14.5 14.571L13.536 15.535C12.5984 16.4727 11.3266 16.9994 10.0005 16.9994C8.67446 16.9994 7.40271 16.4727 6.46503 15.535C5.52768 14.5974 5.0011 13.3258 5.0011 12C5.0011 10.6742 5.52768 9.40264 6.46503 8.465L7.42903 7.5M15 6.00003V2.00003C15 1.80228 15.0587 1.60898 15.1686 1.44457C15.2785 1.28016 15.4346 1.15202 15.6173 1.07635C15.8 1.00068 16.0011 0.98088 16.195 1.01945C16.389 1.05802 16.5671 1.15322 16.707 1.29303C16.9838 1.57375 17.323 1.78504 17.697 1.90964C18.071 2.03425 18.4692 2.06865 18.859 2.01003C19.0126 1.98815 19.1692 2.00233 19.3164 2.05143C19.4636 2.10053 19.5974 2.18321 19.7071 2.29294C19.8168 2.40266 19.8995 2.53641 19.9486 2.68361C19.9977 2.8308 20.0119 2.98741 19.99 3.14103C19.9314 3.53086 19.9658 3.92903 20.0904 4.30303C20.215 4.67703 20.4263 5.01626 20.707 5.29303C20.8468 5.43288 20.942 5.61105 20.9806 5.805C21.0192 5.99895 20.9993 6.19999 20.9237 6.38269C20.848 6.56539 20.7199 6.72155 20.5555 6.83143C20.391 6.94132 20.1978 6.99999 20 7.00003H16M1 1L21 21M7.00003 16V20C6.99999 20.1978 6.94132 20.391 6.83143 20.5555C6.72155 20.7199 6.56539 20.848 6.38269 20.9237C6.19999 20.9993 5.99895 21.0192 5.805 20.9806C5.61105 20.942 5.43288 20.8468 5.29303 20.707C5.01626 20.4263 4.67703 20.215 4.30303 20.0904C3.92903 19.9658 3.53086 19.9314 3.14103 19.99C2.98741 20.0119 2.8308 19.9977 2.68361 19.9486C2.53641 19.8995 2.40266 19.8168 2.29294 19.7071C2.18321 19.5974 2.10053 19.4636 2.05143 19.3164C2.00233 19.1692 1.98815 19.0126 2.01003 18.859C2.06865 18.4692 2.03425 18.071 1.90964 17.697C1.78504 17.323 1.57375 16.9838 1.29303 16.707C1.15322 16.5671 1.05802 16.389 1.01945 16.195C0.98088 16.0011 1.00068 15.8 1.07635 15.6173C1.15202 15.4346 1.28016 15.2785 1.44457 15.1686C1.60898 15.0587 1.80228 15 2.00003 15H6.00003" stroke="var(--stroke-0, #262625)" stroke-width="2" stroke-linecap="round" stroke-linejoin="round"/>
</svg>
