<svg preserveAspectRatio="none" width="100%" height="100%" overflow="visible" style="display: block;" viewBox="0 0 22 18" fill="none" xmlns="http://www.w3.org/2000/svg">
<path id="Vector" d="M1.37012 8.22219L9.74212 1.44519C10.0981 1.15715 10.5422 1 11.0001 1C11.4581 1 11.9021 1.15715 12.2581 1.44519L20.6291 8.22219M20 11.9993C20.2652 11.9993 20.5196 12.1046 20.7071 12.2922C20.8946 12.4797 21 12.7341 21 12.9993V14.9993C21 15.2645 20.8946 15.5188 20.7071 15.7064C20.5196 15.8939 20.2652 15.9993 20 15.9993H14.75M20 11.9993C20.5523 11.9993 21 11.5516 21 10.9993V8.99927C21 8.44698 20.5523 7.99927 20 7.99927H2C1.44772 7.99927 1 8.44698 1 8.99927V10.9993C1 11.5516 1.44772 11.9993 2 11.9993M20 11.9993H2M2 11.9993C1.73478 11.9993 1.48043 12.1046 1.29289 12.2922C1.10536 12.4797 1 12.7341 1 12.9993V14.9993C1 15.2645 1.10536 15.5188 1.29289 15.7064C1.48043 15.8939 1.73478 15.9993 2 15.9993H11M5.66992 11.9993L11.7999 16.5993C12.01 16.7569 12.2491 16.8715 12.5036 16.9367C12.758 17.0019 13.0228 17.0163 13.2828 16.9792C13.5428 16.942 13.7929 16.854 14.0189 16.7202C14.2449 16.5864 14.4423 16.4094 14.5999 16.1993L17.7499 11.9993" stroke="var(--stroke-0, #262625)" stroke-width="2" stroke-linecap="round" stroke-linejoin="round"/>
</svg>
