<svg preserveAspectRatio="none" width="100%" height="100%" overflow="visible" style="display: block;" viewBox="0 0 22 22" fill="none" xmlns="http://www.w3.org/2000/svg">
<path id="Vector" d="M11.3374 20.9943C9.29394 21.0633 7.27844 20.5042 5.56249 19.3925C3.84654 18.2807 2.51263 16.6697 1.74049 14.7764C0.968351 12.8832 0.795103 10.7988 1.24409 8.80407C1.69308 6.80935 2.74272 5.00019 4.25158 3.62039C5.76044 2.24059 7.65599 1.35646 9.6828 1.08714C11.7096 0.817822 13.7703 1.17626 15.5871 2.11415C17.4039 3.05204 18.8896 4.52431 19.8439 6.33256C20.7982 8.14082 21.1753 10.1981 20.9244 12.2273M10.9994 5.00025V11.0002L12.9994 12.0002M12.9994 17.0002L16.9994 21.0002M16.9994 21.0002L20.9994 17.0002M16.9994 21.0002V13.0002" stroke="var(--stroke-0, #262625)" stroke-width="2" stroke-linecap="round" stroke-linejoin="round"/>
</svg>
