<svg preserveAspectRatio="none" width="100%" height="100%" overflow="visible" style="display: block;" viewBox="0 0 22 22" fill="none" xmlns="http://www.w3.org/2000/svg">
<path id="Vector" d="M19.3391 16.5191C20.7071 14.4521 21.2587 11.9507 20.8869 9.50007C20.5151 7.04943 19.2464 4.8242 17.3269 3.25597C15.4074 1.68773 12.9739 0.888255 10.4983 1.0126C8.02279 1.13695 5.68163 2.17625 3.92894 3.92894C2.17625 5.68163 1.13695 8.02279 1.0126 10.4983C0.888255 12.9739 1.68773 15.4074 3.25597 17.3269C4.8242 19.2464 7.04943 20.5151 9.50007 20.8869C11.9507 21.2587 14.4521 20.7071 16.5191 19.3391M12.4089 12.4089L16.5889 16.5889M19.999 17.999C19.999 19.1036 19.1036 19.999 17.999 19.999C16.8945 19.999 15.999 19.1036 15.999 17.999C15.999 16.8945 16.8945 15.999 17.999 15.999C19.1036 15.999 19.999 16.8945 19.999 17.999ZM12.999 10.999C12.999 12.1036 12.1036 12.999 10.999 12.999C9.89445 12.999 8.99902 12.1036 8.99902 10.999C8.99902 9.89445 9.89445 8.99902 10.999 8.99902C12.1036 8.99902 12.999 9.89445 12.999 10.999Z" stroke="var(--stroke-0, #262625)" stroke-width="2" stroke-linecap="round" stroke-linejoin="round"/>
</svg>
