<svg preserveAspectRatio="none" width="100%" height="100%" overflow="visible" style="display: block;" viewBox="0 0 22 22" fill="none" xmlns="http://www.w3.org/2000/svg">
<path id="Vector" d="M5.99951 2.34009V4.00009C5.99951 4.79574 6.31558 5.5588 6.87819 6.12141C7.4408 6.68402 8.20386 7.00009 8.99951 7.00009M9.99956 20.95V17C9.99956 16.4696 9.78885 15.9609 9.41377 15.5858C9.0387 15.2107 8.52999 15 7.99956 15C7.46913 15 6.96042 14.7893 6.58535 14.4142C6.21027 14.0391 5.99956 13.5304 5.99956 13V12C5.99956 11.4696 5.78885 10.9609 5.41377 10.5858C5.0387 10.2107 4.52999 10 3.99956 10H1.04956M13.9995 20.54V16C13.9995 15.4696 14.2102 14.9609 14.5853 14.5858C14.9604 14.2107 15.4691 14 15.9995 14H20.5395C19.985 15.7631 18.9527 17.338 17.5573 18.55C16.1619 19.7619 14.4579 20.5634 12.6346 20.8655C10.8112 21.1676 8.93981 20.9585 7.22811 20.2614C5.51641 19.5642 4.03139 18.4064 2.93793 16.9163C1.84446 15.4263 1.18533 13.6623 1.03371 11.8204C0.882091 9.97837 1.24392 8.1304 2.07901 6.4816C2.91411 4.83281 4.18981 3.4477 5.76448 2.48007C7.33915 1.51243 9.15118 1.00011 10.9994 1M18.9995 5V3C18.9995 2.46957 18.7888 1.96086 18.4137 1.58579C18.0387 1.21071 17.5299 1 16.9995 1C16.4691 1 15.9604 1.21071 15.5853 1.58579C15.2102 1.96086 14.9995 2.46957 14.9995 3V5M13.9995 5H19.9995C20.5518 5 20.9995 5.44772 20.9995 6V9C20.9995 9.55228 20.5518 10 19.9995 10H13.9995C13.4472 10 12.9995 9.55228 12.9995 9V6C12.9995 5.44772 13.4472 5 13.9995 5Z" stroke="var(--stroke-0, #262625)" stroke-width="2" stroke-linecap="round" stroke-linejoin="round"/>
</svg>
