<svg preserveAspectRatio="none" width="100%" height="100%" overflow="visible" style="display: block;" viewBox="0 0 22 22" fill="none" xmlns="http://www.w3.org/2000/svg">
<path id="Vector" d="M5.01 17.0012H5M9.01 17.0012H9M14 9.00122V13.0012M16.8401 6.17119C16.4686 5.79929 16.0274 5.50425 15.5418 5.30295C15.0562 5.10166 14.5357 4.99805 14.0101 4.99805C13.4844 4.99805 12.9639 5.10166 12.4783 5.30295C11.9927 5.50425 11.5515 5.79929 11.1801 6.17119M19.66 3.34129C18.1598 1.84214 16.1258 1 14.005 1C11.8842 1 9.85012 1.84214 8.34998 3.34129M3 13.0012H19C20.1046 13.0012 21 13.8967 21 15.0012V19.0012C21 20.1058 20.1046 21.0012 19 21.0012H3C1.89543 21.0012 1 20.1058 1 19.0012V15.0012C1 13.8967 1.89543 13.0012 3 13.0012Z" stroke="var(--stroke-0, #262625)" stroke-width="2" stroke-linecap="round" stroke-linejoin="round"/>
</svg>
