<svg preserveAspectRatio="none" width="100%" height="100%" overflow="visible" style="display: block;" viewBox="0 0 22 18" fill="none" xmlns="http://www.w3.org/2000/svg">
<path id="Vector" d="M4 1H5C5.79565 1 6.55871 1.31607 7.12132 1.87868C7.68393 2.44129 8 3.20435 8 4M8 4C8 3.20435 8.31607 2.44129 8.87868 1.87868C9.44129 1.31607 10.2044 1 11 1H12M8 4V14M12 17H11C10.2044 17 9.44129 16.6839 8.87868 16.1213C8.31607 15.5587 8 14.7956 8 14M8 14C8 14.7956 7.68393 15.5587 7.12132 16.1213C6.55871 16.6839 5.79565 17 5 17H4M4 13H3C2.46957 13 1.96086 12.7893 1.58579 12.4142C1.21071 12.0391 1 11.5304 1 11V7C1 6.46957 1.21071 5.96086 1.58579 5.58579C1.96086 5.21071 2.46957 5 3 5H4M12 5H19C19.5304 5 20.0391 5.21071 20.4142 5.58579C20.7893 5.96086 21 6.46957 21 7V11C21 11.5304 20.7893 12.0391 20.4142 12.4142C20.0391 12.7893 19.5304 13 19 13H12" stroke="var(--stroke-0, #262625)" stroke-width="2" stroke-linecap="round" stroke-linejoin="round"/>
</svg>
