<svg preserveAspectRatio="none" width="100%" height="100%" overflow="visible" style="display: block;" viewBox="0 0 22 22" fill="none" xmlns="http://www.w3.org/2000/svg">
<path id="Vector" d="M1 1L21 21M15.5 15.4999L11 19.9999L4 12.9999C2.5 11.5499 1 9.7999 1 7.4999C1.00067 6.65952 1.1939 5.83047 1.56487 5.0764C1.93584 4.32233 2.47467 3.6633 3.14 3.1499M7.76001 2.1C8.91001 2.32 9.89001 2.88 11 4C12.5 2.5 13.74 2 15.5 2C16.9587 2 18.3576 2.57946 19.3891 3.61091C20.4205 4.64236 21 6.04131 21 7.5C21 9.62 19.7 11.28 18.33 12.67" stroke="var(--stroke-0, #262625)" stroke-width="2" stroke-linecap="round" stroke-linejoin="round"/>
</svg>
