<svg preserveAspectRatio="none" width="100%" height="100%" overflow="visible" style="display: block;" viewBox="0 0 22 22" fill="none" xmlns="http://www.w3.org/2000/svg">
<path id="Vector" d="M11.0008 4.00884C11.002 3.60887 10.9232 3.2127 10.769 2.84364C10.6148 2.47457 10.3884 2.14007 10.1031 1.85979C9.81773 1.5795 9.47923 1.35911 9.10746 1.21157C8.7357 1.06403 8.33819 0.992316 7.9383 1.00065C7.53842 1.00899 7.14424 1.0972 6.77895 1.26011C6.41365 1.42301 6.08462 1.65732 5.81121 1.94924C5.53779 2.24117 5.32552 2.58482 5.18686 2.95999C5.0482 3.33516 4.98596 3.73427 5.00381 4.13384M11.0008 4.00884V17.0088M11.0008 4.00884C10.9996 3.60887 11.0784 3.2127 11.2326 2.84364C11.3867 2.47457 11.6131 2.14007 11.8985 1.85979C12.1838 1.5795 12.5223 1.35911 12.8941 1.21157C13.2659 1.06403 13.6634 0.992316 14.0633 1.00065C14.4631 1.00899 14.8573 1.0972 15.2226 1.26011C15.5879 1.42301 15.9169 1.65732 16.1903 1.94924C16.4638 2.24117 16.676 2.58482 16.8147 2.95999C16.9534 3.33516 17.0156 3.73427 16.9977 4.13384C17.5855 4.28498 18.1312 4.56789 18.5935 4.96115C19.0558 5.35441 19.4225 5.84771 19.6659 6.40369C19.9093 6.95966 20.023 7.56373 19.9984 8.17015C19.9737 8.77657 19.8114 9.36943 19.5237 9.90384M5.00381 4.13384C4.41601 4.28498 3.87031 4.56789 3.40804 4.96115C2.94577 5.35441 2.57905 5.84771 2.33565 6.40369C2.09225 6.95966 1.97857 7.56373 2.0032 8.17015C2.02783 8.77657 2.19013 9.36943 2.47781 9.90384M5.00381 4.13384C5.02358 4.61757 5.15999 5.08928 5.40166 5.50879M2.47781 9.90384C1.97199 10.3148 1.57423 10.8431 1.31915 11.4428C1.06406 12.0425 0.959365 12.6954 1.01417 13.3448C1.06898 13.9942 1.28162 14.6204 1.63361 15.1689C1.9856 15.7173 2.46627 16.1715 3.03381 16.4918M2.47781 9.90384C2.66075 9.75485 2.85649 9.62328 3.06278 9.50879M3.03381 16.4918C2.96372 17.0341 3.00555 17.5849 3.15669 18.1104C3.30784 18.6358 3.5651 19.1247 3.91259 19.5468C4.26008 19.9689 4.69042 20.3153 5.17703 20.5646C5.66364 20.8139 6.19618 20.9608 6.74178 20.9962C7.28738 21.0316 7.83445 20.9548 8.34919 20.7705C8.86394 20.5861 9.33544 20.2983 9.73457 19.9246C10.1337 19.5509 10.452 19.0994 10.6698 18.5979C10.8876 18.0964 11.0002 17.5556 11.0008 17.0088M3.03381 16.4918C3.63407 16.8304 4.31152 17.009 5.00069 17.0087M11.0008 17.0088C11.0014 17.5556 11.114 18.0964 11.3318 18.5979C11.5496 19.0994 11.8679 19.5509 12.267 19.9246C12.6661 20.2983 13.1376 20.5861 13.6524 20.7705C14.1671 20.9548 14.7142 21.0316 15.2598 20.9962C15.8054 20.9608 16.3379 20.8139 16.8245 20.5646C17.3111 20.3153 17.7415 19.9689 18.089 19.5468C18.4364 19.1247 18.6937 18.6358 18.8449 18.1104C18.996 17.5849 19.0378 17.0341 18.9677 16.4918M19.5237 9.90384C20.0296 10.3148 20.4273 10.8431 20.6824 11.4428C20.9375 12.0425 21.0422 12.6954 20.9874 13.3448C20.9326 13.9942 20.7199 14.6204 20.3679 15.1689C20.016 15.7173 19.5353 16.1715 18.9677 16.4918M19.5237 9.90384C19.3408 9.75485 19.145 9.62328 18.9387 9.50879M18.9677 16.4918C18.3675 16.8304 17.6899 17.009 17.0007 17.0087M14.0007 12.0088C13.1612 11.7134 12.4281 11.1758 11.8941 10.4638C11.3601 9.7518 11.0492 8.89746 11.0007 8.00879C10.9523 8.89746 10.6414 9.7518 10.1074 10.4638C9.57341 11.1758 8.84029 11.7134 8.00073 12.0088M16.5999 5.50879C16.8419 5.08937 16.9788 4.61761 16.9989 4.13379" stroke="var(--stroke-0, #262625)" stroke-width="2" stroke-linecap="round" stroke-linejoin="round"/>
</svg>
