<svg preserveAspectRatio="none" width="100%" height="100%" overflow="visible" style="display: block;" viewBox="0 0 20 20" fill="none" xmlns="http://www.w3.org/2000/svg">
<path id="Vector" d="M1 7H19M1 7V17C1 17.5304 1.21071 18.0391 1.58579 18.4142C1.96086 18.7893 2.46957 19 3 19H17C17.5304 19 18.0391 18.7893 18.4142 18.4142C18.7893 18.0391 19 17.5304 19 17V7M1 7L3.45 2.10005C3.61696 1.7687 3.87281 1.49034 4.18893 1.29607C4.50504 1.10181 4.86897 0.999317 5.24 1.00005H14.76C15.1327 0.997454 15.4988 1.09907 15.8168 1.29344C16.1349 1.4878 16.3923 1.76718 16.56 2.10005L19 7M10 1V7" stroke="var(--stroke-0, #262625)" stroke-width="2" stroke-linecap="round" stroke-linejoin="round"/>
</svg>
