<svg preserveAspectRatio="none" width="100%" height="100%" overflow="visible" style="display: block;" viewBox="0 0 78 25" fill="none" xmlns="http://www.w3.org/2000/svg">
<g id="logo">
<g id="Vector">
<path d="M4.16466 10.6518C3.52355 10.6518 2.91223 10.8184 2.39338 11.1349L1.64182 11.6505C1.65467 11.3334 1.66083 10.4729 1.667 9.56912C1.67316 8.6947 1.67984 7.79038 1.69268 7.34595C1.69782 7.17014 1.52316 7.10312 1.39113 7.06806C1.29147 7.04176 1.13941 7.02681 0.962183 7.02681C0.784952 7.02681 0.593338 7.04331 0.469533 7.07063C0.165929 7.13766 0.0164388 7.22273 0.0241445 7.31914L0 17.9483C0 17.955 0.00102742 17.9612 0.00359599 17.9673C0.0693511 18.1354 0.602584 18.2251 0.961669 18.2251C1.16921 18.2251 1.53497 18.1973 1.65313 18.0112C1.65878 18.0024 1.66135 17.9921 1.66135 17.9813L1.64182 17.4533C1.99115 17.8745 2.76583 18.2983 3.19632 18.3437C3.38382 18.3633 3.56979 18.3736 3.74907 18.3736C5.08421 18.3736 6.17944 17.8111 6.83289 16.7898C7.61938 15.5612 7.67435 13.8458 6.97672 12.314C6.50976 11.2886 5.43199 10.6518 4.16415 10.6518H4.16466ZM5.10887 16.1551C4.72256 16.5835 4.17134 16.8099 3.51431 16.8099C3.37458 16.8099 3.22817 16.7996 3.08022 16.7789C2.48277 16.6965 2.04252 16.3051 1.84063 15.6766C1.54114 14.7465 1.81905 13.5277 2.4725 12.9023C2.90145 12.4919 3.39512 12.2749 3.9001 12.2749C4.83609 12.2749 5.5635 13.0219 5.66984 14.0923C5.75306 14.9296 5.55374 15.6622 5.10887 16.1551Z" fill="var(--fill-0, #262625)"/>
<path d="M45.144 11.4046C44.1012 11.4046 43.1528 11.8676 42.5718 12.6512L42.7111 8.02033C42.7111 8.01569 42.7111 8.01105 42.7095 8.00641C42.6453 7.74656 42.2102 7.73212 41.9502 7.72387C41.9256 7.72284 41.9025 7.72232 41.883 7.72129C41.7972 7.71717 41.7175 7.7151 41.64 7.7151C41.1391 7.7151 40.8797 7.79193 40.8473 7.95021C40.8468 7.95279 40.8463 7.95536 40.8463 7.95794C40.8437 8.01208 40.6691 11.6912 40.6449 14.8419C40.5632 14.9749 40.4718 15.1059 40.3706 15.2209C39.7947 15.8746 38.8556 16.6093 38.6127 16.731L38.5885 14.0417C38.5885 13.9866 38.5834 13.8123 38.5767 13.5705C38.5562 12.8332 38.5187 11.4608 38.533 10.9235C38.5341 10.8807 38.5171 10.8395 38.4832 10.8044C38.3286 10.6451 37.8678 10.6328 37.7301 10.6328C37.3638 10.6328 36.7381 10.7122 36.7176 11.0102C36.7011 11.2478 36.715 11.6165 36.7314 12.0434C36.7777 13.2658 36.8475 15.1136 36.2573 15.9416C35.9172 16.4186 35.4122 16.7269 34.971 16.7269C34.4922 16.7269 34.1737 16.3747 34.075 15.7349L34.0848 10.9385C34.0848 10.9349 34.0848 10.9308 34.0838 10.9271C34.0257 10.6647 33.419 10.6364 33.1606 10.6364C33.1514 10.6364 32.2344 10.6389 32.2133 10.874C32.1959 10.9875 32.2108 11.5304 32.2318 12.2816C32.2678 13.5741 32.3176 15.3441 32.2128 15.7174C32.1127 16.0757 31.7926 16.4608 31.4525 16.6341C31.3801 16.6712 31.2979 16.6903 31.2157 16.6903C31.1135 16.6903 31.0149 16.6609 30.9301 16.6057C30.6645 16.432 30.5212 16.1561 30.4785 15.737C30.3573 14.5532 30.4487 13.0446 30.5371 11.5861C30.5797 10.8807 30.6203 10.2146 30.6342 9.61707C30.647 9.07262 30.6578 7.80482 30.6255 7.33977C30.6034 7.02423 29.9576 7 29.7604 7C29.3694 7 28.7859 7.08662 28.7797 7.32636L28.7643 11.3865C28.5475 11.2004 27.9763 10.7281 27.6937 10.6688C27.4076 10.6085 27.1245 10.5781 26.8523 10.5781C24.4856 10.5781 23.1982 12.7868 23.189 14.8651C23.189 14.9327 23.192 15.0224 23.1962 15.1178C23.2059 15.3673 23.2182 15.6777 23.1736 15.82C23.0472 16.2216 22.8874 16.349 22.8253 16.3984C22.6588 16.531 22.4318 16.6134 22.2324 16.6134C22.085 16.6134 21.8276 16.5645 21.7655 16.2371C21.6704 15.7385 21.7084 15.142 21.7485 14.5109C21.8256 13.3009 21.9057 12.0501 21.0971 11.2025C20.7345 10.822 20.1771 10.6126 19.5277 10.6126C18.8363 10.6126 18.131 10.8503 17.6409 11.2484C17.5207 11.3458 17.4503 11.4443 17.3943 11.5232C17.363 11.567 17.3357 11.6056 17.3044 11.6381C17.289 11.5752 17.2797 11.4381 17.2741 11.3499C17.2633 11.1824 17.2546 11.0767 17.2289 11.0261C17.1385 10.8503 16.8934 10.757 16.52 10.757C16.1465 10.757 15.7309 10.8534 15.5218 10.9431C15.4453 10.9761 15.396 11.0504 15.3965 11.1329C15.398 11.4082 15.4227 11.699 15.4463 11.9805C15.4761 12.3378 15.5074 12.7074 15.4951 13.0663C15.454 14.3093 15.3626 14.6269 14.4076 15.4745C13.7336 16.0731 12.5592 16.7722 11.4686 16.7722C11.0196 16.7722 10.6231 16.6531 10.2907 16.4191C10.1299 16.3056 9.52628 15.6828 9.53193 15.4194C9.53244 15.392 9.54015 15.3724 9.55556 15.358C9.81653 15.373 10.0554 15.3802 10.2861 15.3802C12.3933 15.3802 13.618 14.7357 13.9267 13.4648C14.1137 12.6961 14.0028 12.0217 13.6062 11.5149C13.149 10.9302 12.3419 10.5951 11.3926 10.5951C10.657 10.5951 9.93622 10.7998 9.3624 11.172C8.00004 12.0557 7.30242 13.9087 7.66561 15.6782C7.84336 16.5423 8.28875 17.2136 8.98945 17.6735C9.60847 18.0797 10.4001 18.2947 11.2775 18.2947C12.8104 18.2947 14.3254 17.6472 15.1843 16.6346V17.855C15.1843 18.021 15.3025 18.1416 15.5085 18.187C15.6035 18.2076 16.0484 18.2102 16.2348 18.2102C16.39 18.2102 16.5364 18.2086 16.5991 18.2066C16.6165 18.2061 16.6345 18.2055 16.6535 18.205C16.7773 18.2019 16.9181 18.1988 17.0393 18.139C17.121 18.0988 17.1765 18.0205 17.1883 17.9292C17.2212 17.6735 17.2058 17.096 17.1934 16.6315C17.1862 16.3557 17.1796 16.118 17.1847 16.0061C17.1888 15.9169 17.1929 15.8128 17.1975 15.6983C17.2196 15.1348 17.2505 14.363 17.3234 13.9861C17.4621 13.271 18.2815 12.4079 19.0906 12.4079C19.557 12.4079 19.8473 12.7337 19.9079 13.3251C19.9495 13.7324 19.9243 14.2274 19.8976 14.7512C19.8396 15.8906 19.7738 17.1816 20.4231 17.8673C20.7406 18.2024 21.1906 18.3654 21.7983 18.3654C21.9376 18.3654 22.086 18.3566 22.2412 18.3391C22.9974 18.2535 23.4263 17.7199 23.8316 17.1888C24.1039 17.526 24.3931 17.8441 24.8503 18.0658C25.3193 18.2932 25.8438 18.4133 26.3668 18.4133C27.4137 18.4133 28.3394 17.9364 28.867 17.1311C29.1003 17.8993 29.6705 18.337 30.4462 18.337C31.227 18.337 32.0885 17.8766 32.5735 17.2084C32.9706 17.9715 33.6204 18.3906 34.412 18.3906C35.0516 18.3906 35.7415 18.1215 36.3549 17.6333C36.5111 17.509 36.6364 17.3971 36.7417 17.2878C36.7535 17.7647 36.713 17.8771 36.2922 18.1664C35.9634 18.3922 35.6223 18.5489 35.2607 18.7139C34.8009 18.9243 34.3257 19.1418 33.8819 19.5141C32.8673 20.3658 32.4276 21.5135 32.762 22.4379C33.0024 23.103 33.6101 23.5 34.3869 23.5C34.8477 23.5 35.3526 23.366 35.8869 23.102C36.7253 22.6875 37.3859 21.9662 37.8503 20.9582C38.3255 19.9276 38.4812 18.8418 38.5279 18.1019C39.2116 17.7621 39.9935 17.3713 40.6542 16.8589C40.6696 17.526 40.6983 18.104 40.7456 18.5278C40.7738 18.7814 41.7884 18.7887 41.904 18.7887C42.4753 18.7887 42.504 18.7072 42.5148 18.6768C42.5729 18.5139 42.5682 18.321 42.5559 18.1957C43.2427 18.7283 43.9655 18.998 44.7063 18.998C45.7949 18.998 46.8511 18.3767 47.5307 17.3358C48.3516 16.0783 48.4826 14.4985 47.88 13.1096C47.4233 12.0568 46.3743 11.4025 45.1425 11.4025L45.144 11.4046ZM10.1165 12.609C10.4422 12.2125 10.8737 11.9856 11.3006 11.9856C11.4506 11.9856 11.5986 12.014 11.7409 12.0702C12.2541 12.2723 12.3733 12.6832 12.3132 13.0003C12.2125 13.5339 11.7065 13.8128 11.258 13.8128H9.50676C9.67628 13.2962 9.87612 12.9018 10.117 12.609H10.1165ZM27.3053 16.6011C27.0757 16.6923 26.8548 16.7387 26.6483 16.7387C25.6902 16.7387 25.1878 15.7571 25.1154 14.7842C24.9983 13.2168 25.8372 12.2604 26.7259 12.1259C26.8476 12.1073 26.9668 12.098 27.0803 12.098C27.9511 12.098 28.5773 12.659 28.7561 13.5983C28.9667 14.7079 28.4817 16.1345 27.3059 16.6016L27.3053 16.6011ZM36.5028 19.5342C36.4366 19.6883 36.3749 19.8456 36.3148 19.9982C36.0081 20.7788 35.7184 21.5155 34.8995 21.8141C34.8533 21.8311 34.8045 21.8398 34.7557 21.8398C34.6422 21.8398 34.5353 21.795 34.4557 21.713C34.3417 21.596 34.2867 21.4697 34.2887 21.3268C34.2918 21.0727 34.4732 20.7731 34.8436 20.4107C34.9371 20.3189 35.8242 19.6868 36.3477 19.4357C36.3816 19.4192 36.4129 19.4043 36.4412 19.3903C36.4951 19.364 36.5501 19.3367 36.5845 19.3238C36.5696 19.3795 36.5244 19.4842 36.5028 19.5347V19.5342ZM46.1488 16.2376C45.7964 17.0403 45.1157 17.5008 44.281 17.5008C44.245 17.5008 44.2085 17.4997 44.1721 17.4982C43.5135 17.4678 43.007 17.0816 42.7465 16.4103C42.3838 15.4766 42.597 14.2413 43.2325 13.5983C43.6476 13.1787 44.1947 12.9276 44.6966 12.9276C45.106 12.9276 45.4723 13.0921 45.7563 13.4035C46.4067 14.1165 46.5685 15.2817 46.1493 16.2371L46.1488 16.2376Z" fill="var(--fill-0, #262625)"/>
<path d="M77.4889 15.5756C77.4755 15.4818 77.4339 15.4003 77.3697 15.341C77.2248 15.2069 76.9541 15.11 76.725 15.11C76.5806 15.11 76.4727 15.1482 76.4131 15.2204C75.8285 15.9288 75.5018 16.3123 75.0492 16.6047C74.2951 17.0914 73.4649 17.3708 72.7725 17.3708C72.285 17.3708 71.8601 17.2378 71.5103 16.9754C70.8728 16.4969 70.5558 15.5452 70.7022 14.5506C70.8409 13.6107 71.3464 12.8956 72.0548 12.6378C72.2151 12.5796 72.3651 12.5497 72.5002 12.5497C72.699 12.5497 72.867 12.6151 72.9851 12.7384C73.1033 12.8616 73.1665 13.0379 73.1593 13.2215C73.1542 13.3483 73.1223 13.4751 73.0915 13.5978C73.0268 13.8567 72.9595 14.1242 73.2091 14.2944C73.3355 14.3805 73.4942 14.4264 73.6689 14.4264C74.16 14.4264 74.7297 14.0557 74.7626 13.5241C74.8417 12.2455 74.3059 11.3953 73.2929 11.1906C73.0545 11.1427 72.8136 11.1179 72.5762 11.1179C71.6387 11.1179 70.732 11.502 70.0226 12.1991C69.3352 12.8745 68.8873 13.7814 68.7604 14.7527C68.7419 14.895 68.7388 15.0956 68.7357 15.308C68.7311 15.6029 68.727 15.9081 68.6792 16.0494C68.5513 16.4294 67.808 17.1362 67.3302 17.1362C67.1031 17.1362 66.9629 16.9718 66.9126 16.648C66.8381 16.169 66.9151 15.5622 66.9963 14.9198C67.1663 13.5782 67.3585 12.0578 66.0454 11.5726C65.8101 11.486 65.5594 11.4417 65.299 11.4417C64.0003 11.4417 62.7361 12.5187 62.2316 12.9704C62.2301 12.9034 62.2331 12.8332 62.2373 12.7384C62.2393 12.6935 62.2414 12.6435 62.2434 12.5863C62.2691 12.5718 62.3225 12.5466 62.3785 12.5192C62.6688 12.3795 63.3494 12.0527 63.9392 11.5515C64.6779 10.9235 65.0457 10.228 65.0324 9.48456C65.0005 7.76718 64.3558 7.00103 62.9405 7.00103C62.8563 7.00103 62.7684 7.00361 62.6785 7.00928C61.5843 7.07527 60.8888 7.86514 60.5528 9.42424C60.2692 10.7395 60.2939 12.3867 60.3139 13.7107C60.3237 14.365 60.3324 14.9301 60.3057 15.373C60.2636 16.0721 59.1971 16.9914 58.7805 17.0398C58.7343 17.045 58.6885 17.0481 58.6438 17.0481C58.1717 17.0481 57.8301 16.7516 57.7736 16.2933C57.6883 15.5998 57.7176 14.8311 57.7464 14.0881C57.7613 13.7004 57.7752 13.3339 57.7741 12.9776C57.7741 12.9776 59.4442 12.9776 59.4447 12.9776C59.6677 12.9776 59.6846 12.3419 59.6846 12.147C59.6846 11.9521 59.6672 11.3293 59.4416 11.3293H57.826L57.8651 8.99013C57.8553 8.71996 57.3786 8.62355 56.9363 8.62355C56.6229 8.62355 56.0897 8.68284 56.0804 8.90609C56.0563 9.47889 56.0758 11.0225 56.0804 11.3288C56.0804 11.3288 54.8865 11.3118 54.8855 11.3118C54.621 11.3118 54.5501 11.9031 54.5501 12.2527C54.5501 12.4378 54.5696 12.8688 54.7484 12.8688C54.884 12.8688 55.0443 12.8611 55.1989 12.8539C55.3571 12.8461 55.521 12.8384 55.6628 12.8384C55.9849 12.8384 56.0537 12.8822 56.0681 12.9034L55.8359 15.1874C55.801 15.4653 53.7887 17.2528 52.0473 17.2528C51.6075 17.2528 51.2217 17.1352 50.9001 16.9037C50.5832 16.6753 50.4265 16.3428 50.2601 15.9906L50.2467 15.9623C50.2344 15.936 50.2143 15.8932 50.2041 15.8659C50.2041 15.8659 50.2046 15.8659 50.2051 15.8659C50.219 15.8659 50.2349 15.8664 50.2539 15.8674C50.2714 15.8679 50.2909 15.8689 50.3125 15.8695L50.4558 15.8731C50.6813 15.8787 50.914 15.8849 51.1519 15.8849C52.3319 15.8849 53.6223 15.7375 54.2454 14.646C54.6919 13.8639 54.7304 13.0735 54.3533 12.4208C53.9223 11.6742 53.0223 11.2107 52.0041 11.2107C51.7786 11.2107 51.551 11.2344 51.3281 11.2808C49.3369 11.6954 48.3922 13.6164 48.3568 15.226C48.3383 16.0654 48.5427 16.8444 48.9486 17.4786C49.3939 18.1756 50.0664 18.6551 50.893 18.866C51.2264 18.9511 51.5685 18.9939 51.9106 18.9939C53.1913 18.9939 54.5172 18.4077 55.9623 17.2017C56.0352 17.8091 56.3475 18.3169 56.8304 18.6051C57.188 18.8191 57.6118 18.932 58.0556 18.932C59.0825 18.932 60.0869 18.3468 60.485 17.5291C60.4947 17.6987 60.4876 18.0168 60.4834 18.2092C60.4798 18.3788 60.4768 18.5133 60.4809 18.5664C60.4978 18.7876 60.7799 18.9201 61.2355 18.9201C61.6465 18.9201 62.2265 18.7918 62.2296 18.5072C62.2306 18.4087 62.2296 18.1957 62.2296 17.9488C62.228 17.4348 62.2254 16.7305 62.2373 16.4557C62.2599 15.9231 62.4571 15.1832 62.7397 14.5712C63.0808 13.8324 63.5118 13.3303 63.9531 13.1575C64.1847 13.0668 64.3861 13.0209 64.5515 13.0209C64.7313 13.0209 64.8695 13.0735 64.9743 13.1812C65.2594 13.4756 65.2414 14.1356 65.225 14.7182C65.2224 14.8198 65.2194 14.9198 65.2183 15.0157C65.2152 15.2595 65.1942 15.5204 65.1716 15.7963C65.1094 16.5542 65.0452 17.3378 65.338 17.9586C65.6678 18.6582 66.2581 18.8046 66.6953 18.8046C67.603 18.8046 68.6972 18.1679 69.1467 17.3817L69.1955 17.3672C69.8366 18.4015 70.9945 18.9701 72.4617 18.9701C73.2785 18.9701 74.1338 18.7835 74.8705 18.4443C75.5332 18.139 77.6466 16.649 77.4919 15.5777L77.4889 15.5756ZM62.997 8.49414C63.0202 8.49002 63.0428 8.48847 63.0643 8.48847C63.3376 8.48847 63.4732 8.79472 63.5066 9.05664C63.5775 9.61449 63.1121 10.245 62.9092 10.4899C62.6354 10.8204 62.3713 11.0303 62.2434 11.088C62.2424 11.0359 62.2409 10.9818 62.2393 10.9266C62.2177 10.0703 62.1854 8.77719 62.9965 8.49414H62.997ZM52.112 12.5481C52.1901 12.5481 52.2718 12.5528 52.3545 12.5626C52.6421 12.5961 52.9077 12.8544 53.0146 13.2055C53.0978 13.4782 53.0875 13.8556 52.8096 14.0954C52.676 14.2109 52.3324 14.4088 51.8957 14.4197H50.2945C50.634 13.1606 51.2289 12.5481 52.1115 12.5481H52.112Z" fill="var(--fill-0, #262625)"/>
</g>
</g>
</svg>
