<svg preserveAspectRatio="none" width="100%" height="100%" overflow="visible" style="display: block;" viewBox="0 0 22 22" fill="none" xmlns="http://www.w3.org/2000/svg">
<path id="Vector" d="M9.5 8.5L8.5 6.21C8.2 5.48 7.8 5 7 5M7 5H3.5C1.79 5 1 5.5 1 7.5C1.08384 9.29378 1.7912 11.002 3 12.33M7 5C7 3.45 7.24 1 5 1C3 1 2.5 3.17 2.5 5M13.5 12.5L15.79 13.5C16.52 13.8 17 14.2 17 15M17 15V18.5C17 20.21 16.5 21 14.5 21C12.7063 20.9162 10.998 20.2088 9.67004 19M17 15C18.55 15 21 14.7599 21 16.9999C21 18.9999 18.83 19.4999 17 19.4999M3.60004 12.1101L9.39004 8.90008C11.28 7.85008 14.18 10.6801 13.1 12.6101L9.88004 18.4201C7.80004 22.1601 -0.209963 14.2301 3.60004 12.1101Z" stroke="var(--stroke-0, #262625)" stroke-width="2" stroke-linecap="round" stroke-linejoin="round"/>
</svg>
