<svg preserveAspectRatio="none" width="100%" height="100%" overflow="visible" style="display: block;" viewBox="0 0 160 200" fill="none" xmlns="http://www.w3.org/2000/svg">
<g id="Vector">
<path d="M43.512 35.824C36.816 35.824 30.424 37.472 25.008 40.6L17.16 45.696C17.296 42.56 17.36 34.056 17.424 25.128C17.488 16.488 17.56 7.552 17.688 3.16C17.744 1.424 15.912 0.76 14.536 0.408C13.496 0.144 11.904 0 10.056 0C8.208 0 6.2 0.16 4.912 0.432C1.736 1.088 0.176 1.928 0.256 2.88L0 107.936C0 108 0.016 108.064 0.04 108.12C0.728 109.784 6.296 110.672 10.048 110.672C12.216 110.672 16.032 110.4 17.272 108.56C17.328 108.472 17.36 108.368 17.352 108.264L17.152 103.048C20.8 107.208 28.896 111.4 33.392 111.848C35.352 112.048 37.296 112.144 39.168 112.144C53.112 112.144 64.56 106.584 71.384 96.488C79.6 84.344 80.176 67.392 72.888 52.248C68.008 42.112 56.752 35.816 43.504 35.816L43.512 35.824ZM53.376 90.216C49.336 94.448 43.576 96.688 36.72 96.688C35.256 96.688 33.728 96.584 32.184 96.384C25.944 95.568 21.344 91.696 19.232 85.488C16.104 76.296 19.008 64.248 25.832 58.064C30.312 54.008 35.472 51.864 40.752 51.864C50.528 51.864 58.136 59.248 59.24 69.824C60.104 78.104 58.024 85.344 53.384 90.208L53.376 90.216Z" fill="var(--fill-0, #262625)"/>
<path d="M127.488 124.928C116.592 124.928 106.688 129.504 100.616 137.248L102.072 91.48C102.072 91.432 102.072 91.384 102.056 91.344C101.384 88.776 96.84 88.632 94.128 88.552C93.872 88.544 93.632 88.536 93.424 88.528C92.528 88.488 91.696 88.472 90.88 88.472C85.648 88.472 82.936 89.232 82.6 90.792C82.6 90.816 82.592 90.848 82.592 90.872C82.552 91.664 78.6 170.384 81.56 195.352C81.856 197.856 92.456 197.928 93.664 197.928C99.632 197.928 99.936 197.128 100.048 196.824C100.656 195.216 100.608 193.304 100.48 192.072C107.656 197.336 115.208 200 122.944 200C134.32 200 145.352 193.856 152.448 183.568C161.024 171.144 162.392 155.528 156.096 141.8C151.328 131.392 140.368 124.928 127.496 124.928H127.488ZM137.984 172.688C134.304 180.624 127.192 185.176 118.472 185.176C118.096 185.176 117.72 185.176 117.336 185.152C110.456 184.856 105.168 181.032 102.44 174.4C98.648 165.168 100.88 152.96 107.512 146.608C111.848 142.456 117.568 139.976 122.808 139.976C127.088 139.976 130.912 141.6 133.88 144.68C140.68 151.728 142.368 163.24 137.984 172.688Z" fill="var(--fill-0, #262625)"/>
</g>
</svg>
