<svg preserveAspectRatio="none" width="100%" height="100%" overflow="visible" style="display: block;" viewBox="0 0 22 22" fill="none" xmlns="http://www.w3.org/2000/svg">
<path id="Vector" d="M12 2.43774H15C15.5304 2.43774 16.0391 2.64846 16.4142 3.02353C16.7893 3.3986 17 3.90731 17 4.43774V18.4377M1 18.4377H4M4 18.4377L10.758 20.1267C10.9054 20.1635 11.0592 20.1662 11.2078 20.1346C11.3564 20.103 11.4958 20.038 11.6155 19.9445C11.7352 19.851 11.8321 19.7315 11.8987 19.595C11.9653 19.4585 12 19.3086 12 19.1567V2.9997C11.9998 2.69588 11.9304 2.3951 11.797 2.12211C11.6637 1.84913 11.4699 1.61011 11.2303 1.42321C10.9908 1.23631 10.7118 1.10644 10.4146 1.04345C10.1174 0.980465 9.80975 0.986021 9.515 1.0597L5.515 2.0597C5.08232 2.16785 4.69821 2.41752 4.42371 2.76903C4.1492 3.12053 4.00007 3.55371 4 3.9997V18.4377ZM12 18.4377H21M9 10.4377V10.4477" stroke="var(--stroke-0, #262625)" stroke-width="2" stroke-linecap="round" stroke-linejoin="round"/>
</svg>
