<svg preserveAspectRatio="none" width="100%" height="100%" overflow="visible" style="display: block;" viewBox="0 0 22 22" fill="none" xmlns="http://www.w3.org/2000/svg">
<path id="Vector" d="M9.2 2.19995C4.5 2.99995 1 7.09995 1 12C1 12.5304 1.21071 13.0391 1.58579 13.4142C1.96086 13.7892 2.46957 14 3 14C3.53043 14 4.03914 13.7892 4.41421 13.4142C4.78929 13.0391 5 12.5304 5 12V11C5 10.4695 5.21071 9.96081 5.58579 9.58574C5.96086 9.21067 6.46957 8.99995 7 8.99995C7.53043 8.99995 8.03914 9.21067 8.41421 9.58574C8.78929 9.96081 9 10.4695 9 11V15C9 15.5304 9.21071 16.0391 9.58579 16.4142C9.96086 16.7892 10.4696 17 11 17C11.5304 17 12.0391 16.7892 12.4142 16.4142C12.7893 16.0391 13 15.5304 13 15V11C13 10.4695 13.2107 9.96081 13.5858 9.58574C13.9609 9.21067 14.4696 8.99995 15 8.99995C15.5304 8.99995 16.0391 9.21067 16.4142 9.58574C16.7893 9.96081 17 10.4695 17 11V12C17 12.5304 17.2107 13.0391 17.5858 13.4142C17.9609 13.7892 18.4696 14 19 14C19.5304 14 20.0391 13.7892 20.4142 13.4142C20.7893 13.0391 21 12.5304 21 12C21 7.09995 17.5 2.99995 12.8 2.19995M2.19995 13.8C2.63166 15.8135 3.74079 17.6181 5.34226 18.9126C6.94374 20.2071 8.94071 20.9133 11 20.9133C13.0592 20.9133 15.0562 20.2071 16.6576 18.9126C18.2591 17.6181 19.3682 15.8135 19.7999 13.8M13 3C13 4.10457 12.1046 5 11 5C9.89543 5 9 4.10457 9 3C9 1.89543 9.89543 1 11 1C12.1046 1 13 1.89543 13 3Z" stroke="var(--stroke-0, #262625)" stroke-width="2" stroke-linecap="round" stroke-linejoin="round"/>
</svg>
