<svg preserveAspectRatio="none" width="100%" height="100%" overflow="visible" style="display: block;" viewBox="0 0 22 22" fill="none" xmlns="http://www.w3.org/2000/svg">
<path id="Vector" d="M6 21C5.37902 20.5343 4.875 19.9303 4.52786 19.2361C4.18073 18.5418 4 17.7762 4 17M4 17C4.53043 17 5.03914 16.7893 5.41421 16.4142C5.78929 16.0391 6 15.5304 6 15C6 14.4696 5.78929 13.9609 5.41421 13.5858C5.03914 13.2107 4.53043 13 4 13C3.46957 13 2.96086 13.2107 2.58579 13.5858C2.21071 13.9609 2 14.4696 2 15C2 15.5304 2.21071 16.0391 2.58579 16.4142C2.96086 16.7893 3.46957 17 4 17ZM2.3 13C1.45485 11.8376 0.999736 10.4372 1 9C1 4.6 5.5 1 11 1C16.5 1 21 4.6 21 9C21 13.4 16.5 17 11 17C9.28094 17.0287 7.57578 16.6877 6 16" stroke="var(--stroke-0, #262625)" stroke-width="2" stroke-linecap="round" stroke-linejoin="round"/>
</svg>
