<svg preserveAspectRatio="none" width="100%" height="100%" overflow="visible" style="display: block;" viewBox="0 0 14 22" fill="none" xmlns="http://www.w3.org/2000/svg">
<path id="Vector" d="M7 9.00049V11.0005L8 12.0005M11.1301 6.66037L10.3201 2.61037C10.2287 2.14997 9.9782 1.73641 9.61256 1.44207C9.24692 1.14773 8.78941 0.991374 8.32011 1.00037H5.64011C5.17081 0.991374 4.71329 1.14773 4.34765 1.44207C3.98202 1.73641 3.73155 2.14997 3.64011 2.61037L2.86011 6.66037M2.87988 15.3605L3.67988 19.3605C3.77133 19.8209 4.02179 20.2345 4.38743 20.5288C4.75307 20.8232 5.21058 20.9795 5.67988 20.9705H8.39988C8.86918 20.9795 9.3267 20.8232 9.69234 20.5288C10.058 20.2345 10.3084 19.8209 10.3999 19.3605L11.2099 15.3105M13 11.0005C13 14.3142 10.3137 17.0005 7 17.0005C3.68629 17.0005 1 14.3142 1 11.0005C1 7.68678 3.68629 5.00049 7 5.00049C10.3137 5.00049 13 7.68678 13 11.0005Z" stroke="var(--stroke-0, #262625)" stroke-width="2" stroke-linecap="round" stroke-linejoin="round"/>
</svg>
