<svg preserveAspectRatio="none" width="100%" height="100%" overflow="visible" style="display: block;" viewBox="0 0 22 20" fill="none" xmlns="http://www.w3.org/2000/svg">
<path id="Vector" d="M11 3C12.5 1.5 13.74 1 15.5 1C16.9587 1 18.3576 1.57946 19.3891 2.61091C20.4205 3.64236 21 5.04131 21 6.5C21 8.79 19.49 10.54 18 12L11 19L4 12C2.5 10.55 1 8.8 1 6.5C1 5.04131 1.57946 3.64236 2.61091 2.61091C3.64236 1.57946 5.04131 1 6.5 1C8.26 1 9.5 1.5 11 3ZM11 3L9 5L12 8L10 10L11 11" stroke="var(--stroke-0, #262625)" stroke-width="2" stroke-linecap="round" stroke-linejoin="round"/>
</svg>
