<svg preserveAspectRatio="none" width="100%" height="100%" overflow="visible" style="display: block;" viewBox="0 0 22 20" fill="none" xmlns="http://www.w3.org/2000/svg">
<path id="Vector" d="M11 15V19M7 19H15M9 5.75006C9.00025 5.61685 9.03597 5.48611 9.1035 5.37128C9.17103 5.25646 9.26792 5.16168 9.38421 5.09671C9.5005 5.03174 9.632 4.99892 9.76519 5.00162C9.89837 5.00432 10.0284 5.04244 10.142 5.11206L13.806 7.36106C13.9152 7.42816 14.0054 7.52213 14.0679 7.634C14.1305 7.74586 14.1633 7.87189 14.1633 8.00006C14.1633 8.12823 14.1305 8.25426 14.0679 8.36613C14.0054 8.47799 13.9152 8.57196 13.806 8.63906L10.142 10.8891C10.0283 10.9588 9.89804 10.9969 9.76469 10.9995C9.63133 11.0021 9.49969 10.9691 9.38334 10.9039C9.26698 10.8387 9.17012 10.7437 9.10274 10.6285C9.03536 10.5134 8.99989 10.3824 9 10.2491V5.75006ZM3 1H19C20.1046 1 21 1.89543 21 3V13C21 14.1046 20.1046 15 19 15H3C1.89543 15 1 14.1046 1 13V3C1 1.89543 1.89543 1 3 1Z" stroke="var(--stroke-0, #262625)" stroke-width="2" stroke-linecap="round" stroke-linejoin="round"/>
</svg>
