<svg preserveAspectRatio="none" width="100%" height="100%" overflow="visible" style="display: block;" viewBox="0 0 22 22" fill="none" xmlns="http://www.w3.org/2000/svg">
<path id="Vector" d="M9 14L4 19M9 19H3C2.46957 19 1.96086 18.7893 1.58579 18.4142C1.21071 18.0391 1 17.5304 1 17V3C1 2.46957 1.21071 1.96086 1.58579 1.58579C1.96086 1.21071 2.46957 1 3 1H17C17.5304 1 18.0391 1.21071 18.4142 1.58579C18.7893 1.96086 19 2.46957 19 3V9.5M13.765 19.9999C13.6893 20.0472 13.6023 20.0734 13.5131 20.0757C13.4239 20.0781 13.3357 20.0565 13.2576 20.0132C13.1796 19.9699 13.1145 19.9066 13.0692 19.8297C13.0239 19.7528 13 19.6651 13 19.5759V11.3799C13 11.2906 13.0239 11.203 13.0692 11.1261C13.1145 11.0492 13.1796 10.9858 13.2576 10.9426C13.3357 10.8993 13.4239 10.8777 13.5131 10.8801C13.6023 10.8824 13.6893 10.9086 13.765 10.9559L19.643 14.6299C19.7868 14.7198 19.9054 14.8448 19.9876 14.9931C20.0699 15.1415 20.113 15.3083 20.113 15.4779C20.113 15.6475 20.0699 15.8143 19.9876 15.9627C19.9054 16.111 19.7868 16.236 19.643 16.3259L13.765 19.9999ZM9 7C9 8.10457 8.10457 9 7 9C5.89543 9 5 8.10457 5 7C5 5.89543 5.89543 5 7 5C8.10457 5 9 5.89543 9 7Z" stroke="var(--stroke-0, #262625)" stroke-width="2" stroke-linecap="round" stroke-linejoin="round"/>
</svg>
