<svg preserveAspectRatio="none" width="100%" height="100%" overflow="visible" style="display: block;" viewBox="0 0 622 132" fill="none" xmlns="http://www.w3.org/2000/svg">
<g id="Vector">
<path d="M33.4248 29.2146C28.2793 29.2146 23.373 30.5469 19.2088 33.0794L13.177 37.204C13.28 34.6674 13.3295 27.7834 13.379 20.5529C13.4285 13.5576 13.4821 6.32303 13.5851 2.76762C13.6264 1.36112 12.2246 0.824923 11.165 0.544449C10.3651 0.334094 9.14471 0.21448 7.72229 0.21448C6.29987 0.21448 4.76201 0.346468 3.76838 0.565072C1.33171 1.10127 0.131935 1.78183 0.193779 2.55314L0 87.5862C0 87.6398 0.00824591 87.6893 0.0288607 87.7388C0.556599 89.0834 4.83623 89.8011 7.71817 89.8011C9.38384 89.8011 12.3194 89.5784 13.2677 88.0894C13.313 88.0192 13.3336 87.9368 13.3336 87.8501L13.177 83.6265C15.9806 86.9963 22.198 90.3868 25.653 90.7498C27.1579 90.9065 28.6504 90.989 30.0893 90.989C40.8049 90.989 49.595 86.489 54.8394 78.3182C61.1517 68.4892 61.5928 54.7666 55.9938 42.5124C52.2461 34.3085 43.5961 29.2146 33.4207 29.2146H33.4248ZM41.0028 73.2408C37.9023 76.6683 33.4784 78.479 28.2051 78.479C27.0837 78.479 25.9086 78.3965 24.7212 78.2315C19.9262 77.5716 16.3929 74.441 14.7725 69.4131C12.3689 61.9723 14.5994 52.2217 19.8438 47.2186C23.2864 43.9354 27.2486 42.1989 31.3015 42.1989C38.8135 42.1989 44.6516 48.1755 45.505 56.7382C46.173 63.4366 44.5733 69.2976 41.0028 73.2408Z" fill="var(--fill-0, #262625)"/>
<path d="M362.317 35.2366C353.947 35.2366 346.336 38.9405 341.673 45.2099L342.791 8.16261C342.791 8.12549 342.791 8.08837 342.778 8.05125C342.263 5.97244 338.771 5.85695 336.685 5.79096C336.487 5.78271 336.301 5.77858 336.144 5.77033C335.456 5.73734 334.817 5.72084 334.194 5.72084C330.174 5.72084 328.092 6.33541 327.833 7.60166C327.828 7.62229 327.824 7.64291 327.824 7.66353C327.804 8.09662 326.402 37.5299 326.208 62.7354C325.553 63.7995 324.819 64.8472 324.006 65.767C319.385 70.997 311.848 76.8745 309.898 77.848L309.704 56.334C309.704 55.8926 309.663 54.4985 309.609 52.5641C309.444 46.6659 309.143 35.6862 309.259 31.3883C309.267 31.046 309.131 30.716 308.859 30.4355C307.618 29.161 303.919 29.062 302.815 29.062C299.875 29.062 294.853 29.6972 294.688 32.0812C294.556 33.9827 294.668 36.9318 294.799 40.347C295.171 50.1264 295.731 64.909 290.994 71.5332C288.265 75.3484 284.212 77.815 280.67 77.815C276.828 77.815 274.271 74.9978 273.48 69.8792L273.558 31.5079C273.558 31.479 273.558 31.4461 273.55 31.4172C273.084 29.3178 268.215 29.0909 266.141 29.0909C266.067 29.0909 258.707 29.1115 258.538 30.9923C258.398 31.8998 258.517 36.243 258.687 42.2525C258.975 52.5929 259.375 66.7527 258.534 69.739C257.73 72.6056 255.161 75.6867 252.432 77.0725C251.851 77.3695 251.191 77.5221 250.531 77.5221C249.711 77.5221 248.919 77.287 248.239 76.8457C246.107 75.4557 244.957 73.249 244.615 69.8957C243.642 60.4256 244.376 48.357 245.085 36.6884C245.427 31.046 245.753 25.717 245.864 20.9365C245.967 16.5809 246.054 6.43852 245.794 2.71812C245.617 0.193857 240.434 0 238.851 0C235.713 0 231.03 0.692935 230.98 2.61088L230.857 35.0922C229.117 33.6032 224.532 29.8251 222.264 29.3507C219.968 28.8682 217.696 28.6248 215.511 28.6248C196.517 28.6248 186.184 46.2947 186.11 62.921C186.11 63.4613 186.135 64.179 186.168 64.942C186.246 66.9384 186.345 69.4214 185.986 70.5598C184.972 73.7728 183.69 74.7916 183.191 75.1876C181.855 76.2476 180.033 76.9075 178.433 76.9075C177.25 76.9075 175.184 76.5157 174.685 73.8966C173.923 69.9081 174.228 65.1359 174.549 60.0874C175.168 50.4069 175.811 40.4006 169.321 33.6197C166.411 30.5758 161.937 28.9012 156.726 28.9012C151.176 28.9012 145.516 30.8026 141.582 33.9868C140.617 34.7664 140.053 35.5542 139.603 36.1852C139.352 36.5358 139.133 36.8452 138.882 37.105C138.758 36.6018 138.684 35.5047 138.638 34.7994C138.552 33.4589 138.482 32.6133 138.276 32.2091C137.55 30.8026 135.583 30.0561 132.586 30.0561C129.589 30.0561 126.253 30.8274 124.575 31.545C123.961 31.809 123.565 32.403 123.569 33.0629C123.581 35.2654 123.779 37.5917 123.969 39.8438C124.208 42.7021 124.46 45.6595 124.361 48.5302C124.031 58.4746 123.297 61.0154 115.632 67.7963C110.223 72.585 100.798 78.1779 92.045 78.1779C88.4415 78.1779 85.2586 77.2251 82.591 75.3526C81.3005 74.4451 76.4561 69.4626 76.5014 67.3549C76.5055 67.1363 76.5674 66.9796 76.6911 66.8641C78.7855 66.9837 80.7027 67.0415 82.5539 67.0415C99.4663 67.0415 109.295 61.8857 111.773 51.7185C113.274 45.5687 112.383 40.1737 109.201 36.1192C105.531 31.4419 99.054 28.7609 91.4348 28.7609C85.5307 28.7609 79.7462 30.3984 75.1408 33.3764C64.2068 40.446 58.6078 55.2698 61.5227 69.4255C62.9493 76.3383 66.5239 81.7086 72.1476 85.3877C77.1157 88.6379 83.4692 90.3579 90.5112 90.3579C102.814 90.3579 114.973 85.1774 121.866 77.0767V86.8396C121.866 88.1677 122.815 89.1329 124.468 89.4959C125.231 89.6609 128.801 89.6815 130.298 89.6815C131.543 89.6815 132.718 89.6691 133.221 89.6526C133.361 89.6485 133.505 89.6443 133.658 89.6402C134.652 89.6155 135.781 89.5907 136.754 89.1123C137.41 88.7906 137.855 88.1636 137.95 87.4336C138.214 85.3877 138.09 80.7682 137.991 77.0519C137.933 74.8452 137.88 72.9438 137.921 72.0488C137.954 71.3352 137.987 70.502 138.024 69.5864C138.201 65.0782 138.449 58.9036 139.034 55.8885C140.147 50.1677 146.724 43.2631 153.217 43.2631C156.961 43.2631 159.29 45.8698 159.777 50.6008C160.111 53.8592 159.909 57.8188 159.694 62.0094C159.228 71.1248 158.701 81.4529 163.912 86.9386C166.46 89.6196 170.072 90.923 174.949 90.923C176.067 90.923 177.258 90.8529 178.503 90.7126C184.572 90.0279 188.015 85.759 191.268 81.5106C193.453 84.2081 195.774 86.753 199.444 88.5266C203.208 90.3455 207.418 91.3066 211.615 91.3066C220.017 91.3066 227.447 87.4913 231.681 81.0487C233.553 87.1943 238.129 90.6961 244.355 90.6961C250.622 90.6961 257.536 87.0128 261.428 81.6673C264.615 87.7718 269.831 91.1251 276.184 91.1251C281.317 91.1251 286.855 88.972 291.777 85.066C293.031 84.072 294.037 83.177 294.882 82.3025C294.977 86.1178 294.651 87.017 291.274 89.3309C288.636 91.1375 285.898 92.3913 282.995 93.7112C279.305 95.3941 275.492 97.1346 271.929 100.113C263.787 106.926 260.257 116.108 262.941 123.503C264.871 128.824 269.748 132 275.982 132C279.681 132 283.733 130.928 288.021 128.816C294.75 125.5 300.052 119.729 303.779 111.666C307.593 103.421 308.842 94.7341 309.217 88.8153C314.705 86.0972 320.98 82.9707 326.282 78.8709C326.406 84.2081 326.637 88.8318 327.016 92.2222C327.243 94.2515 335.386 94.3093 336.314 94.3093C340.898 94.3093 341.129 93.6576 341.216 93.4143C341.682 92.1109 341.645 90.5683 341.546 89.566C347.058 93.8267 352.859 95.9839 358.804 95.9839C367.541 95.9839 376.018 91.0137 381.472 82.6861C388.061 72.6262 389.112 59.9884 384.276 48.8767C380.611 40.4542 372.191 35.2201 362.305 35.2201L362.317 35.2366ZM81.1933 44.8717C83.8073 41.6998 87.2706 39.885 90.6967 39.885C91.9007 39.885 93.0881 40.1119 94.2301 40.5614C98.349 42.1783 99.3055 45.4656 98.8231 48.0023C98.015 52.2712 93.9539 54.5026 90.3545 54.5026H76.2994C77.66 50.3698 79.2638 47.2144 81.1975 44.8717H81.1933ZM219.147 76.8086C217.304 77.5386 215.532 77.9098 213.874 77.9098C206.185 77.9098 202.153 70.0566 201.571 62.2734C200.631 49.7346 207.364 42.0834 214.497 41.0069C215.474 40.8584 216.43 40.7842 217.342 40.7842C224.33 40.7842 229.356 45.2718 230.791 52.7868C232.481 61.663 228.589 73.0758 219.152 76.8127L219.147 76.8086ZM292.965 100.273C292.433 101.507 291.938 102.765 291.456 103.986C288.994 110.23 286.669 116.124 280.097 118.513C279.726 118.649 279.334 118.719 278.943 118.719C278.031 118.719 277.174 118.36 276.535 117.704C275.619 116.768 275.178 115.757 275.195 114.615C275.22 112.581 276.675 110.185 279.648 107.285C280.398 106.551 287.518 101.494 291.72 99.4857C291.992 99.3537 292.243 99.2341 292.47 99.1227C292.903 98.9124 293.344 98.6938 293.62 98.5906C293.501 99.0361 293.138 99.8734 292.965 100.278V100.273ZM370.382 73.9007C367.553 80.3227 362.09 84.006 355.39 84.006C355.102 84.006 354.809 83.9978 354.516 83.9854C349.231 83.742 345.165 80.6527 343.075 75.2824C340.164 67.8128 341.875 57.9302 346.975 52.7868C350.307 49.4294 354.698 47.4207 358.726 47.4207C362.012 47.4207 364.952 48.7364 367.232 51.2277C372.451 56.932 373.75 66.2537 370.386 73.8966L370.382 73.9007Z" fill="var(--fill-0, #262625)"/>
<path d="M621.911 68.6047C621.803 67.854 621.469 67.2023 620.954 66.728C619.791 65.6556 617.619 64.8802 615.78 64.8802C614.621 64.8802 613.755 65.1854 613.277 65.7628C608.585 71.4301 605.963 74.4988 602.331 76.8374C596.278 80.7311 589.615 82.9666 584.058 82.9666C580.145 82.9666 576.735 81.9025 573.928 79.803C568.811 75.9754 566.267 68.3613 567.442 60.405C568.555 52.8858 572.612 47.165 578.298 45.1026C579.584 44.6366 580.788 44.3973 581.873 44.3973C583.468 44.3973 584.816 44.9212 585.765 45.9069C586.713 46.8927 587.22 48.3033 587.162 49.7717C587.121 50.7864 586.865 51.801 586.618 52.7827C586.099 54.8532 585.558 56.9939 587.562 58.355C588.576 59.0438 589.85 59.4109 591.252 59.4109C595.194 59.4109 599.766 56.4453 600.03 52.1929C600.665 41.9638 596.365 35.1623 588.234 33.5249C586.321 33.1413 584.388 32.9433 582.483 32.9433C574.958 32.9433 567.681 36.0161 561.988 41.5926C556.471 46.9958 552.876 54.251 551.857 62.0218C551.709 63.1602 551.684 64.7647 551.66 66.464C551.622 68.8233 551.589 71.2651 551.206 72.3952C550.179 75.4351 544.214 81.0899 540.379 81.0899C538.557 81.0899 537.431 79.7742 537.027 77.1839C536.429 73.3521 537.048 68.4975 537.699 63.3582C539.064 52.6259 540.606 40.4625 530.068 36.5812C528.179 35.8883 526.167 35.5335 524.077 35.5335C513.654 35.5335 503.508 44.1499 499.459 47.763C499.446 47.2268 499.471 46.6659 499.504 45.9069C499.521 45.5481 499.537 45.148 499.554 44.6902C499.76 44.5747 500.189 44.3726 500.638 44.154C502.967 43.0362 508.43 40.4212 513.164 36.4121C519.092 31.3883 522.044 25.8242 521.937 19.8765C521.682 6.13742 516.507 0.00824923 505.148 0.00824923C504.472 0.00824923 503.767 0.0288723 503.046 0.074243C494.264 0.602194 488.681 6.9211 485.985 19.3939C483.709 29.9158 483.907 43.094 484.068 53.686C484.146 58.9201 484.216 63.4407 484.002 66.9837C483.664 72.5767 475.105 79.9309 471.761 80.3186C471.39 80.3598 471.023 80.3846 470.664 80.3846C466.875 80.3846 464.133 78.0129 463.68 74.3462C462.995 68.7986 463.23 62.6488 463.461 56.7052C463.581 53.6035 463.692 50.6709 463.684 47.8208C463.684 47.8208 477.088 47.8208 477.092 47.8208C478.881 47.8208 479.017 42.7351 479.017 41.176C479.017 39.6169 478.877 34.6344 477.067 34.6344H464.1L464.414 15.921C464.335 13.7597 460.509 12.9884 456.959 12.9884C454.444 12.9884 450.165 13.4627 450.091 15.2487C449.897 19.8311 450.053 32.1802 450.091 34.6303C450.091 34.6303 440.509 34.4941 440.501 34.4941C438.377 34.4941 437.808 39.2251 437.808 42.0216C437.808 43.5023 437.965 46.9505 439.4 46.9505C440.488 46.9505 441.775 46.8886 443.016 46.8309C444.285 46.769 445.601 46.7071 446.739 46.7071C449.324 46.7071 449.876 47.0577 449.992 47.2268L448.128 65.4989C447.848 67.722 431.698 82.0221 417.721 82.0221C414.192 82.0221 411.096 81.0817 408.515 79.2297C405.971 77.4025 404.713 74.7421 403.378 71.925L403.27 71.6982C403.171 71.4878 403.011 71.1455 402.928 70.9269C402.928 70.9269 402.932 70.9269 402.936 70.9269C403.048 70.9269 403.175 70.931 403.328 70.9392C403.468 70.9434 403.625 70.9516 403.798 70.9557L404.948 70.9846C406.758 71.03 408.626 71.0795 410.535 71.0795C420.005 71.0795 430.362 69.8998 435.363 61.168C438.946 54.911 439.255 48.5879 436.229 43.3662C432.77 37.3937 425.547 33.6857 417.375 33.6857C415.565 33.6857 413.738 33.8755 411.949 34.2467C395.969 37.5629 388.386 52.9312 388.102 65.8082C387.954 72.5231 389.594 78.7554 392.852 83.8286C396.426 89.4051 401.823 93.241 408.457 94.928C411.133 95.6085 413.879 95.9509 416.625 95.9509C426.903 95.9509 437.544 91.2612 449.142 81.6137C449.728 86.4725 452.235 90.5353 456.11 92.8409C458.98 94.5526 462.381 95.4559 465.943 95.4559C474.185 95.4559 482.245 90.7745 485.441 84.2329C485.519 85.5899 485.461 88.1347 485.428 89.6732C485.4 91.0302 485.375 92.1067 485.408 92.5316C485.544 94.301 487.807 95.3611 491.464 95.3611C494.763 95.3611 499.418 94.334 499.442 92.0572C499.451 91.2694 499.442 89.566 499.442 87.5903C499.43 83.478 499.409 77.8438 499.504 75.6454C499.686 71.3847 501.269 65.4659 503.536 60.57C506.274 54.6594 509.733 50.642 513.275 49.2603C515.134 48.5343 516.75 48.1672 518.078 48.1672C519.521 48.1672 520.63 48.5879 521.471 49.45C523.76 51.8051 523.615 57.0846 523.483 61.7455C523.463 62.558 523.438 63.3582 523.43 64.1254C523.405 66.0763 523.236 68.1634 523.054 70.37C522.556 76.4332 522.04 82.7026 524.39 87.6687C527.037 93.2658 531.775 94.4372 535.283 94.4372C542.568 94.4372 551.35 89.3433 554.958 83.0532L555.35 82.9377C560.495 91.2117 569.788 95.7612 581.563 95.7612C588.119 95.7612 594.984 94.268 600.896 91.554C606.214 89.1123 623.176 77.1921 621.935 68.6212L621.911 68.6047ZM505.602 11.9531C505.788 11.9201 505.969 11.9078 506.142 11.9078C508.336 11.9078 509.424 14.3578 509.692 16.4531C510.261 20.9159 506.526 25.9603 504.897 27.9195C502.699 30.5634 500.58 32.2421 499.554 32.7041C499.545 32.2875 499.533 31.8544 499.521 31.4131C499.348 24.5621 499.088 14.2175 505.598 11.9531H505.602ZM418.241 44.385C418.867 44.385 419.523 44.4221 420.187 44.5005C422.496 44.7686 424.627 46.835 425.485 49.6438C426.153 51.8258 426.07 54.845 423.84 56.7629C422.768 57.6868 420.009 59.2707 416.505 59.3573H403.654C406.379 49.285 411.153 44.385 418.237 44.385H418.241Z" fill="var(--fill-0, #262625)"/>
</g>
</svg>
