<svg preserveAspectRatio="none" width="100%" height="100%" overflow="visible" style="display: block;" viewBox="0 0 20 15" fill="none" xmlns="http://www.w3.org/2000/svg">
<path id="Vector" d="M9.59997 11.8C9.49492 12.1808 9.31588 12.5372 9.07308 12.8488C8.83028 13.1605 8.52847 13.4213 8.1849 13.6163C7.84132 13.8113 7.4627 13.9367 7.07065 13.9854C6.6786 14.034 6.28081 14.005 5.89997 13.9C5.51914 13.7949 5.16273 13.6159 4.85109 13.3731C4.53945 13.1303 4.27868 12.8285 4.08368 12.4849C3.88867 12.1413 3.76325 11.7627 3.71457 11.3706C3.6659 10.9786 3.69492 10.5808 3.79997 10.2M1 6.00001L19 1.00001V13L1 9.00001V6.00001Z" stroke="var(--stroke-0, #262625)" stroke-width="2" stroke-linecap="round" stroke-linejoin="round"/>
</svg>
