<svg preserveAspectRatio="none" width="100%" height="100%" overflow="visible" style="display: block;" viewBox="0 0 20 22" fill="none" xmlns="http://www.w3.org/2000/svg">
<path id="Vector" d="M13.5011 21H17.0011C17.5315 21 18.0402 20.7893 18.4153 20.4142C18.7904 20.0391 19.0011 19.5304 19.0011 19V6L14.0011 1H5.0011C4.47067 1 3.96196 1.21071 3.58689 1.58579C3.21181 1.96086 3.0011 2.46957 3.0011 3V7M13.0011 1V5C13.0011 5.53043 13.2118 6.03914 13.5869 6.41421C13.962 6.78929 14.4707 7 15.0011 7H19.0011M6.0011 16V21M6.0011 16L10.7011 13.2M6.0011 16L1.30115 13.2M2.00106 12.1C1.69288 12.2779 1.43773 12.5348 1.26195 12.8442C1.08616 13.1536 0.996104 13.5042 1.00106 13.86V17.1C0.989476 17.4562 1.07329 17.8091 1.24383 18.122C1.41437 18.435 1.66544 18.6967 1.97106 18.88L5.00106 20.7C5.30774 20.8827 5.65773 20.98 6.01469 20.9817C6.37166 20.9835 6.72259 20.8897 7.03106 20.71L10.0011 18.9C10.3092 18.7222 10.5644 18.4653 10.7402 18.1559C10.9159 17.8465 11.006 17.4958 11.0011 17.14V13.9C11.0126 13.5438 10.9288 13.191 10.7583 12.878C10.5877 12.5651 10.3367 12.3034 10.0311 12.12L7.00106 10.3C6.69437 10.1174 6.34438 10.0201 5.98742 10.0183C5.63046 10.0166 5.27953 10.1104 4.97106 10.29L2.00106 12.1Z" stroke="var(--stroke-0, #262625)" stroke-width="2" stroke-linecap="round" stroke-linejoin="round"/>
</svg>
