<svg preserveAspectRatio="none" width="100%" height="100%" overflow="visible" style="display: block;" viewBox="0 0 22 20" fill="none" xmlns="http://www.w3.org/2000/svg">
<path id="Vector" d="M9.18665 5.5C9.5193 4.21165 10.2708 3.07042 11.3229 2.25581C12.375 1.4412 13.668 0.999441 14.9986 1C14.203 1.79565 13.756 2.87478 13.756 4C13.756 4.55715 13.8657 5.10885 14.079 5.62359C14.2922 6.13833 14.6047 6.60603 14.9986 7C15.3926 7.39397 15.8603 7.70648 16.3751 7.91969C16.8898 8.1329 17.4415 8.24264 17.9986 8.24264C19.1239 8.24264 20.203 7.79565 20.9986 7C20.9988 8.05336 20.7216 9.0882 20.195 10.0005C19.6684 10.9128 18.9109 11.6703 17.9986 12.197M9.99866 17V19M1.9986 17.0001C1.54914 16.4002 1.2403 15.707 1.09493 14.9716C0.949561 14.2363 0.971383 13.4777 1.15878 12.7519C1.34618 12.0261 1.69436 11.3518 2.17756 10.7788C2.66076 10.2057 3.26662 9.74866 3.95031 9.44139C4.634 9.13411 5.37803 8.98448 6.12736 9.00358C6.87668 9.02267 7.61213 9.20999 8.27929 9.55169C8.94644 9.89338 9.52824 10.3807 9.98163 10.9776C10.435 11.5745 10.7484 12.2657 10.8986 13.0001H11.9986C12.6071 12.9992 13.2014 13.1833 13.7028 13.5281C14.2041 13.8728 14.5888 14.3619 14.8058 14.9303C15.0228 15.4988 15.0617 16.1198 14.9176 16.7109C14.7734 17.302 14.4529 17.8353 13.9986 18.2401M5.99866 16V18" stroke="var(--stroke-0, #262625)" stroke-width="2" stroke-linecap="round" stroke-linejoin="round"/>
</svg>
