<svg preserveAspectRatio="none" width="100%" height="100%" overflow="visible" style="display: block;" viewBox="0 0 20 21" fill="none" xmlns="http://www.w3.org/2000/svg">
<path id="Vector" d="M11.22 1.41533C10.8579 1.13654 10.4113 0.990145 9.95444 1.00052C9.49758 1.01089 9.05805 1.1774 8.709 1.47233L1.709 7.47133C1.4868 7.65913 1.30824 7.89314 1.18579 8.15705C1.06333 8.42096 0.99993 8.7084 1 8.99933V17.9993C1 18.5298 1.21071 19.0385 1.58579 19.4135C1.96086 19.7886 2.46957 19.9993 3 19.9993H17C17.5304 19.9993 18.0391 19.7886 18.4142 19.4135C18.7893 19.0385 19 18.5298 19 17.9993V10.6453M13 19.9993V11.9993C13 11.7341 12.8946 11.4797 12.7071 11.2922C12.5196 11.1046 12.2652 10.9993 12 10.9993H8C7.73478 10.9993 7.48043 11.1046 7.29289 11.2922C7.10536 11.4797 7 11.7341 7 11.9993V19.9993M13 4.99927H19M16 1.99927V7.99927" stroke="var(--stroke-0, #262625)" stroke-width="2" stroke-linecap="round" stroke-linejoin="round"/>
</svg>
