<svg preserveAspectRatio="none" width="100%" height="100%" overflow="visible" style="display: block;" viewBox="0 0 21 21" fill="none" xmlns="http://www.w3.org/2000/svg">
<path id="Vector" d="M12.5333 11.0454L4.62132 18.9564C4.2235 19.3543 3.68393 19.5778 3.12132 19.5778C2.55871 19.5778 2.01914 19.3543 1.62132 18.9564C1.2235 18.5586 1 18.019 1 17.4564C1 16.8938 1.2235 16.3543 1.62132 15.9564L9.53332 8.04443M13.6885 2.89031C12.1787 1.9498 10.4856 1.34233 8.72235 1.10849C6.95905 0.87465 5.16616 1.01982 3.46346 1.53431C3.31188 1.63082 3.1891 1.76638 3.10803 1.92675C3.02697 2.08712 2.99061 2.26637 3.00279 2.44565C3.01496 2.62493 3.07522 2.79761 3.17723 2.94555C3.27924 3.09348 3.41922 3.2112 3.58246 3.28631C5.85987 4.06414 7.99422 5.21037 9.90046 6.67931M17.6884 6.89038C18.6288 8.40015 19.2363 10.0932 19.4701 11.8565C19.704 13.6198 19.5588 15.4127 19.0444 17.1154C18.9478 17.2667 18.8123 17.3893 18.652 17.4702C18.4918 17.551 18.3127 17.5873 18.1336 17.5751C17.9545 17.563 17.782 17.5028 17.6341 17.401C17.4863 17.2991 17.3686 17.1594 17.2934 16.9964C16.5157 14.7186 15.3694 12.5839 13.9004 10.6774M15.7024 2.27634C15.5154 2.09311 15.2641 1.99048 15.0024 1.99048C14.7406 1.99048 14.4893 2.09311 14.3024 2.27634L9.70236 6.87634C9.51913 7.06327 9.4165 7.31458 9.4165 7.57634C9.4165 7.83809 9.51913 8.08941 9.70236 8.27634L12.3024 10.8763C12.4893 11.0596 12.7406 11.1622 13.0024 11.1622C13.2641 11.1622 13.5154 11.0596 13.7024 10.8763L18.3024 6.27634C18.4856 6.08941 18.5882 5.83809 18.5882 5.57634C18.5882 5.31458 18.4856 5.06326 18.3024 4.87634L15.7024 2.27634Z" stroke="var(--stroke-0, #262625)" stroke-width="2" stroke-linecap="round" stroke-linejoin="round"/>
</svg>
