<svg preserveAspectRatio="none" width="100%" height="100%" overflow="visible" style="display: block;" viewBox="0 0 22 22" fill="none" xmlns="http://www.w3.org/2000/svg">
<path id="Vector" d="M12 12V17M16 10.47V7M16 10H17C17.4992 9.99995 17.9905 10.1245 18.4294 10.3622C18.8683 10.6 19.2409 10.9436 19.5135 11.3617C19.7861 11.7799 19.95 12.2595 19.9904 12.757C20.0309 13.2546 19.9465 13.7543 19.745 14.211M1 1L21 21M4 7V19C4 19.5304 4.21071 20.0391 4.58579 20.4142C4.96086 20.7893 5.46957 21 6 21H14C14.5304 21 15.0391 20.7893 15.4142 20.4142C15.7893 20.0391 16 19.5304 16 19V16M6.53598 6.53493C5.76598 6.64893 5.15398 6.99993 4.49998 6.99993C4.00546 7.00003 3.52202 6.85345 3.11081 6.57876C2.6996 6.30406 2.3791 5.91358 2.18984 5.45671C2.00058 4.99983 1.95107 4.49709 2.04758 4.01208C2.14408 3.52707 2.38225 3.08157 2.73198 2.73193M7.72705 2.204C8.30605 1.767 8.88505 1 10.0001 1C11.5601 1 12.0001 2.5 13.0001 2.5C14.0001 2.5 14.7201 2 15.5001 2C16.1631 2 16.799 2.26339 17.2678 2.73223C17.7367 3.20107 18 3.83696 18 4.5C18 5.16304 17.7367 5.79893 17.2678 6.26777C16.799 6.73661 16.1631 7 15.5001 7C14.7201 7 14.0001 6.5 13.0001 6.5C12.7152 6.50174 12.432 6.54211 12.1581 6.62M8 13.6001V17.0001" stroke="var(--stroke-0, #262625)" stroke-width="2" stroke-linecap="round" stroke-linejoin="round"/>
</svg>
