<svg preserveAspectRatio="none" width="100%" height="100%" overflow="visible" style="display: block;" viewBox="0 0 85 50" fill="none" xmlns="http://www.w3.org/2000/svg">
<g id="Vector">
<path d="M30.6938 19.0396C27.0394 23.7154 16.9217 24.3249 15.4918 17.3806C14.8126 14.0831 15.9715 10.2781 18.8761 8.39841C22.6385 5.96226 29.294 7.37693 27.9461 12.9119C27.0364 16.6504 22.3072 16.8344 19.1783 16.6504C18.5988 17.0227 20.2895 18.7381 20.6363 18.9825C23.2055 20.7882 27.0176 18.9044 29.0873 17.0695C31.0168 15.3594 31.2348 14.7134 31.32 12.1358C31.3636 10.8242 31.1289 9.47602 31.1206 8.23093C31.1206 8.10611 31.1964 7.99377 31.3117 7.94384C32.1415 7.58809 34.2308 7.28747 34.6296 8.06346C34.7459 8.28918 34.6753 9.56444 34.8933 9.3762C35.1115 9.18792 35.2225 8.86754 35.6203 8.54507C37.4666 7.04822 40.8302 6.73096 42.4668 8.44417C44.9239 11.0156 43.2312 15.6216 43.7899 18.5497C44.0111 19.7075 45.3818 19.5088 46.0994 18.9377C46.2188 18.8431 46.5698 18.5716 46.8377 17.7206C46.9706 17.3005 46.872 16.2509 46.8741 15.7631C46.8969 10.8949 50.3083 6.23375 55.8557 7.39878C56.5349 7.54128 58.1434 8.9726 58.1434 8.9726L58.1746 0.554249C58.1902 -0.0927566 61.6368 -0.284154 61.6981 0.588575C61.7625 1.51123 61.7417 4.07741 61.7157 5.17379C61.6295 8.85402 61.0367 13.9729 61.4022 17.5345C61.4852 18.3417 61.7542 18.9669 62.3617 19.3631C62.7075 19.5889 63.153 19.6118 63.5206 19.4256C64.2642 19.0491 64.9091 18.2335 65.1116 17.5116C65.4459 16.3185 65.0191 8.34328 65.1146 7.72852C65.1552 7.27707 68.527 7.09919 68.6911 7.8419L68.6714 17.5262C69.1346 20.5448 71.8803 19.9426 73.2707 17.9953C74.898 15.7172 74.0911 9.85574 74.2209 7.99273C74.2791 7.15641 77.7018 7.1252 77.6832 7.80861C77.6447 9.25033 77.7912 13.6545 77.7953 14.1029L77.8451 19.6658C78.0839 19.7117 80.3333 17.961 81.5784 16.5494C82.4403 15.5727 82.944 14.0665 83.081 14.0019C83.4871 13.8106 84.5743 13.9167 84.8485 14.339C85.3294 15.0806 84.5494 16.7293 84.1227 17.4356C82.7446 19.7168 79.9885 21.0837 77.679 22.2289C77.4505 26.0371 76.0309 30.4954 72.3942 32.2897C66.3806 35.2564 63.6764 29.2253 68.4533 25.2247C70.0235 23.9099 71.7743 23.5707 73.3175 22.5108C74.2853 21.8461 74.3029 21.584 74.2635 20.394C73.9924 20.7061 73.6715 20.989 73.3216 21.2678C70.7701 23.2941 67.338 23.5572 65.7564 20.29C63.9516 22.9779 59.2671 23.9817 58.2868 20.0819C56.6252 22.8676 52.9761 23.4834 50.1753 22.1291C49.2605 21.6869 48.6924 21.0649 48.0683 20.2848C47.2136 21.4041 46.3569 22.4993 44.8439 22.67C38.3535 23.4033 40.6142 16.2956 40.2404 12.6466C39.8634 8.96428 35.3596 11.1456 34.8103 13.9707C34.6306 14.8966 34.5756 17.0092 34.5278 18.0608C34.4997 18.6745 34.641 21.1221 34.5361 21.9314C34.5174 22.0792 34.426 22.2081 34.292 22.2747C34.0314 22.4037 33.7074 22.3912 33.4457 22.4006C33.1217 22.412 31.509 22.4172 31.266 22.3642C31.0666 22.3205 30.6917 22.1863 30.6917 21.7962V19.0428L30.6938 19.0396ZM18.9706 13.7398H22.6541C24.9293 13.7398 25.8764 10.8907 23.6676 10.0221C22.3986 9.52389 21.0964 10.1334 20.2666 11.1404C19.6623 11.8737 19.2572 12.8369 18.9706 13.7398ZM53.9065 10.1282C48.8118 10.8981 49.7329 21.4967 55.1319 19.358C59.5215 17.6188 59.3543 9.30546 53.9065 10.1282ZM70.2592 26.8714C69.3972 27.7129 68.6247 28.7791 69.4731 29.6466C69.7358 29.915 70.1273 30.0044 70.4803 29.8765C72.5127 29.138 72.9706 27.1106 73.7817 25.2206C74.1181 24.4373 74.007 24.561 73.3278 24.8856C72.2697 25.3922 70.4741 26.6622 70.2592 26.8724V26.8714Z" fill="var(--fill-0, #262625)"/>
<path d="M3.21403 0.585458C3.15692 2.54624 3.16211 8.91955 3.09877 9.47815L4.7925 8.31831C7.80819 6.4834 12.3774 7.30412 13.906 10.6556C16.525 16.3955 13.7898 23.4564 6.36888 22.6742C5.39792 22.5722 3.60761 21.5102 3.09877 20.6384L3.15069 22.05C2.72492 22.7178 0.163038 22.3954 0 21.9793L0.0488077 0.534488C0.0353077 0.370136 0.480808 0.219307 0.867115 0.135051C1.34792 0.0289502 2.2545 0.0154275 2.68131 0.128809C3.00219 0.214106 3.22131 0.343091 3.21403 0.586498V0.585458ZM4.82158 11.7239C2.58369 13.8605 2.56604 19.2352 6.10719 19.7231C9.64833 20.2109 11.8083 17.6957 11.4605 14.1903C11.1022 10.5859 7.48315 9.18169 4.82158 11.7239Z" fill="var(--fill-0, #262625)"/>
<path d="M59.8299 35.2158C63.613 36.6107 61.0377 42.2965 61.5163 45.3734C61.9121 47.923 64.9225 45.2705 65.288 44.1824C65.4604 43.6727 65.367 42.232 65.4573 41.5465C66.0306 37.1631 69.9175 33.5255 74.4971 34.4492C76.6561 34.884 77.5294 36.72 77.3851 39.049C77.302 40.3908 74.9115 41.2636 74.1077 40.5562C73.5106 40.0319 74.3185 39.2757 74.3517 38.4498C74.3881 37.548 73.6269 36.5722 71.9809 37.1693C68.6869 38.3666 68.1096 44.0451 70.8531 46.1016C72.9955 47.7066 76.5886 46.5394 78.5689 45.1196C79.1224 44.7232 80.6126 42.9102 81.2139 42.5721C81.6802 42.31 82.5992 42.4608 82.8568 43.0153C83.456 45.0177 79.2377 48.1591 77.6603 48.8841C73.9706 50.5786 68.5727 50.4797 66.2787 46.6831L66.0627 46.7465C64.7398 49.116 60.0376 51.1486 58.5277 47.953C57.7322 46.2701 58.2743 43.8911 58.2961 42.0614C58.321 39.9977 58.7229 36.9925 55.5971 38.2147C53.5306 39.023 52.1494 42.906 52.0622 44.9625C52.0269 45.7874 52.0549 48.4981 52.0477 49.1046C52.0383 49.9087 48.7942 50.1885 48.7194 49.218C48.6924 48.8643 48.8336 46.3918 48.6072 46.9202C47.5729 49.3386 43.8833 50.7627 41.2902 49.2159C40.2279 48.5824 39.6589 47.4777 39.5664 46.2669C36.7085 48.6823 33.1456 50.7169 29.2618 49.7297C21.9022 47.8594 22.923 36.1281 30.1372 34.6302C34.2952 33.7668 38.34 37.0434 35.9235 41.2667C34.3939 43.94 30.807 43.7496 28.0654 43.682C27.6936 43.6727 27.647 43.6196 27.8359 44.0181C28.1797 44.7451 28.5089 45.4681 29.1901 45.9569C32.8704 48.6053 39.2342 43.1973 39.3307 42.4234L39.8032 37.7862C39.6952 37.4148 38.0544 37.6291 37.0294 37.6291C36.5663 37.6291 36.6307 34.6707 37.315 34.6957L39.826 34.7311C39.826 34.7311 39.771 31.0331 39.826 29.7423C39.852 29.1296 43.1948 29.0443 43.227 29.9108L43.146 34.7301H46.5179C47.0444 34.7301 47.0247 37.8735 46.5179 37.8475H43.0422C43.0578 40.0039 42.7763 42.4972 43.0422 44.6536C43.173 45.7167 44.0422 46.3856 45.1928 46.2513C46.035 46.1535 48.276 44.2885 48.3674 42.7917C48.6477 38.1627 47.0132 26.3794 53.0674 26.0153C56.5359 25.8062 57.6554 27.613 57.7156 30.9073C57.7904 34.9485 52.083 36.9893 52.0799 37.1111C52.0632 37.6291 52.0383 37.859 52.0684 38.1596C53.4631 36.9041 56.8007 34.0987 59.8331 35.2158H59.8299ZM54.839 30.0305C54.7623 29.424 54.4102 28.6781 53.6802 28.8071C51.8078 29.45 52.0508 32.4874 52.082 34.2776C52.6251 34.2474 55.0707 31.8497 54.8402 30.0305H54.839ZM27.8931 40.9661H31.2649C32.2172 40.9421 32.9317 40.5001 33.1798 40.2868C34.3139 39.3101 33.5257 37.1662 32.2037 37.0122C29.5764 36.7065 28.457 38.7879 27.8931 40.9661Z" fill="var(--fill-0, #262625)"/>
<path d="M12.3026 37.6416C14.8137 33.8032 21.1742 33.9374 23.0549 38.2657C26.1745 45.4452 18.9032 53.67 12.2487 48.2423C12.2487 48.2423 12.3868 48.9163 12.2071 49.4208C12.1116 49.6892 8.88509 49.6226 8.83109 49.1442C8.25266 43.9972 9.03151 27.8325 9.03151 27.8325C9.12497 27.38 10.6401 27.4351 11.0191 27.4528C11.4387 27.4726 12.4709 27.4528 12.5945 27.949L12.3026 37.6406V37.6416ZM18.9291 38.7431C17.4244 37.0965 15.1107 37.6843 13.6766 39.1332C11.4034 41.429 11.8966 47.0065 15.6455 47.1781C20.0807 47.381 21.5211 41.5787 18.928 38.7431H18.9291Z" fill="var(--fill-0, #262625)"/>
</g>
</svg>
