<svg preserveAspectRatio="none" width="100%" height="100%" overflow="visible" style="display: block;" viewBox="0 0 17 18" fill="none" xmlns="http://www.w3.org/2000/svg">
<path id="Vector" d="M4 17H14M7 17C12.5 14.5 7.8 10.6 10 7M10 7C9.95408 5.58615 10.3376 4.19156 11.1 3C12 2 13.3 1.1 16 1C15.9 3.3 15.3 4.6 14.3 5.6C13.3 6.4 11.9 6.9 10 7ZM6.5 6.40009C7.6 7.20009 8.3 8.60009 8.8 10.1001C6.8 10.5001 5.3 10.5001 4 9.80009C2.8 9.20009 1.7 7.90009 1 5.60009C3.8 5.10009 5.4 5.60009 6.5 6.40009Z" stroke="var(--stroke-0, #262625)" stroke-width="2" stroke-linecap="round" stroke-linejoin="round"/>
</svg>
