<svg preserveAspectRatio="none" width="100%" height="100%" overflow="visible" style="display: block;" viewBox="0 0 19 22" fill="none" xmlns="http://www.w3.org/2000/svg">
<path id="Vector" d="M18 6H15C14.4696 6 13.9609 5.78929 13.5858 5.41421C13.2107 5.03914 13 4.53043 13 4V1M1 6.6001V19.4001C1 19.8244 1.16857 20.2314 1.46863 20.5315C1.76869 20.8315 2.17565 21.0001 2.6 21.0001H12.4M7 17C6.46957 17 5.96086 16.7893 5.58579 16.4142C5.21071 16.0391 5 15.5304 5 15V3C5 2.46957 5.21071 1.96086 5.58579 1.58579C5.96086 1.21071 6.46957 1 7 1H14L18 5V15C18 15.5304 17.7893 16.0391 17.4142 16.4142C17.0391 16.7893 16.5304 17 16 17H7Z" stroke="var(--stroke-0, #262625)" stroke-width="2" stroke-linecap="round" stroke-linejoin="round"/>
</svg>
