<svg preserveAspectRatio="none" width="100%" height="100%" overflow="visible" style="display: block;" viewBox="0 0 22 22" fill="none" xmlns="http://www.w3.org/2000/svg">
<path id="Vector" d="M12 20.9995H3C2.46957 20.9995 1.96086 20.7888 1.58579 20.4137C1.21071 20.0387 1 19.5299 1 18.9995C1 18.4691 1.21071 17.9604 1.58579 17.5853C1.96086 17.2102 2.46957 16.9995 3 16.9995H15M12.2359 16.9995C12.62 16.5701 12.8724 16.0393 12.9628 15.4703C13.0533 14.9014 12.978 14.3184 12.746 13.7911C12.5139 13.2638 12.135 12.8144 11.6544 12.4967C11.1738 12.179 10.6119 12.0064 10.0359 11.9995M15 7.99951H15.01M15.82 2.93946C16.13 2.61134 16.51 2.35738 16.9317 2.19652C17.3534 2.03565 17.806 1.97201 18.2558 2.01036C18.7055 2.0487 19.1408 2.18803 19.5292 2.41796C19.9176 2.6479 20.2491 2.96252 20.499 3.33837C20.749 3.71423 20.9109 4.14164 20.9727 4.58875C21.0345 5.03587 20.9946 5.49117 20.856 5.92072C20.7174 6.35028 20.4836 6.74303 20.1722 7.06971C19.8607 7.39638 19.4795 7.64856 19.057 7.80746L20.872 10.3945C20.9771 10.6327 21.0184 10.8942 20.9918 11.1532C20.9652 11.4122 20.8716 11.6599 20.7203 11.8718C20.5689 12.0836 20.365 12.2525 20.1286 12.3617C19.8922 12.4709 19.6315 12.5166 19.372 12.4945L16.5 12.0415C16.0664 11.9681 15.6219 11.991 15.198 12.1086C14.7742 12.2261 14.3813 12.4354 14.0474 12.7217C13.7134 13.0079 13.4465 13.3641 13.2655 13.765C13.0845 14.1659 12.9939 14.6017 13 15.0415M16 3.98758C15.998 3.49956 15.877 3.01939 15.6474 2.58874C15.4178 2.15808 15.0866 1.78993 14.6826 1.51623C14.2785 1.24252 13.8138 1.07152 13.3287 1.01806C12.8436 0.964593 12.3528 1.03028 11.8989 1.20942C11.4449 1.38856 11.0415 1.67574 10.7236 2.04606C10.4058 2.41639 10.1831 2.85866 10.0748 3.33453C9.96654 3.8104 9.97601 4.3055 10.1024 4.77688C10.2288 5.24826 10.4682 5.68169 10.8 6.03958C9.81799 5.9266 8.82315 6.0229 7.881 6.32214C6.93886 6.62138 6.07078 7.11678 5.3339 7.77571C4.59703 8.43465 4.00807 9.24218 3.60581 10.1452C3.20354 11.0481 2.99708 12.0261 3.00003 13.0146C3.004 14.0728 3.42718 15.0864 4.17689 15.8333C4.92661 16.5802 5.94176 16.9996 7.00003 16.9996" stroke="var(--stroke-0, #262625)" stroke-width="2" stroke-linecap="round" stroke-linejoin="round"/>
</svg>
