<svg preserveAspectRatio="none" width="100%" height="100%" overflow="visible" style="display: block;" viewBox="0 0 155 50" fill="none" xmlns="http://www.w3.org/2000/svg">
<g id="logo">
<g id="Vector">
<path d="M8.32933 21.3037C7.0471 21.3037 5.82447 21.6367 4.78677 22.2698L3.28365 23.301C3.30933 22.6668 3.32166 20.9458 3.33399 19.1382C3.34632 17.3894 3.35968 15.5808 3.38536 14.6919C3.39564 14.3403 3.04631 14.2062 2.78227 14.1361C2.58294 14.0835 2.27883 14.0536 1.92437 14.0536C1.5699 14.0536 1.18668 14.0866 0.939066 14.1413C0.331858 14.2753 0.0328776 14.4455 0.0482889 14.6383L0 35.8965C0 35.9099 0.00205485 35.9223 0.00719197 35.9347C0.138702 36.2708 1.20517 36.4503 1.92334 36.4503C2.33842 36.4503 3.06994 36.3946 3.30625 36.0223C3.31755 36.0048 3.32269 35.9842 3.32269 35.9625L3.28365 34.9066C3.9823 35.7491 5.53165 36.5967 6.39263 36.6874C6.76764 36.7266 7.13957 36.7472 7.49814 36.7472C10.1684 36.7472 12.3589 35.6223 13.6658 33.5795C15.2388 31.1223 15.3487 27.6917 13.9534 24.6281C13.0195 22.5771 10.864 21.3037 8.3283 21.3037H8.32933ZM10.2177 32.3102C9.44511 33.1671 8.34269 33.6198 7.02861 33.6198C6.74915 33.6198 6.45633 33.5991 6.16044 33.5579C4.96554 33.3929 4.08504 32.6103 3.68126 31.3533C3.08227 29.4931 3.63811 27.0554 4.94499 25.8046C5.80289 24.9838 6.79025 24.5497 7.80021 24.5497C9.67217 24.5497 11.127 26.0439 11.3397 28.1845C11.5061 29.8591 11.1075 31.3244 10.2177 32.3102Z" fill="var(--fill-0, #262625)"/>
<path d="M90.288 22.8091C88.2023 22.8091 86.3057 23.7351 85.1437 25.3025L85.4221 16.0407C85.4221 16.0314 85.4221 16.0221 85.419 16.0128C85.2906 15.4931 84.4204 15.4642 83.9005 15.4477C83.8512 15.4457 83.8049 15.4446 83.7659 15.4426C83.5943 15.4343 83.4351 15.4302 83.2799 15.4302C82.2782 15.4302 81.7593 15.5839 81.6946 15.9004C81.6936 15.9056 81.6926 15.9107 81.6926 15.9159C81.6874 16.0242 81.3381 23.3825 81.2898 29.6838C81.1265 29.9499 80.9436 30.2118 80.7412 30.4417C79.5894 31.7492 77.7113 33.2186 77.2253 33.462L77.177 28.0835C77.177 27.9732 77.1668 27.6246 77.1534 27.141C77.1123 25.6665 77.0373 22.9215 77.0661 21.8471C77.0681 21.7615 77.0342 21.679 76.9664 21.6089C76.6572 21.2903 75.7356 21.2655 75.4602 21.2655C74.7277 21.2655 73.4763 21.4243 73.4352 22.0203C73.4023 22.4957 73.43 23.2329 73.4629 24.0867C73.5554 26.5316 73.6951 30.2273 72.5146 31.8833C71.8344 32.8371 70.8245 33.4537 69.9419 33.4537C68.9844 33.4537 68.3473 32.7495 68.1501 31.4698L68.1696 21.877C68.1696 21.8698 68.1696 21.8615 68.1675 21.8543C68.0514 21.3294 66.8381 21.2727 66.3213 21.2727C66.3028 21.2727 64.4688 21.2779 64.4267 21.7481C64.3918 21.9749 64.4216 23.0607 64.4637 24.5631C64.5356 27.1482 64.6353 30.6882 64.4257 31.4347C64.2253 32.1514 63.5852 32.9217 62.9051 33.2681C62.7602 33.3424 62.5958 33.3805 62.4314 33.3805C62.227 33.3805 62.0297 33.3218 61.8602 33.2114C61.329 32.8639 61.0424 32.3123 60.9571 31.4739C60.7146 29.1064 60.8975 26.0892 61.0742 23.1721C61.1595 21.7615 61.2407 20.4292 61.2684 19.2341C61.2941 18.1452 61.3157 15.6096 61.2509 14.6795C61.2067 14.0485 59.9153 14 59.5207 14C58.7389 14 57.5717 14.1732 57.5594 14.6527L57.5286 22.7731C57.095 22.4008 55.9525 21.4563 55.3874 21.3377C54.8151 21.217 54.249 21.1562 53.7045 21.1562C48.9712 21.1562 46.3964 25.5737 46.3779 29.7302C46.3779 29.8653 46.3841 30.0447 46.3923 30.2355C46.4118 30.7346 46.4365 31.3553 46.3471 31.6399C46.0944 32.4432 45.7748 32.6979 45.6505 32.7969C45.3176 33.0619 44.8635 33.2269 44.4649 33.2269C44.17 33.2269 43.6553 33.1289 43.5309 32.4741C43.3409 31.477 43.4169 30.284 43.497 29.0218C43.6512 26.6017 43.8114 24.1001 42.1943 22.4049C41.4689 21.6439 40.3541 21.2253 39.0555 21.2253C37.6726 21.2253 36.2619 21.7007 35.2818 22.4967C35.0413 22.6916 34.9006 22.8885 34.7886 23.0463C34.7259 23.134 34.6715 23.2113 34.6088 23.2763C34.578 23.1505 34.5595 22.8762 34.5482 22.6998C34.5266 22.3647 34.5091 22.1533 34.4578 22.0523C34.2769 21.7007 33.7868 21.514 33.0399 21.514C32.293 21.514 31.4618 21.7068 31.0436 21.8863C30.8905 21.9523 30.7919 22.1007 30.7929 22.2657C30.796 22.8164 30.8453 23.3979 30.8926 23.9609C30.9522 24.6755 31.0149 25.4149 30.9902 26.1325C30.908 28.6187 30.7251 29.2539 28.8151 30.9491C27.4672 32.1462 25.1185 33.5445 22.9372 33.5445C22.0393 33.5445 21.2461 33.3063 20.5814 32.8381C20.2598 32.6113 19.0526 31.3657 19.0639 30.8387C19.0649 30.7841 19.0803 30.7449 19.1111 30.716C19.6331 30.7459 20.1108 30.7604 20.5721 30.7604C24.7866 30.7604 27.236 29.4714 27.8535 26.9296C28.2275 25.3922 28.0055 24.0434 27.2124 23.0298C26.298 21.8605 24.6839 21.1902 22.7852 21.1902C21.3139 21.1902 19.8724 21.5996 18.7248 22.3441C16.0001 24.1115 14.6048 27.8175 15.3312 31.3564C15.6867 33.0846 16.5775 34.4271 17.9789 35.3469C19.2169 36.1595 20.8002 36.5895 22.555 36.5895C25.6209 36.5895 28.6508 35.2943 30.3686 33.2692V35.7099C30.3686 36.0419 30.6049 36.2832 31.0169 36.374C31.207 36.4152 32.0967 36.4204 32.4697 36.4204C32.78 36.4204 33.0728 36.4173 33.1981 36.4131C33.2331 36.4121 33.269 36.4111 33.307 36.4101C33.5547 36.4039 33.8362 36.3977 34.0786 36.2781C34.242 36.1976 34.353 36.0409 34.3766 35.8584C34.4423 35.3469 34.4115 34.192 34.3869 33.263C34.3725 32.7113 34.3591 32.2359 34.3694 32.0122C34.3776 31.8338 34.3858 31.6255 34.3951 31.3966C34.4393 30.2695 34.5009 28.7259 34.6468 27.9721C34.9242 26.5419 36.5629 24.8158 38.1811 24.8158C39.114 24.8158 39.6945 25.4675 39.8158 26.6502C39.899 27.4648 39.8487 28.4547 39.7952 29.5024C39.6791 31.7812 39.5476 34.3632 40.8463 35.7346C41.4812 36.4049 42.3812 36.7307 43.5967 36.7307C43.8751 36.7307 44.1721 36.7132 44.4823 36.6782C45.9947 36.507 46.8526 35.4397 47.6632 34.3777C48.2078 35.052 48.7862 35.6882 49.7006 36.1316C50.6387 36.5864 51.6877 36.8266 52.7336 36.8266C54.8275 36.8266 56.6789 35.8728 57.7341 34.2622C58.2005 35.7986 59.3409 36.674 60.8924 36.674C62.454 36.674 64.177 35.7532 65.1469 34.4168C65.9411 35.9429 67.2408 36.7813 68.8241 36.7813C70.1032 36.7813 71.4831 36.243 72.7098 35.2665C73.0221 35.018 73.2728 34.7942 73.4834 34.5756C73.5071 35.5295 73.4259 35.7542 72.5844 36.3327C71.9269 36.7844 71.2447 37.0978 70.5214 37.4278C69.6018 37.8485 68.6515 38.2837 67.7638 39.0282C65.7346 40.7316 64.8551 43.027 65.524 44.8758C66.0048 46.206 67.2203 47 68.7737 47C69.6953 47 70.7053 46.7319 71.7738 46.2039C73.4506 45.3749 74.7718 43.9323 75.7006 41.9164C76.651 39.8551 76.9623 37.6835 77.0558 36.2038C78.4233 35.5243 79.987 34.7427 81.3083 33.7177C81.3391 35.052 81.3967 36.208 81.4912 37.0556C81.5477 37.5629 83.5769 37.5773 83.808 37.5773C84.9505 37.5773 85.0081 37.4144 85.0296 37.3536C85.1457 37.0277 85.1365 36.6421 85.1118 36.3915C86.4855 37.4567 87.9311 37.996 89.4126 37.996C91.5897 37.996 93.7021 36.7534 95.0614 34.6715C96.7032 32.1565 96.9652 28.9971 95.7601 26.2192C94.8467 24.1136 92.7487 22.805 90.2849 22.805L90.288 22.8091ZM20.2331 25.2179C20.8845 24.425 21.7475 23.9713 22.6013 23.9713C22.9013 23.9713 23.1972 24.028 23.4818 24.1404C24.5082 24.5446 24.7465 25.3664 24.6263 26.0006C24.425 27.0678 23.4129 27.6257 22.516 27.6257H19.0135C19.3526 26.5924 19.7522 25.8036 20.2341 25.2179H20.2331ZM54.6107 33.2021C54.1514 33.3847 53.7096 33.4775 53.2966 33.4775C51.3805 33.4775 50.3756 31.5141 50.2308 29.5684C49.9965 26.4336 51.6743 24.5209 53.4517 24.2517C53.6952 24.2146 53.9336 24.196 54.1607 24.196C55.9022 24.196 57.1546 25.3179 57.5121 27.1967C57.9334 29.4157 56.9635 32.2689 54.6117 33.2032L54.6107 33.2021ZM73.0057 39.0684C72.8732 39.3767 72.7499 39.6912 72.6297 39.9964C72.0163 41.5576 71.4368 43.0311 69.7991 43.6281C69.7066 43.6622 69.609 43.6797 69.5114 43.6797C69.2844 43.6797 69.0707 43.59 68.9114 43.426C68.6833 43.192 68.5734 42.9393 68.5775 42.6537C68.5837 42.1453 68.9463 41.5462 69.6871 40.8213C69.8741 40.6378 71.6485 39.3736 72.6954 38.8714C72.7632 38.8384 72.8259 38.8085 72.8824 38.7807C72.9903 38.7281 73.1002 38.6734 73.169 38.6477C73.1393 38.759 73.0488 38.9683 73.0057 39.0694V39.0684ZM92.2976 32.4752C91.5928 34.0807 90.2315 35.0015 88.5619 35.0015C88.49 35.0015 88.4171 34.9994 88.3441 34.9963C87.027 34.9355 86.0139 34.1632 85.493 32.8206C84.7676 30.9532 85.194 28.4825 86.4649 27.1967C87.2951 26.3573 88.3893 25.8552 89.3931 25.8552C90.212 25.8552 90.9445 26.1841 91.5127 26.8069C92.8134 28.233 93.137 30.5634 92.2987 32.4741L92.2976 32.4752Z" fill="var(--fill-0, #262625)"/>
<path d="M154.978 31.1512C154.951 30.9635 154.868 30.8006 154.739 30.682C154.45 30.4139 153.908 30.22 153.45 30.22C153.161 30.22 152.945 30.2963 152.826 30.4407C151.657 31.8575 151.004 32.6247 150.098 33.2094C148.59 34.1828 146.93 34.7417 145.545 34.7417C144.57 34.7417 143.72 34.4756 143.021 33.9508C141.746 32.9938 141.112 31.0903 141.404 29.1012C141.682 27.2214 142.693 25.7912 144.11 25.2757C144.43 25.1591 144.73 25.0993 145 25.0993C145.398 25.0993 145.734 25.2303 145.97 25.4767C146.207 25.7232 146.333 26.0758 146.319 26.4429C146.308 26.6966 146.245 26.9503 146.183 27.1957C146.054 27.7133 145.919 28.2485 146.418 28.5888C146.671 28.761 146.988 28.8527 147.338 28.8527C148.32 28.8527 149.459 28.1113 149.525 27.0482C149.683 24.491 148.612 22.7906 146.586 22.3812C146.109 22.2853 145.627 22.2358 145.152 22.2358C143.277 22.2358 141.464 23.004 140.045 24.3982C138.67 25.749 137.775 27.5628 137.521 29.5055C137.484 29.7901 137.478 30.1912 137.471 30.616C137.462 31.2058 137.454 31.8163 137.358 32.0988C137.103 32.8588 135.616 34.2725 134.66 34.2725C134.206 34.2725 133.926 33.9435 133.825 33.296C133.676 32.338 133.83 31.1244 133.993 29.8395C134.333 27.1565 134.717 24.1156 132.091 23.1453C131.62 22.9721 131.119 22.8834 130.598 22.8834C128.001 22.8834 125.472 25.0375 124.463 25.9408C124.46 25.8067 124.466 25.6665 124.475 25.4767C124.479 25.387 124.483 25.287 124.487 25.1725C124.538 25.1437 124.645 25.0931 124.757 25.0385C125.338 24.7591 126.699 24.1053 127.878 23.103C129.356 21.8471 130.091 20.4561 130.065 18.9691C130.001 15.5344 128.712 14.0021 125.881 14.0021C125.713 14.0021 125.537 14.0072 125.357 14.0186C123.169 14.1505 121.778 15.7303 121.106 18.8485C120.538 21.479 120.588 24.7735 120.628 27.4215C120.647 28.73 120.665 29.8602 120.611 30.7459C120.527 32.1442 118.394 33.9827 117.561 34.0797C117.469 34.09 117.377 34.0961 117.288 34.0961C116.343 34.0961 115.66 33.5032 115.547 32.5865C115.377 31.1996 115.435 29.6622 115.493 28.1763C115.523 27.4009 115.55 26.6677 115.548 25.9552C115.548 25.9552 118.888 25.9552 118.889 25.9552C119.335 25.9552 119.369 24.6838 119.369 24.294C119.369 23.9042 119.334 22.6586 118.883 22.6586H115.652L115.73 17.9803C115.711 17.4399 114.757 17.2471 113.873 17.2471C113.246 17.2471 112.179 17.3657 112.161 17.8122C112.113 18.9578 112.152 22.0451 112.161 22.6576C112.161 22.6576 109.773 22.6235 109.771 22.6235C109.242 22.6235 109.1 23.8063 109.1 24.5054C109.1 24.8756 109.139 25.7376 109.497 25.7376C109.768 25.7376 110.089 25.7222 110.398 25.7077C110.714 25.6922 111.042 25.6768 111.326 25.6768C111.97 25.6768 112.107 25.7644 112.136 25.8067L111.672 30.3747C111.602 30.9305 107.577 34.5055 104.095 34.5055C103.215 34.5055 102.443 34.2704 101.8 33.8074C101.166 33.3506 100.853 32.6855 100.52 31.9813L100.493 31.9245C100.469 31.872 100.429 31.7864 100.408 31.7317C100.408 31.7317 100.409 31.7317 100.41 31.7317C100.438 31.7317 100.47 31.7327 100.508 31.7348C100.543 31.7358 100.582 31.7379 100.625 31.7389L100.912 31.7462C101.363 31.7575 101.828 31.7699 102.304 31.7699C104.664 31.7699 107.245 31.475 108.491 29.292C109.384 27.7277 109.461 26.147 108.707 24.8415C107.845 23.3484 106.045 22.4214 104.008 22.4214C103.557 22.4214 103.102 22.4689 102.656 22.5617C98.6738 23.3907 96.7844 27.2328 96.7135 30.4521C96.6765 32.1308 97.0854 33.6888 97.8971 34.9572C98.7879 36.3513 100.133 37.3103 101.786 37.732C102.453 37.9021 103.137 37.9877 103.821 37.9877C106.383 37.9877 109.034 36.8153 111.925 34.4034C112.07 35.6181 112.695 36.6338 113.661 37.2102C114.376 37.6382 115.224 37.864 116.111 37.864C118.165 37.864 120.174 36.6936 120.97 35.0582C120.989 35.3975 120.975 36.0337 120.967 36.4183C120.96 36.7576 120.954 37.0267 120.962 37.1329C120.996 37.5753 121.56 37.8403 122.471 37.8403C123.293 37.8403 124.453 37.5835 124.459 37.0143C124.461 36.8174 124.459 36.3915 124.459 35.8976C124.456 34.8695 124.451 33.461 124.475 32.9114C124.52 31.8462 124.914 30.3665 125.479 29.1425C126.162 27.6648 127.024 26.6605 127.906 26.3151C128.369 26.1336 128.772 26.0418 129.103 26.0418C129.463 26.0418 129.739 26.147 129.949 26.3625C130.519 26.9513 130.483 28.2712 130.45 29.4364C130.445 29.6395 130.439 29.8395 130.437 30.0313C130.43 30.5191 130.388 31.0408 130.343 31.5925C130.219 33.1083 130.09 34.6757 130.676 35.9172C131.336 37.3164 132.516 37.6093 133.391 37.6093C135.206 37.6093 137.394 36.3358 138.293 34.7633L138.391 34.7344C139.673 36.8029 141.989 37.9403 144.923 37.9403C146.557 37.9403 148.268 37.567 149.741 36.8885C151.066 36.2781 155.293 33.298 154.984 31.1553L154.978 31.1512ZM125.994 16.9883C126.04 16.98 126.086 16.9769 126.129 16.9769C126.675 16.9769 126.946 17.5894 127.013 18.1133C127.155 19.229 126.224 20.4901 125.818 20.9799C125.271 21.6408 124.743 22.0605 124.487 22.176C124.485 22.0719 124.482 21.9636 124.479 21.8533C124.435 20.1405 124.371 17.5544 125.993 16.9883H125.994ZM104.224 25.0962C104.38 25.0962 104.544 25.1055 104.709 25.1251C105.284 25.1921 105.815 25.7087 106.029 26.411C106.196 26.9564 106.175 27.7112 105.619 28.1907C105.352 28.4217 104.665 28.8177 103.791 28.8393H100.589C101.268 26.3213 102.458 25.0962 104.223 25.0962H104.224Z" fill="var(--fill-0, #262625)"/>
</g>
</g>
</svg>
