<svg preserveAspectRatio="none" width="100%" height="100%" overflow="visible" style="display: block;" viewBox="0 0 20 22" fill="none" xmlns="http://www.w3.org/2000/svg">
<path id="Vector" d="M1 1V7M1 7H7M1 7L4 4.30011C5.29445 3.14232 6.89623 2.38377 8.61214 2.11596C10.3281 1.84815 12.0848 2.08252 13.6705 2.79079C15.2562 3.49907 16.6031 4.651 17.5487 6.10764C18.4944 7.56429 18.9984 9.26342 19 11.0001M19 21V15M19 15H13M19 15L16 17.7C14.7056 18.8578 13.1038 19.6163 11.3879 19.8841C9.67195 20.152 7.9152 19.9176 6.32951 19.2093C4.74382 18.501 3.39691 17.3491 2.45125 15.8925C1.5056 14.4358 1.00158 12.7367 1 11M11 11C11 11.5523 10.5523 12 10 12C9.44772 12 9 11.5523 9 11C9 10.4477 9.44772 10 10 10C10.5523 10 11 10.4477 11 11Z" stroke="var(--stroke-0, #262625)" stroke-width="2" stroke-linecap="round" stroke-linejoin="round"/>
</svg>
