<svg preserveAspectRatio="none" width="100%" height="100%" overflow="visible" style="display: block;" viewBox="0 0 20 22" fill="none" xmlns="http://www.w3.org/2000/svg">
<path id="Vector" d="M12.7002 1V5C12.7002 5.53043 12.9109 6.03914 13.286 6.41421C13.6611 6.78929 14.1698 7 14.7002 7H18.7002M1.90025 11.9L1.00025 11.5M1.90025 14.1001L1.00025 14.5001M3.3772 20.5C3.74 20.82 4.20647 20.9976 4.6902 21H16.7002C17.2306 21 17.7393 20.7893 18.1144 20.4142C18.4895 20.0391 18.7002 19.5304 18.7002 19V6L13.7002 1H4.7002C4.16977 1 3.66106 1.21071 3.28599 1.58579C2.91091 1.96086 2.7002 2.46957 2.7002 3V5.5M3.6002 10.2L3.2002 9.30005M3.6002 15.8L3.2002 16.7001M6.20018 9.30005L5.80018 10.2M6.20018 16.7001L5.80018 15.8M8.40025 11.5L7.50025 11.9M8.40025 14.5001L7.50025 14.1001M7.7002 13C7.7002 14.6569 6.35705 16 4.7002 16C3.04335 16 1.7002 14.6569 1.7002 13C1.7002 11.3431 3.04335 10 4.7002 10C6.35705 10 7.7002 11.3431 7.7002 13Z" stroke="var(--stroke-0, #262625)" stroke-width="2" stroke-linecap="round" stroke-linejoin="round"/>
</svg>
