<svg preserveAspectRatio="none" width="100%" height="100%" overflow="visible" style="display: block;" viewBox="0 0 23 23" fill="none" xmlns="http://www.w3.org/2000/svg">
<path id="Vector" d="M12.142 20.4064C13.112 19.4364 13.9395 18.3428 14.5771 17.1881C15.2148 16.0335 15.6501 14.8403 15.8584 13.6767C16.0666 12.5132 16.0436 11.402 15.7907 10.4067C15.5378 9.41139 15.06 8.55143 14.3845 7.87591C13.7089 7.20039 12.849 6.72254 11.8537 6.46965C10.8584 6.21675 9.74722 6.19377 8.58366 6.402C7.4201 6.61023 6.22692 7.0456 5.07224 7.68326C3.91757 8.32091 2.82401 9.14836 1.85401 10.1184M12.142 20.4064C12.9607 19.5877 13.204 18.2608 12.8182 16.7172C12.4324 15.1736 11.4492 13.54 10.085 12.1757C8.7207 10.8114 7.08708 9.82827 5.5435 9.44248C3.99992 9.05668 2.67268 9.29969 1.85401 10.1184M12.142 20.4064C11.3233 21.225 9.99637 21.4684 8.45279 21.0826C6.90921 20.6968 5.27559 19.7136 3.91132 18.3494C2.54705 16.9851 1.56387 15.3515 1.17807 13.8079C0.792278 12.2643 1.03533 10.937 1.85401 10.1184M15.563 9.69751L17.598 7.66251C17.9157 7.83854 18.2679 7.94326 18.6301 7.9694C18.9924 7.99554 19.356 7.94246 19.6956 7.81387C20.0353 7.68527 20.3429 7.48424 20.597 7.22474C20.8511 6.96525 21.0457 6.65353 21.1671 6.31124C21.2886 5.96896 21.334 5.60433 21.3003 5.2427C21.2666 4.88107 21.1545 4.53113 20.9719 4.2172C20.7892 3.90327 20.5404 3.63288 20.2427 3.42484C19.945 3.2168 19.6056 3.0761 19.248 3.01251C19.178 2.66037 19.0329 2.32744 18.8227 2.03636C18.6125 1.74529 18.3421 1.50291 18.0298 1.32571C17.7176 1.14851 17.3708 1.04064 17.0131 1.00945C16.6555 0.978262 16.2953 1.02448 15.957 1.14496C15.6188 1.26544 15.3105 1.45736 15.0531 1.70765C14.7957 1.95795 14.5952 2.26076 14.4653 2.59547C14.3354 2.93018 14.2791 3.28894 14.3003 3.64735C14.3215 4.00576 14.4196 4.35541 14.588 4.67251L12.564 6.69751M7.49805 15.7625L6.49805 14.7625" stroke="var(--stroke-0, #262625)" stroke-width="2" stroke-linecap="round" stroke-linejoin="round"/>
</svg>
