<svg preserveAspectRatio="none" width="100%" height="100%" overflow="visible" style="display: block;" viewBox="0 0 22 22" fill="none" xmlns="http://www.w3.org/2000/svg">
<path id="Vector" d="M9.10352 1.18347C10.3584 0.938844 11.6487 0.938844 12.9035 1.18347M16.6035 2.71338C17.6658 3.43163 18.5792 4.34845 19.2935 5.41338M20.8235 9.10352C21.0681 10.3584 21.0681 11.6487 20.8235 12.9035M19.2935 16.6035C18.5753 17.6658 17.6584 18.5792 16.5935 19.2935M12.9035 20.8235C11.6486 21.0679 10.3584 21.0679 9.10352 20.8235M5.40338 19.2935C4.34111 18.5753 3.42769 17.6584 2.71338 16.5935M1.18347 12.9035C0.938844 11.6487 0.938844 10.3584 1.18347 9.10352M2.71338 5.40338C3.43163 4.34111 4.34845 3.42769 5.41338 2.71338M12.0034 11.0034C12.0034 11.5557 11.5557 12.0034 11.0034 12.0034C10.4511 12.0034 10.0034 11.5557 10.0034 11.0034C10.0034 10.4511 10.4511 10.0034 11.0034 10.0034C11.5557 10.0034 12.0034 10.4511 12.0034 11.0034Z" stroke="var(--stroke-0, #262625)" stroke-width="2" stroke-linecap="round" stroke-linejoin="round"/>
</svg>
