<svg preserveAspectRatio="none" width="100%" height="100%" overflow="visible" style="display: block;" viewBox="0 0 80 100" fill="none" xmlns="http://www.w3.org/2000/svg">
<g id="Vector">
<path d="M21.756 17.912C18.408 17.912 15.212 18.736 12.504 20.3L8.58 22.848C8.648 21.28 8.68 17.028 8.712 12.564C8.744 8.244 8.78 3.776 8.844 1.58C8.872 0.712 7.956 0.38 7.268 0.204C6.748 0.072 5.952 0 5.028 0C4.104 0 3.1 0.08 2.456 0.216C0.868 0.544 0.088 0.964 0.128 1.44L0 53.968C0 54 0.008 54.032 0.02 54.06C0.364 54.892 3.148 55.336 5.024 55.336C6.108 55.336 8.016 55.2 8.636 54.28C8.664 54.236 8.68 54.184 8.676 54.132L8.576 51.524C10.4 53.604 14.448 55.7 16.696 55.924C17.676 56.024 18.648 56.072 19.584 56.072C26.556 56.072 32.28 53.292 35.692 48.244C39.8 42.172 40.088 33.696 36.444 26.124C34.004 21.056 28.376 17.908 21.752 17.908L21.756 17.912ZM26.688 45.108C24.668 47.224 21.788 48.344 18.36 48.344C17.628 48.344 16.864 48.292 16.092 48.192C12.972 47.784 10.672 45.848 9.616 42.744C8.052 38.148 9.504 32.124 12.916 29.032C15.156 27.004 17.736 25.932 20.376 25.932C25.264 25.932 29.068 29.624 29.62 34.912C30.052 39.052 29.012 42.672 26.692 45.104L26.688 45.108Z" fill="var(--fill-0, #262625)"/>
<path d="M63.744 62.464C58.296 62.464 53.344 64.752 50.308 68.624L51.036 45.74C51.036 45.716 51.036 45.692 51.028 45.672C50.692 44.388 48.42 44.316 47.064 44.276C46.936 44.272 46.816 44.268 46.712 44.264C46.264 44.244 45.848 44.236 45.44 44.236C42.824 44.236 41.468 44.616 41.3 45.396C41.3 45.408 41.296 45.424 41.296 45.436C41.276 45.832 39.3 85.192 40.78 97.676C40.928 98.928 46.228 98.964 46.832 98.964C49.816 98.964 49.968 98.564 50.024 98.412C50.328 97.608 50.304 96.652 50.24 96.036C53.828 98.668 57.604 100 61.472 100C67.16 100 72.676 96.928 76.224 91.784C80.512 85.572 81.196 77.764 78.048 70.9C75.664 65.696 70.184 62.464 63.748 62.464H63.744ZM68.992 86.344C67.152 90.312 63.596 92.588 59.236 92.588C59.048 92.588 58.86 92.588 58.668 92.576C55.228 92.428 52.584 90.516 51.22 87.2C49.324 82.584 50.44 76.48 53.756 73.304C55.924 71.228 58.784 69.988 61.404 69.988C63.544 69.988 65.456 70.8 66.94 72.34C70.34 75.864 71.184 81.62 68.992 86.344Z" fill="var(--fill-0, #262625)"/>
</g>
</svg>
