<svg preserveAspectRatio="none" width="100%" height="100%" overflow="visible" style="display: block;" viewBox="0 0 22 20" fill="none" xmlns="http://www.w3.org/2000/svg">
<path id="Vector" d="M9.18701 5.5C9.51966 4.21165 10.2711 3.07042 11.3233 2.25581C12.3754 1.4412 13.6684 0.999441 14.999 1C14.2034 1.79565 13.7564 2.87478 13.7564 4C13.7564 4.55715 13.8661 5.10885 14.0793 5.62359C14.2925 6.13833 14.605 6.60603 14.999 7C15.393 7.39397 15.8607 7.70648 16.3754 7.91969C16.8902 8.1329 17.4419 8.24264 17.999 8.24264C19.1242 8.24264 20.2034 7.79565 20.999 7C20.9992 8.05336 20.722 9.0882 20.1954 10.0005C19.6688 10.9128 18.9113 11.6703 17.999 12.197M11.999 13C12.7946 13 13.5577 13.3161 14.1203 13.8787C14.6829 14.4413 14.999 15.2044 14.999 16C14.999 16.7956 14.6829 17.5587 14.1203 18.1213C13.5577 18.6839 12.7946 19 11.999 19H5.99898C5.05295 18.9998 4.12639 18.7312 3.32691 18.2255C2.52742 17.7197 1.88783 16.9975 1.48241 16.1427C1.07699 15.288 0.922382 14.3358 1.03654 13.3966C1.1507 12.4575 1.52895 11.5701 2.12734 10.8373C2.72574 10.1046 3.51973 9.55667 4.4171 9.25717C5.31448 8.95768 6.2784 8.91891 7.19692 9.14538C8.11545 9.37184 8.95088 9.85424 9.60618 10.5366C10.2615 11.2189 10.7098 12.0731 10.899 13H11.999Z" stroke="var(--stroke-0, #262625)" stroke-width="2" stroke-linecap="round" stroke-linejoin="round"/>
</svg>
