<svg preserveAspectRatio="none" width="100%" height="100%" overflow="visible" style="display: block;" viewBox="0 0 19 23" fill="none" xmlns="http://www.w3.org/2000/svg">
<path id="Vector" d="M7.1871 6.60107L1.1931 14.7911C1.05206 14.9837 0.984616 15.2205 1.00296 15.4586C1.0213 15.6966 1.12422 15.9203 1.2931 16.0891L2.1101 16.9071C2.28145 17.0782 2.5091 17.1814 2.75076 17.1974C2.99242 17.2134 3.23168 17.1412 3.4241 16.9941L11.2771 11.0001M12.6871 20.174C11.6871 19.5 10.5591 19 9.18705 19C7.12905 19 5.25905 21.356 3.18705 21C1.11505 20.644 0.412051 17.631 1.68705 16.5M17.187 6C17.187 8.76142 14.9484 11 12.187 11C9.42559 11 7.18701 8.76142 7.18701 6C7.18701 3.23858 9.42559 1 12.187 1C14.9484 1 17.187 3.23858 17.187 6Z" stroke="var(--stroke-0, #262625)" stroke-width="2" stroke-linecap="round" stroke-linejoin="round"/>
</svg>
