<svg preserveAspectRatio="none" width="100%" height="100%" overflow="visible" style="display: block;" viewBox="0 0 22 20" fill="none" xmlns="http://www.w3.org/2000/svg">
<path id="Vector" d="M15.7499 9.0105H19.3819C19.5523 9.01059 19.7198 9.05422 19.8686 9.13724C20.0174 9.22027 20.1425 9.33994 20.2321 9.48489C20.3217 9.62985 20.3727 9.79529 20.3804 9.9655C20.388 10.1357 20.3521 10.3051 20.2759 10.4575L18.2419 14.5265C18.1648 14.6807 18.0491 14.8123 17.9061 14.9086C17.7631 15.0049 17.5976 15.0626 17.4258 15.0761C17.2539 15.0896 17.0815 15.0584 16.9252 14.9856C16.7689 14.9127 16.6341 14.8008 16.5339 14.6605L14.4099 11.6905M1 16.0105H4.76C5.13273 16.0131 5.49877 15.9115 5.81682 15.7171C6.13487 15.5227 6.39228 15.2434 6.56 14.9105L8 12.0105M1 18.0105V14.0105M6 6.0105H6.01M16.1061 6.06341C16.3431 6.18206 16.5233 6.38995 16.6071 6.6414C16.6909 6.89285 16.6715 7.16729 16.5531 7.40441L13.4471 13.6154C13.3883 13.7329 13.307 13.8377 13.2078 13.9237C13.1085 14.0098 12.9933 14.0754 12.8687 14.1169C12.7441 14.1584 12.6125 14.175 12.4815 14.1656C12.3504 14.1563 12.2225 14.1212 12.1051 14.0624L2.61008 9.31041C1.92042 8.96303 1.39644 8.3566 1.1528 7.62382C0.909168 6.89104 0.965719 6.0916 1.31008 5.40041L2.69008 2.61041C2.86208 2.26764 3.09992 1.9621 3.39002 1.71125C3.68012 1.4604 4.01679 1.26915 4.3808 1.14843C4.74482 1.02771 5.12905 0.979885 5.51155 1.00768C5.89406 1.03547 6.26734 1.13834 6.61008 1.31041L16.1061 6.06341Z" stroke="var(--stroke-0, #262625)" stroke-width="2" stroke-linecap="round" stroke-linejoin="round"/>
</svg>
