<svg preserveAspectRatio="none" width="100%" height="100%" overflow="visible" style="display: block;" viewBox="0 0 41 24" fill="none" xmlns="http://www.w3.org/2000/svg">
<g id="Vector">
<path d="M14.733 9.13902C12.9789 11.3834 8.12244 11.676 7.43607 8.34267C7.11006 6.75991 7.66632 4.93347 9.06053 4.03124C10.8665 2.86188 14.0611 3.54093 13.4141 6.19769C12.9775 7.99218 10.7075 8.08053 9.20559 7.99218C8.92744 8.17089 9.73896 8.99427 9.90544 9.1116C11.1386 9.97835 12.9685 9.07413 13.9619 8.19338C14.8881 7.37253 14.9927 7.06244 15.0336 5.8252C15.0545 5.1956 14.9419 4.54849 14.9379 3.95085C14.9379 3.89093 14.9743 3.83701 15.0296 3.81304C15.4279 3.64228 16.4308 3.49799 16.6222 3.87046C16.678 3.97881 16.6441 4.59093 16.7488 4.50058C16.8535 4.4102 16.9068 4.25642 17.0977 4.10163C17.984 3.38315 19.5985 3.23086 20.3841 4.0532C21.5635 5.28747 20.751 7.49835 21.0191 8.90387C21.1253 9.4596 21.7833 9.36422 22.1277 9.09009C22.185 9.04467 22.3535 8.91435 22.4821 8.50591C22.5459 8.30422 22.4985 7.80044 22.4996 7.56627C22.5105 5.22955 24.148 2.9922 26.8107 3.55141C27.1367 3.61981 27.9088 4.30685 27.9088 4.30685L27.9238 0.266039C27.9313 -0.0445232 29.5857 -0.136394 29.6151 0.282516C29.646 0.725391 29.636 1.95716 29.6236 2.48342C29.5822 4.24993 29.2976 6.70698 29.473 8.41658C29.5129 8.804 29.642 9.10409 29.9336 9.29431C30.0996 9.40267 30.3134 9.41364 30.4899 9.32427C30.8468 9.14355 31.1563 8.75209 31.2536 8.40555C31.4141 7.83289 31.2092 4.00477 31.255 3.70969C31.2745 3.493 32.893 3.40761 32.9717 3.76411L32.9623 8.41258C33.1846 9.86151 34.5025 9.57244 35.17 8.63773C35.9511 7.54427 35.5637 4.73075 35.626 3.83651C35.654 3.43508 37.2969 3.4201 37.2879 3.74813C37.2695 4.44016 37.3398 6.55418 37.3418 6.76938L37.3657 9.4396C37.4803 9.4616 38.56 8.62129 39.1576 7.94373C39.5713 7.47489 39.8131 6.75191 39.8789 6.72093C40.0738 6.62907 40.5957 6.68 40.7273 6.88271C40.9581 7.23871 40.5837 8.03009 40.3789 8.36911C39.7174 9.46409 38.3945 10.1202 37.2859 10.6699C37.1762 12.4978 36.4948 14.6378 34.7492 15.4991C31.8627 16.9231 30.5647 14.0281 32.8576 12.1079C33.6113 11.4768 34.4517 11.314 35.1924 10.8052C35.6569 10.4861 35.6654 10.3603 35.6465 9.78911C35.5164 9.93893 35.3623 10.0747 35.1944 10.2085C33.9696 11.1812 32.3222 11.3075 31.5631 9.7392C30.6968 11.0294 28.4482 11.5112 27.9777 9.63933C27.1801 10.9764 25.4285 11.272 24.0842 10.622C23.645 10.4097 23.3724 10.1112 23.0728 9.73671C22.6625 10.274 22.2513 10.7997 21.5251 10.8816C18.4097 11.2336 19.4948 7.82191 19.3154 6.07035C19.1344 4.30285 16.9726 5.34987 16.7089 6.70595C16.6227 7.15035 16.5963 8.1644 16.5734 8.6692C16.5599 8.96378 16.6277 10.1386 16.5773 10.5271C16.5683 10.598 16.5245 10.6599 16.4602 10.6919C16.3351 10.7538 16.1796 10.7478 16.054 10.7523C15.8984 10.7578 15.1243 10.7603 15.0077 10.7348C14.912 10.7138 14.732 10.6494 14.732 10.4622V9.14053L14.733 9.13902ZM9.10589 6.59511H10.874C11.9661 6.59511 12.4207 5.22756 11.3604 4.81062C10.7513 4.57147 10.1262 4.86404 9.72796 5.34738C9.43788 5.69938 9.24346 6.16173 9.10589 6.59511ZM25.8751 4.86156C23.4297 5.23107 23.8718 10.3184 26.4633 9.29182C28.5703 8.45702 28.4901 4.46662 25.8751 4.86156ZM33.7244 12.8983C33.3107 13.3022 32.9398 13.814 33.3471 14.2304C33.4732 14.3592 33.6611 14.4021 33.8306 14.3407C34.8061 13.9862 35.0259 13.0131 35.4152 12.1059C35.5767 11.7299 35.5234 11.7893 35.1974 11.9451C34.6894 12.1883 33.8276 12.7974 33.7244 12.8983Z" fill="var(--fill-0, #262625)"/>
<path d="M1.54274 0.28102C1.51532 1.2222 1.51781 4.28139 1.48741 4.54951L2.3004 3.99279C3.74793 3.11203 5.94115 3.50598 6.67488 5.11471C7.93201 7.86982 6.61909 11.2591 3.05706 10.8836C2.591 10.8347 1.73165 10.3249 1.48741 9.90644L1.51233 10.584C1.30796 10.9045 0.0782584 10.7498 0 10.55L0.0234277 0.256554C0.0169477 0.177665 0.230788 0.105268 0.416215 0.0648244C0.647004 0.0138961 1.08216 0.0074052 1.28703 0.0618284C1.44105 0.102771 1.54623 0.164184 1.54274 0.28102ZM2.31436 5.62747C1.24017 6.65302 1.2317 9.23289 2.93145 9.46706C4.6312 9.70124 5.66801 8.49396 5.50104 6.81133C5.32906 5.08124 3.59191 4.40721 2.31436 5.62747Z" fill="var(--fill-0, #262625)"/>
<path d="M28.7184 16.9036C30.5342 17.5732 29.2981 20.3023 29.5278 21.7792C29.7178 23.003 31.1628 21.7298 31.3383 21.2076C31.421 20.9629 31.3762 20.2714 31.4195 19.9423C31.6947 17.8383 33.5604 16.0922 35.7586 16.5356C36.7949 16.7443 37.2141 17.6256 37.1449 18.7435C37.105 19.3876 35.9575 19.8065 35.5717 19.467C35.2851 19.2153 35.6729 18.8524 35.6888 18.4559C35.7063 18.023 35.3409 17.5547 34.5509 17.8413C32.9697 18.416 32.6926 21.1416 34.0095 22.1288C35.0378 22.8992 36.7625 22.3389 37.7131 21.6574C37.9788 21.4672 38.6941 20.5969 38.9827 20.4346C39.2065 20.3088 39.6476 20.3812 39.7713 20.6473C40.0589 21.6085 38.0341 23.1164 37.277 23.4644C35.5059 24.2777 32.9149 24.2303 31.8138 22.4079L31.7101 22.4383C31.0751 23.5757 28.8181 24.5513 28.0933 23.0175C27.7114 22.2096 27.9717 21.0677 27.9821 20.1895C27.9941 19.1989 28.187 17.7564 26.6866 18.3431C25.6947 18.731 25.0317 20.5949 24.9899 21.582C24.9729 21.978 24.9864 23.2791 24.9829 23.5702C24.9784 23.9562 23.4212 24.0905 23.3853 23.6246C23.3724 23.4549 23.4401 22.268 23.3315 22.5217C22.835 23.6825 21.064 24.3661 19.8193 23.6236C19.3094 23.3196 19.0363 22.7893 18.9919 22.2081C17.6201 23.3675 15.9099 24.3441 14.0457 23.8703C10.5131 22.9725 11.003 17.3415 14.4659 16.6225C16.4617 16.2081 18.4032 17.7808 17.2433 19.808C16.5091 21.0912 14.7873 20.9998 13.4714 20.9674C13.2929 20.9629 13.2706 20.9374 13.3612 21.1287C13.5263 21.4776 13.6843 21.8247 14.0113 22.0593C15.7778 23.3305 18.8324 20.7347 18.8787 20.3632L19.1055 18.1374C19.0537 17.9591 18.2661 18.062 17.7741 18.062C17.5518 18.062 17.5827 16.642 17.9112 16.654L19.1165 16.6709C19.1165 16.6709 19.0901 14.8959 19.1165 14.2763C19.1289 13.9822 20.7335 13.9413 20.749 14.3572L20.7101 16.6704H22.3286C22.5813 16.6704 22.5718 18.1793 22.3286 18.1668H20.6602C20.6677 19.2019 20.5326 20.3987 20.6602 21.4337C20.723 21.944 21.1403 22.2651 21.6926 22.2006C22.0968 22.1537 23.1725 21.2585 23.2164 20.54C23.3509 18.3181 22.5663 12.6621 25.4724 12.4873C27.1372 12.387 27.6746 13.2542 27.7035 14.8355C27.7394 16.7753 24.9998 17.7549 24.9983 17.8133C24.9904 18.062 24.9784 18.1723 24.9928 18.3166C25.6623 17.714 27.2643 16.3674 28.7199 16.9036H28.7184ZM26.3227 14.4146C26.2859 14.1235 26.1169 13.7655 25.7665 13.8274C24.8677 14.136 24.9844 15.594 24.9994 16.4532C25.26 16.4388 26.4334 15.2879 26.3227 14.4146ZM13.3887 19.6637H15.0072C15.4643 19.6522 15.8072 19.44 15.9263 19.3377C16.4706 18.8688 16.0923 17.8398 15.4578 17.7659C14.1967 17.6191 13.6594 18.6182 13.3887 19.6637Z" fill="var(--fill-0, #262625)"/>
<path d="M5.90527 18.068C7.11055 16.2256 10.1636 16.29 11.0663 18.3676C12.5637 21.8137 9.07352 25.7616 5.87937 23.1563C5.87937 23.1563 5.94567 23.4798 5.85941 23.722C5.81356 23.8508 4.26484 23.8188 4.23892 23.5892C3.96128 21.1187 4.33512 13.3596 4.33512 13.3596C4.37999 13.1424 5.10723 13.1688 5.28919 13.1773C5.49057 13.1868 5.98603 13.1773 6.04536 13.4155L5.90527 18.068ZM9.08598 18.5967C8.36369 17.8063 7.25313 18.0884 6.56476 18.784C5.47363 19.8859 5.71036 22.5631 7.50982 22.6455C9.63873 22.7429 10.3306 19.9578 9.08598 18.5967Z" fill="var(--fill-0, #262625)"/>
</g>
</svg>
