<svg preserveAspectRatio="none" width="100%" height="100%" overflow="visible" style="display: block;" viewBox="0 0 21 23" fill="none" xmlns="http://www.w3.org/2000/svg">
<path id="Vector" d="M19 4C19 5.65685 14.9706 7 10 7C5.02944 7 1.00001 5.65685 1.00001 4M19 4C19 2.34315 14.9706 1 10 1C5.02944 1 1.00001 2.34315 1.00001 4M19 4V7M1.00001 4L1.00007 18C0.994505 18.4809 1.33587 18.9552 1.99541 19.383C2.65494 19.8107 3.6133 20.1793 4.78971 20.4577C5.96612 20.7361 7.32609 20.9162 8.75499 20.9827C10.1839 21.0493 11.6398 21.0003 13.0001 20.84M19 11L16 16H20L17 21M1.00001 11C1.00145 11.4675 1.33069 11.9285 1.96146 12.3461C2.59223 12.7636 3.50706 13.1263 4.63297 13.4051C5.75888 13.6839 7.06469 13.8711 8.44622 13.9519C9.82775 14.0326 11.2468 14.0045 12.59 13.87" stroke="var(--stroke-0, #262625)" stroke-width="2" stroke-linecap="round" stroke-linejoin="round"/>
</svg>
