<svg preserveAspectRatio="none" width="100%" height="100%" overflow="visible" style="display: block;" viewBox="0 0 23 23" fill="none" xmlns="http://www.w3.org/2000/svg">
<path id="Vector" d="M15.0269 11.0081L20.5069 14.1381C20.6608 14.2253 20.7889 14.3518 20.8779 14.5046C20.967 14.6574 21.0139 14.8312 21.0139 15.0081C21.0139 15.185 20.967 15.3587 20.8779 15.5115C20.7889 15.6644 20.6608 15.7908 20.5069 15.8781L12.0069 20.7481C11.7029 20.9236 11.358 21.016 11.0069 21.016C10.6559 21.016 10.311 20.9236 10.0069 20.7481L1.50695 15.8781C1.35305 15.7908 1.22504 15.6644 1.13598 15.5115C1.04692 15.3587 1 15.185 1 15.0081C1 14.8312 1.04692 14.6574 1.13598 14.5046C1.22504 14.3518 1.35305 14.2253 1.50695 14.1381L6.98695 11.0081M12.0069 12.7479C11.7029 12.9235 11.358 13.0159 11.0069 13.0159C10.6559 13.0159 10.311 12.9235 10.0069 12.7479L1.50695 7.87795C1.35305 7.79073 1.22504 7.66425 1.13598 7.51141C1.04692 7.35857 1 7.18484 1 7.00795C1 6.83106 1.04692 6.65733 1.13598 6.50449C1.22504 6.35165 1.35305 6.22517 1.50695 6.13795L10.0069 1.26795C10.311 1.09241 10.6559 1 11.0069 1C11.358 1 11.7029 1.09241 12.0069 1.26795L20.5069 6.13795C20.6608 6.22517 20.7889 6.35165 20.8779 6.50449C20.967 6.65733 21.0139 6.83106 21.0139 7.00795C21.0139 7.18484 20.967 7.35857 20.8779 7.51141C20.7889 7.66425 20.6608 7.79073 20.5069 7.87795L12.0069 12.7479Z" stroke="var(--stroke-0, #262625)" stroke-width="2" stroke-linecap="round" stroke-linejoin="round"/>
</svg>
