<svg preserveAspectRatio="none" width="100%" height="100%" overflow="visible" style="display: block;" viewBox="0 0 23 23" fill="none" xmlns="http://www.w3.org/2000/svg">
<path id="Vector" d="M13.471 13.4711L8.67102 8.67114M20.5711 20.5711L19.1711 19.1711M2.97105 2.97105L1.57104 1.57104M17.7281 20.5559C17.3531 20.9311 16.8444 21.1419 16.3139 21.142C15.7835 21.1421 15.2747 20.9315 14.8996 20.5564C14.5244 20.1814 14.3136 19.6727 14.3135 19.1423C14.3134 18.6119 14.5241 18.1031 14.8991 17.7279L13.1321 19.4959C12.7569 19.8711 12.2481 20.0819 11.7176 20.0819C11.187 20.0819 10.6782 19.8711 10.3031 19.4959C9.92792 19.1208 9.71716 18.612 9.71716 18.0814C9.71716 17.5509 9.92792 17.0421 10.3031 16.6669L16.6671 10.3029C17.0422 9.9278 17.551 9.71704 18.0816 9.71704C18.6121 9.71704 19.1209 9.9278 19.4961 10.3029C19.8712 10.6781 20.082 11.1869 20.082 11.7174C20.082 12.248 19.8712 12.7568 19.4961 13.1319L17.7281 14.8989C18.1032 14.5239 18.612 14.3133 19.1424 14.3134C19.6729 14.3135 20.1816 14.5243 20.5566 14.8994C20.9316 15.2746 21.1422 15.7834 21.1421 16.3138C21.142 16.8442 20.9312 17.3529 20.5561 17.7279L17.7281 20.5559ZM5.47505 11.8391C5.0999 12.2142 4.59109 12.425 4.06055 12.425C3.53001 12.425 3.0212 12.2142 2.64605 11.8391C2.2709 11.4639 2.06015 10.9551 2.06015 10.4246C2.06015 9.89401 2.2709 9.3852 2.64605 9.01005L4.41405 7.24305C4.2283 7.42874 4.00779 7.57602 3.76511 7.67649C3.52244 7.77696 3.26235 7.82865 2.9997 7.8286C2.46925 7.82851 1.96057 7.6177 1.58555 7.24255C1.39986 7.0568 1.25258 6.83629 1.15211 6.59361C1.05164 6.35094 0.999954 6.09085 1 5.8282C1.00009 5.29775 1.2109 4.78907 1.58605 4.41405L4.41405 1.58605C4.78907 1.2109 5.29775 1.00009 5.8282 1C6.09085 0.999954 6.35094 1.05164 6.59361 1.15211C6.83629 1.25258 7.0568 1.39986 7.24255 1.58555C7.42831 1.77124 7.57567 1.9917 7.67622 2.23434C7.77678 2.47698 7.82856 2.73705 7.8286 2.9997C7.82865 3.26235 7.77696 3.52244 7.67649 3.76511C7.57602 4.00779 7.42874 4.2283 7.24305 4.41405L9.01005 2.64605C9.3852 2.2709 9.89401 2.06015 10.4246 2.06015C10.9551 2.06015 11.4639 2.2709 11.8391 2.64605C12.2142 3.0212 12.425 3.53001 12.425 4.06055C12.425 4.59109 12.2142 5.0999 11.8391 5.47505L5.47505 11.8391Z" stroke="var(--stroke-0, #262625)" stroke-width="2" stroke-linecap="round" stroke-linejoin="round"/>
</svg>
