<svg preserveAspectRatio="none" width="100%" height="100%" overflow="visible" style="display: block;" viewBox="0 0 22 22" fill="none" xmlns="http://www.w3.org/2000/svg">
<path id="Vector" d="M14 6.13V5C13.9995 4.40461 13.8219 3.82282 13.4897 3.32871C13.1575 2.8346 12.6858 2.4505 12.1346 2.22532C11.5835 2.00013 10.9778 1.94404 10.3946 2.06419C9.81147 2.18434 9.27727 2.47529 8.86 2.9L7 1M13.1201 2.88L15.0001 1M21 12H17V10C17 8.93913 16.5785 7.92172 15.8284 7.17157C15.0782 6.42143 14.0608 6 13 6H11.7M19.97 4C19.97 6.1 18.37 7.8 16.47 8M1 1L21 21M6.70009 6.69995C6.17114 7.07168 5.74017 7.56608 5.4441 8.1408C5.14803 8.71553 4.99568 9.35346 5.00009 9.99995V13C4.9961 14.3112 5.42177 15.5877 6.21198 16.6341C7.0022 17.6805 8.11345 18.4392 9.37574 18.7942C10.638 19.1492 11.9819 19.0809 13.2017 18.5997C14.4215 18.1186 15.45 17.2511 16.1301 16.13M11 19V11M5 12H1M2 20C2 17.9 3.7 16.1 5.8 16" stroke="var(--stroke-0, #262625)" stroke-width="2" stroke-linecap="round" stroke-linejoin="round"/>
</svg>
