<svg preserveAspectRatio="none" width="100%" height="100%" overflow="visible" style="display: block;" viewBox="0 0 23 21" fill="none" xmlns="http://www.w3.org/2000/svg">
<path id="Vector" d="M17.1055 10.5V8C17.1055 7.46957 16.8948 6.96086 16.5197 6.58579C16.1446 6.21071 15.6359 6 15.1055 6C14.575 6 14.0663 6.21071 13.6913 6.58579C13.3162 6.96086 13.1055 7.46957 13.1055 8V9.4M13.1055 9V7C13.1055 6.46957 12.8948 5.96086 12.5197 5.58579C12.1446 5.21071 11.6359 5 11.1055 5C10.575 5 10.0663 5.21071 9.69126 5.58579C9.31618 5.96086 9.10547 6.46957 9.10547 7V9M9.10547 8.5V3C9.10547 2.46957 8.89476 1.96086 8.51968 1.58579C8.14461 1.21071 7.6359 1 7.10547 1C6.57504 1 6.06633 1.21071 5.69126 1.58579C5.31618 1.96086 5.10547 2.46957 5.10547 3V12M6.10557 13L4.34557 11.24C3.96574 10.8946 3.46761 10.7085 2.95434 10.7202C2.44107 10.7319 1.95197 10.9406 1.58829 11.303C1.22462 11.6653 1.01423 12.1537 1.0007 12.6669C0.987159 13.1802 1.17151 13.6789 1.51557 14.06L5.11557 17.66C6.60557 19.14 8.30557 20 11.1056 20H13.1056C15.2273 20 17.2621 19.1571 18.7624 17.6569C20.2627 16.1566 21.1056 14.1217 21.1056 12V5C21.1056 4.46957 20.8949 3.96086 20.5198 3.58579C20.1447 3.21071 19.636 3 19.1056 3C18.5751 3 18.0664 3.21071 17.6914 3.58579C17.3163 3.96086 17.1056 4.46957 17.1056 5V10" stroke="var(--stroke-0, #262625)" stroke-width="2" stroke-linecap="round" stroke-linejoin="round"/>
</svg>
