<svg preserveAspectRatio="none" width="100%" height="100%" overflow="visible" style="display: block;" viewBox="0 0 20 21" fill="none" xmlns="http://www.w3.org/2000/svg">
<g id="Vector">
<path d="M6.29992 8.36016C6.17101 8.36719 6.04266 8.33844 5.92907 8.27708C5.81548 8.21572 5.72108 8.12415 5.65629 8.01248C5.5915 7.90081 5.55886 7.7734 5.56197 7.64433C5.56508 7.51527 5.60382 7.38958 5.67392 7.28116L9.39992 1.36016C9.45846 1.25473 9.54326 1.16621 9.64608 1.10319C9.7489 1.04017 9.86626 1.00478 9.98678 1.00045C10.1073 0.996125 10.2269 1.02301 10.334 1.0785C10.441 1.13399 10.532 1.2162 10.5979 1.31716L14.2999 7.26016C14.3729 7.36495 14.4158 7.48771 14.424 7.61514C14.4322 7.74257 14.4054 7.86982 14.3465 7.98311C14.2876 8.0964 14.1988 8.19142 14.0898 8.25788C13.9807 8.32434 13.8556 8.35971 13.7279 8.36016H6.29992Z" stroke="var(--stroke-0, #262625)" stroke-width="2" stroke-linecap="round" stroke-linejoin="round"/>
<path d="M7 12.3601H2C1.44772 12.3601 1 12.8078 1 13.3601V18.3601C1 18.9124 1.44772 19.3601 2 19.3601H7C7.55228 19.3601 8 18.9124 8 18.3601V13.3601C8 12.8078 7.55228 12.3601 7 12.3601Z" stroke="var(--stroke-0, #262625)" stroke-width="2" stroke-linecap="round" stroke-linejoin="round"/>
<path d="M15.5 19.3601C17.433 19.3601 19 17.7931 19 15.8601C19 13.9271 17.433 12.3601 15.5 12.3601C13.567 12.3601 12 13.9271 12 15.8601C12 17.7931 13.567 19.3601 15.5 19.3601Z" stroke="var(--stroke-0, #262625)" stroke-width="2" stroke-linecap="round" stroke-linejoin="round"/>
</g>
</svg>
