<svg preserveAspectRatio="none" width="100%" height="100%" overflow="visible" style="display: block;" viewBox="0 0 22 22" fill="none" xmlns="http://www.w3.org/2000/svg">
<path id="Vector" d="M12.9381 1.00008C14.9764 1.21485 16.8803 2.11888 18.335 3.56266C19.7897 5.00644 20.708 6.90349 20.9381 8.94008M12.9381 5.00008C13.9216 5.19402 14.8241 5.67911 15.5285 6.39239C16.2329 7.10567 16.7066 8.01421 16.8881 9.00008M20.8881 15.9202V18.9202C20.8892 19.1987 20.8322 19.4743 20.7206 19.7295C20.6091 19.9847 20.4454 20.2138 20.2402 20.402C20.035 20.5903 19.7927 20.7337 19.5289 20.8229C19.265 20.9121 18.9855 20.9452 18.7081 20.9202C15.631 20.5858 12.6751 19.5343 10.0781 17.8502C7.66194 16.3148 5.61345 14.2664 4.07812 11.8502C2.3881 9.24138 1.33636 6.27117 1.00812 3.18018C0.983127 2.90365 1.01599 2.62494 1.10462 2.3618C1.19324 2.09867 1.33569 1.85687 1.52288 1.6518C1.71008 1.44673 1.93792 1.28289 2.19191 1.1707C2.44589 1.05851 2.72046 1.00044 2.99812 1.00018H5.99812C6.48342 0.995402 6.95391 1.16726 7.32188 1.48371C7.68985 1.80016 7.93019 2.23962 7.99812 2.72018C8.12474 3.68024 8.35957 4.62291 8.69812 5.53018C8.83266 5.8881 8.86178 6.27709 8.78202 6.65106C8.70227 7.02502 8.51698 7.36829 8.24812 7.64018L6.97812 8.91018C8.40167 11.4137 10.4746 13.4866 12.9781 14.9102L14.2481 13.6402C14.52 13.3713 14.8633 13.186 15.2372 13.1063C15.6112 13.0265 16.0002 13.0556 16.3581 13.1902C17.2654 13.5287 18.2081 13.7636 19.1681 13.8902C19.6539 13.9587 20.0975 14.2034 20.4147 14.5777C20.7318 14.952 20.9003 15.4298 20.8881 15.9202Z" stroke="var(--stroke-0, #262625)" stroke-width="2" stroke-linecap="round" stroke-linejoin="round"/>
</svg>
