<svg preserveAspectRatio="none" width="100%" height="100%" overflow="visible" style="display: block;" viewBox="0 0 22 22" fill="none" xmlns="http://www.w3.org/2000/svg">
<path id="Vector" d="M17.0901 9.37012C18.0354 9.72255 18.8766 10.3076 19.5358 11.0713C20.1951 11.835 20.6512 12.7526 20.8618 13.7392C21.0725 14.7258 21.031 15.7496 20.7411 16.716C20.4513 17.6823 19.9224 18.5599 19.2035 19.2677C18.4846 19.9755 17.5988 20.4906 16.6281 20.7653C15.6573 21.0401 14.633 21.0656 13.6498 20.8396C12.6666 20.6135 11.7562 20.1432 11.0029 19.4721C10.2496 18.801 9.67772 17.9508 9.34009 17.0001M6 5H7V9M15.7101 12.8799L16.4101 13.5899L13.5901 16.4099M13 7C13 10.3137 10.3137 13 7 13C3.68629 13 1 10.3137 1 7C1 3.68629 3.68629 1 7 1C10.3137 1 13 3.68629 13 7Z" stroke="var(--stroke-0, #262625)" stroke-width="2" stroke-linecap="round" stroke-linejoin="round"/>
</svg>
