<svg preserveAspectRatio="none" width="100%" height="100%" overflow="visible" style="display: block;" viewBox="0 0 233 75" fill="none" xmlns="http://www.w3.org/2000/svg">
<g id="logo">
<g id="Vector">
<path d="M12.494 31.9555C10.5707 31.9555 8.7367 32.4551 7.18016 33.4048L4.92547 34.9515C4.964 34.0003 4.98249 31.4188 5.00099 28.7074C5.01948 26.0841 5.03952 23.3711 5.07804 22.0379C5.09346 21.5104 4.56947 21.3093 4.1734 21.2042C3.87442 21.1253 3.41824 21.0804 2.88655 21.0804C2.35486 21.0804 1.78001 21.1299 1.4086 21.2119C0.497787 21.413 0.0493164 21.6682 0.0724334 21.9574L0 53.8448C0 53.8649 0.00308227 53.8835 0.010788 53.902C0.208053 54.4063 1.80775 54.6754 2.88501 54.6754C3.50763 54.6754 4.60492 54.5919 4.95938 54.0335C4.97633 54.0072 4.98404 53.9763 4.98404 53.9438L4.92547 52.36C5.97345 53.6236 8.29748 54.895 9.58895 55.0312C10.1515 55.0899 10.7094 55.1209 11.2472 55.1209C15.2526 55.1209 18.5383 53.4334 20.4987 50.3693C22.8581 46.6835 23.023 41.5375 20.9302 36.9421C19.5293 33.8657 16.296 31.9555 12.4925 31.9555H12.494ZM15.3266 48.4653C14.1677 49.7506 12.514 50.4296 10.5429 50.4296C10.1237 50.4296 9.6845 50.3987 9.24065 50.3368C7.44831 50.0894 6.12756 48.9154 5.52189 47.0299C4.62341 44.2396 5.45716 40.5831 7.41749 38.707C8.70434 37.4758 10.1854 36.8246 11.7003 36.8246C14.5083 36.8246 16.6905 39.0658 17.0095 42.2768C17.2592 44.7887 16.6612 46.9866 15.3266 48.4653Z" fill="var(--fill-0, #262625)"/>
<path d="M135.432 34.2137C132.303 34.2137 129.459 35.6027 127.716 37.9537L128.133 24.061C128.133 24.0471 128.133 24.0331 128.129 24.0192C127.936 23.2397 126.631 23.1964 125.851 23.1716C125.777 23.1685 125.707 23.167 125.649 23.1639C125.391 23.1515 125.153 23.1453 124.92 23.1453C123.417 23.1453 122.639 23.3758 122.542 23.8506C122.54 23.8584 122.539 23.8661 122.539 23.8738C122.531 24.0362 122.007 35.0737 121.935 44.5258C121.69 44.9248 121.415 45.3177 121.112 45.6626C119.384 47.6239 116.567 49.828 115.838 50.193L115.766 42.1252C115.766 41.9597 115.75 41.4369 115.73 40.7115C115.668 38.4997 115.556 34.3823 115.599 32.7706C115.602 32.6422 115.551 32.5185 115.45 32.4133C114.986 31.9354 113.603 31.8983 113.19 31.8983C112.091 31.8983 110.214 32.1365 110.153 33.0305C110.103 33.7435 110.145 34.8494 110.194 36.1301C110.333 39.7974 110.543 45.3409 108.772 47.8249C107.752 49.2557 106.237 50.1806 104.913 50.1806C103.477 50.1806 102.521 49.1242 102.225 47.2047L102.254 32.8155C102.254 32.8046 102.254 32.7923 102.251 32.7814C102.077 31.9942 100.257 31.9091 99.4819 31.9091C99.4542 31.9091 96.7032 31.9168 96.6401 32.6221C96.5877 32.9624 96.6323 34.5911 96.6955 36.8447C96.8034 40.7224 96.9529 46.0323 96.6385 47.1521C96.338 48.2271 95.3779 49.3825 94.3576 49.9022C94.1403 50.0136 93.8937 50.0708 93.6472 50.0708C93.3405 50.0708 93.0446 49.9826 92.7903 49.8171C91.9935 49.2959 91.5635 48.4684 91.4356 47.2109C91.0719 43.6596 91.3462 39.1339 91.6113 34.7582C91.7392 32.6422 91.861 30.6439 91.9026 28.8512C91.9411 27.2179 91.9735 23.4144 91.8764 22.0193C91.8101 21.0727 89.8729 21 89.2811 21C88.1083 21 86.3576 21.2599 86.3391 21.9791L86.2929 34.1596C85.6425 33.6012 83.9288 32.1844 83.0811 32.0065C82.2227 31.8256 81.3736 31.7343 80.5568 31.7343C73.4567 31.7343 69.5946 38.3605 69.5669 44.5954C69.5669 44.798 69.5761 45.0671 69.5885 45.3533C69.6178 46.1019 69.6547 47.033 69.5207 47.4599C69.1415 48.6648 68.6623 49.0469 68.4758 49.1953C67.9765 49.5929 67.2953 49.8403 66.6973 49.8403C66.255 49.8403 65.4829 49.6934 65.2964 48.7112C65.0113 47.2155 65.1253 45.426 65.2456 43.5328C65.4767 39.9026 65.7171 36.1502 63.2914 33.6074C62.2034 32.4659 60.5312 31.8379 58.5832 31.8379C56.5089 31.8379 54.3929 32.551 52.9226 33.7451C52.562 34.0374 52.3509 34.3328 52.1829 34.5695C52.0889 34.7009 52.0072 34.8169 51.9132 34.9144C51.867 34.7257 51.8392 34.3143 51.8223 34.0498C51.7899 33.5471 51.7637 33.23 51.6866 33.0784C51.4154 32.551 50.6803 32.271 49.5599 32.271C48.4395 32.271 47.1927 32.5603 46.5654 32.8294C46.3358 32.9284 46.1879 33.1511 46.1894 33.3986C46.194 34.2245 46.268 35.0969 46.3389 35.9414C46.4283 37.0133 46.5223 38.1223 46.4853 39.1988C46.362 42.928 46.0877 43.8808 43.2227 46.4236C41.2007 48.2194 37.6777 50.3167 34.4059 50.3167C33.0589 50.3167 31.8692 49.9594 30.872 49.2572C30.3897 48.9169 28.5788 47.0485 28.5958 46.2581C28.5973 46.1761 28.6204 46.1173 28.6667 46.074C29.4496 46.1189 30.1662 46.1406 30.8582 46.1406C37.1799 46.1406 40.854 44.2071 41.7802 40.3944C42.3412 38.0883 42.0083 36.0652 40.8185 34.5447C39.4469 32.7907 37.0258 31.7853 34.1778 31.7853C31.9709 31.7853 29.8087 32.3994 28.0872 33.5161C24.0001 36.1672 21.9073 41.7262 22.9968 47.0346C23.5301 49.6269 24.8662 51.6407 26.9683 53.0204C28.8254 54.2392 31.2003 54.8842 33.8326 54.8842C38.4313 54.8842 42.9761 52.9415 45.5529 49.9037V53.5649C45.5529 54.0629 45.9074 54.4248 46.5254 54.5609C46.8105 54.6228 48.1451 54.6306 48.7045 54.6306C49.17 54.6306 49.6092 54.6259 49.7972 54.6197C49.8496 54.6182 49.9035 54.6166 49.9606 54.6151C50.332 54.6058 50.7543 54.5965 51.118 54.4171C51.363 54.2965 51.5294 54.0614 51.5649 53.7876C51.6635 53.0204 51.6173 51.2881 51.5803 49.8945C51.5587 49.067 51.5387 48.3539 51.5541 48.0183C51.5664 47.7507 51.5788 47.4383 51.5926 47.0949C51.6589 45.4043 51.7514 43.0889 51.9702 41.9582C52.3863 39.8129 54.8444 37.2237 57.2717 37.2237C58.6711 37.2237 59.5418 38.2012 59.7237 39.9753C59.8485 41.1972 59.773 42.6821 59.6928 44.2535C59.5187 47.6718 59.3214 51.5448 61.2694 53.602C62.2218 54.6073 63.5719 55.0961 65.395 55.0961C65.8127 55.0961 66.2581 55.0698 66.7235 55.0172C68.9921 54.7605 70.2789 53.1596 71.4949 51.5665C72.3117 52.578 73.1793 53.5324 74.5509 54.1975C75.958 54.8796 77.5315 55.24 79.1004 55.24C82.2412 55.24 85.0183 53.8092 86.6011 51.3932C87.3008 53.6979 89.0114 55.011 91.3385 55.011C93.6811 55.011 96.2656 53.6298 97.7204 51.6253C98.9117 53.9144 100.861 55.1719 103.236 55.1719C105.155 55.1719 107.225 54.3645 109.065 52.8998C109.533 52.527 109.909 52.1914 110.225 51.8635C110.261 53.2942 110.139 53.6314 108.877 54.4991C107.89 55.1765 106.867 55.6467 105.782 56.1417C104.403 56.7728 102.977 57.4255 101.646 58.5422C98.6019 61.0974 97.2827 64.5404 98.286 67.3137C99.0072 69.309 100.83 70.5 103.161 70.5C104.543 70.5 106.058 70.0978 107.661 69.3059C110.176 68.0624 112.158 65.8985 113.551 62.8746C114.976 59.7827 115.443 56.5253 115.584 54.3057C117.635 53.2864 119.981 52.114 121.962 50.5766C122.009 52.578 122.095 54.3119 122.237 55.5833C122.322 56.3443 125.365 56.366 125.712 56.366C127.426 56.366 127.512 56.1216 127.544 56.0303C127.719 55.5416 127.705 54.9631 127.668 54.5872C129.728 56.185 131.897 56.994 134.119 56.994C137.385 56.994 140.553 55.1301 142.592 52.0073C145.055 48.2348 145.448 43.4956 143.64 39.3288C142.27 36.1703 139.123 34.2075 135.427 34.2075L135.432 34.2137ZM30.3496 37.8269C31.3267 36.6374 32.6212 35.9569 33.9019 35.9569C34.3519 35.9569 34.7958 36.0419 35.2227 36.2105C36.7623 36.8169 37.1198 38.0496 36.9395 39.0008C36.6374 40.6017 35.1194 41.4385 33.774 41.4385H28.5203C29.0288 39.8887 29.6284 38.7054 30.3511 37.8269H30.3496ZM81.916 49.8032C81.2272 50.077 80.5645 50.2162 79.9449 50.2162C77.0707 50.2162 75.5635 47.2712 75.3462 44.3525C74.9948 39.6505 77.5115 36.7813 80.1776 36.3776C80.5429 36.3219 80.9004 36.2941 81.241 36.2941C83.8532 36.2941 85.7319 37.9769 86.2682 40.795C86.9001 44.1236 85.4452 48.4034 81.9176 49.8048L81.916 49.8032ZM109.509 58.6026C109.31 59.065 109.125 59.5368 108.944 59.9946C108.024 62.3364 107.155 64.5466 104.699 65.4422C104.56 65.4932 104.414 65.5195 104.267 65.5195C103.927 65.5195 103.606 65.385 103.367 65.139C103.025 64.7879 102.86 64.409 102.866 63.9805C102.875 63.218 103.42 62.3193 104.531 61.232C104.811 60.9567 107.473 59.0604 109.043 58.3071C109.145 58.2576 109.239 58.2128 109.324 58.171C109.485 58.0921 109.65 58.0102 109.754 57.9715C109.709 58.1385 109.573 58.4525 109.509 58.6041V58.6026ZM138.446 48.7128C137.389 51.121 135.347 52.5022 132.843 52.5022C132.735 52.5022 132.626 52.4992 132.516 52.4945C130.54 52.4033 129.021 51.2448 128.24 49.2309C127.151 46.4298 127.791 42.7238 129.697 40.795C130.943 39.536 132.584 38.7828 134.09 38.7828C135.318 38.7828 136.417 39.2762 137.269 40.2104C139.22 42.3495 139.706 45.8451 138.448 48.7112L138.446 48.7128Z" fill="var(--fill-0, #262625)"/>
<path d="M232.467 46.7268C232.427 46.4453 232.302 46.2009 232.109 46.023C231.674 45.6208 230.862 45.3301 230.175 45.3301C229.742 45.3301 229.418 45.4445 229.239 45.6611C227.486 47.7863 226.505 48.937 225.148 49.814C222.885 51.2741 220.395 52.1125 218.317 52.1125C216.855 52.1125 215.58 51.7134 214.531 50.9261C212.618 49.4908 211.667 46.6355 212.107 43.6519C212.523 40.8322 214.039 38.6869 216.164 37.9135C216.645 37.7387 217.095 37.649 217.501 37.649C218.097 37.649 218.601 37.8454 218.955 38.2151C219.31 38.5848 219.499 39.1138 219.478 39.6644C219.462 40.0449 219.367 40.4254 219.274 40.7935C219.08 41.57 218.878 42.3727 219.627 42.8831C220.006 43.1414 220.483 43.2791 221.007 43.2791C222.48 43.2791 224.189 42.167 224.288 40.5723C224.525 36.7364 222.918 34.1859 219.879 33.5718C219.163 33.428 218.441 33.3537 217.729 33.3537C214.916 33.3537 212.196 34.506 210.068 36.5972C208.006 38.6234 206.662 41.3441 206.281 44.2582C206.226 44.6851 206.216 45.2868 206.207 45.924C206.193 46.8087 206.181 47.7244 206.038 48.1482C205.654 49.2881 203.424 51.4087 201.991 51.4087C201.309 51.4087 200.889 50.9153 200.738 49.944C200.514 48.507 200.745 46.6865 200.989 44.7593C201.499 40.7347 202.075 36.1734 198.136 34.7179C197.43 34.4581 196.678 34.3251 195.897 34.3251C192.001 34.3251 188.208 37.5562 186.695 38.9111C186.69 38.7101 186.699 38.4997 186.712 38.2151C186.718 38.0805 186.724 37.9305 186.73 37.7588C186.807 37.7155 186.968 37.6397 187.136 37.5577C188.006 37.1386 190.048 36.158 191.818 34.6545C194.034 32.7706 195.137 30.6841 195.097 28.4537C195.002 23.3015 193.067 21.0031 188.822 21.0031C188.569 21.0031 188.305 21.0108 188.036 21.0278C184.753 21.2258 182.666 23.5954 181.658 28.2727C180.808 32.2184 180.882 37.1602 180.942 41.1322C180.971 43.095 180.997 44.7903 180.917 46.1189C180.791 48.2163 177.591 50.9741 176.341 51.1195C176.203 51.1349 176.066 51.1442 175.932 51.1442C174.515 51.1442 173.49 50.2549 173.321 48.8798C173.065 46.7995 173.153 44.4933 173.239 42.2644C173.284 41.1013 173.325 40.0016 173.322 38.9328C173.322 38.9328 178.333 38.9328 178.334 38.9328C179.003 38.9328 179.054 37.0257 179.054 36.441C179.054 35.8563 179.001 33.9879 178.325 33.9879H173.478L173.595 26.9704C173.566 26.1599 172.136 25.8707 170.809 25.8707C169.869 25.8707 168.269 26.0485 168.241 26.7183C168.169 28.4367 168.227 33.0676 168.241 33.9863C168.241 33.9863 164.66 33.9353 164.657 33.9353C163.863 33.9353 163.65 35.7094 163.65 36.7581C163.65 37.3134 163.709 38.6064 164.245 38.6064C164.652 38.6064 165.133 38.5832 165.597 38.5616C166.071 38.5384 166.563 38.5152 166.988 38.5152C167.955 38.5152 168.161 38.6466 168.204 38.7101L167.508 45.5621C167.403 46.3958 161.366 51.7583 156.142 51.7583C154.823 51.7583 153.665 51.4056 152.7 50.7111C151.75 50.0259 151.28 49.0283 150.78 47.9719L150.74 47.8868C150.703 47.8079 150.643 47.6795 150.612 47.5976C150.612 47.5976 150.614 47.5976 150.615 47.5976C150.657 47.5976 150.705 47.5991 150.762 47.6022C150.814 47.6038 150.873 47.6068 150.937 47.6084L151.367 47.6192C152.044 47.6362 152.742 47.6548 153.456 47.6548C156.996 47.6548 160.867 47.2124 162.736 43.938C164.076 41.5916 164.191 39.2205 163.06 37.2623C161.767 35.0227 159.067 33.6321 156.012 33.6321C155.336 33.6321 154.653 33.7033 153.984 33.8425C148.011 35.0861 145.177 40.8492 145.07 45.6781C145.015 48.1962 145.628 50.5333 146.846 52.4357C148.182 54.5269 150.199 55.9654 152.679 56.598C153.679 56.8532 154.705 56.9816 155.732 56.9816C159.574 56.9816 163.552 55.223 167.887 51.6051C168.106 53.4272 169.043 54.9507 170.491 55.8153C171.564 56.4572 172.835 56.796 174.167 56.796C177.248 56.796 180.261 55.0404 181.455 52.5873C181.484 53.0962 181.463 54.0505 181.45 54.6275C181.44 55.1363 181.43 55.54 181.443 55.6993C181.493 56.3629 182.34 56.7604 183.707 56.7604C184.939 56.7604 186.679 56.3753 186.689 55.5215C186.692 55.226 186.689 54.5872 186.689 53.8464C186.684 52.3043 186.676 50.1914 186.712 49.367C186.78 47.7693 187.371 45.5497 188.219 43.7137C189.242 41.4973 190.535 39.9908 191.859 39.4726C192.554 39.2004 193.158 39.0627 193.655 39.0627C194.194 39.0627 194.609 39.2205 194.923 39.5437C195.778 40.4269 195.724 42.4067 195.675 44.1545C195.667 44.4593 195.658 44.7593 195.655 45.047C195.646 45.7786 195.583 46.5613 195.515 47.3888C195.328 49.6625 195.136 52.0135 196.014 53.8757C197.003 55.9747 198.774 56.4139 200.086 56.4139C202.809 56.4139 206.092 54.5037 207.44 52.145L207.586 52.1016C209.51 55.2044 212.984 56.9104 217.385 56.9104C219.835 56.9104 222.401 56.3505 224.611 55.3328C226.599 54.4171 232.94 49.9471 232.476 46.7329L232.467 46.7268ZM188.991 25.4824C189.06 25.47 189.128 25.4654 189.193 25.4654C190.013 25.4654 190.42 26.3842 190.52 27.1699C190.733 28.8435 189.336 30.7351 188.728 31.4698C187.906 32.4613 187.114 33.0908 186.73 33.264C186.727 33.1078 186.723 32.9454 186.718 32.7799C186.653 30.2108 186.556 26.3316 188.99 25.4824H188.991ZM156.336 37.6444C156.57 37.6444 156.815 37.6583 157.063 37.6877C157.926 37.7882 158.723 38.5631 159.044 39.6164C159.293 40.4347 159.263 41.5669 158.429 42.2861C158.028 42.6326 156.997 43.2265 155.687 43.259H150.883C151.902 39.4819 153.687 37.6444 156.334 37.6444H156.336Z" fill="var(--fill-0, #262625)"/>
</g>
</g>
</svg>
