<svg preserveAspectRatio="none" width="100%" height="100%" overflow="visible" style="display: block;" viewBox="0 0 23 22" fill="none" xmlns="http://www.w3.org/2000/svg">
<path id="Vector" d="M17.1055 10V5C17.1055 4.46957 16.8948 3.96086 16.5197 3.58579C16.1446 3.21071 15.6359 3 15.1055 3C14.575 3 14.0663 3.21071 13.6913 3.58579C13.3162 3.96086 13.1055 4.46957 13.1055 5M13.1055 9V3C13.1055 2.46957 12.8948 1.96086 12.5197 1.58579C12.1446 1.21071 11.6359 1 11.1055 1C10.575 1 10.0663 1.21071 9.69126 1.58579C9.31618 1.96086 9.10547 2.46957 9.10547 3V5M9.10547 5V9.5M9.10547 5C9.10547 4.46957 8.89476 3.96086 8.51968 3.58579C8.14461 3.21071 7.6359 3 7.10547 3C6.57504 3 6.06633 3.21071 5.69126 3.58579C5.31618 3.96086 5.10547 4.46957 5.10547 5V13M17.1056 7C17.1056 6.46957 17.3163 5.96086 17.6914 5.58579C18.0664 5.21071 18.5751 5 19.1056 5C19.636 5 20.1447 5.21071 20.5198 5.58579C20.8949 5.96086 21.1056 6.46957 21.1056 7V13C21.1056 15.1217 20.2627 17.1566 18.7624 18.6569C17.2621 20.1571 15.2273 21 13.1056 21H11.1056C8.30557 21 6.60557 20.14 5.11557 18.66L1.51557 15.06C1.17151 14.6789 0.987159 14.1802 1.0007 13.6669C1.01423 13.1537 1.22462 12.6653 1.58829 12.303C1.95197 11.9406 2.44107 11.7319 2.95434 11.7202C3.46761 11.7085 3.96574 11.8946 4.34557 12.24L6.10557 14" stroke="var(--stroke-0, #262625)" stroke-width="2" stroke-linecap="round" stroke-linejoin="round"/>
</svg>
