<svg preserveAspectRatio="none" width="100%" height="100%" overflow="visible" style="display: block;" viewBox="0 0 22 20" fill="none" xmlns="http://www.w3.org/2000/svg">
<path id="Vector" d="M5 14V14.01M5 10V10.01M17 14V14.01M17 10V10.01M13 19V14C13 13.4696 12.7893 12.9609 12.4142 12.5858C12.0391 12.2107 11.5304 12 11 12C10.4696 12 9.96086 12.2107 9.58579 12.5858C9.21071 12.9609 9 13.4696 9 14V19M12 7C12 7.55228 11.5523 8 11 8C10.4477 8 10 7.55228 10 7C10 6.44772 10.4477 6 11 6C11.5523 6 12 6.44772 12 7ZM21 17V5H17L11 1L5 5H1V17C1 17.5304 1.21071 18.0391 1.58579 18.4142C1.96086 18.7893 2.46957 19 3 19H19C19.5304 19 20.0391 18.7893 20.4142 18.4142C20.7893 18.0391 21 17.5304 21 17Z" stroke="var(--stroke-0, #262625)" stroke-width="2" stroke-linecap="round" stroke-linejoin="round"/>
</svg>
