<svg preserveAspectRatio="none" width="100%" height="100%" overflow="visible" style="display: block;" viewBox="0 0 21 22" fill="none" xmlns="http://www.w3.org/2000/svg">
<path id="Vector" d="M1 9H19V5C19 4.46957 18.7893 3.96086 18.4142 3.58579C18.0391 3.21071 17.5304 3 17 3H3C2.46957 3 1.96086 3.21071 1.58579 3.58579C1.21071 3.96086 1 4.46957 1 5V19C1 19.5304 1.21071 20.0391 1.58579 20.4142C1.96086 20.7893 2.46957 21 3 21H10M6 1V5M14 1V5M19.29 13.6999C18.9493 13.3609 18.5156 13.1305 18.0439 13.0379C17.5722 12.9453 17.0837 12.9948 16.64 13.1799C16.34 13.2999 16.07 13.4799 15.84 13.7099L15.5 14.0499L15.15 13.7099C14.8104 13.3692 14.3773 13.1369 13.9055 13.0426C13.4338 12.9482 12.9446 12.996 12.5 13.1799C12.2 13.2999 11.94 13.4799 11.71 13.7099C10.76 14.6499 10.71 16.2399 11.91 17.4499L15.5 20.9999L19.1 17.4499C20.3 16.2399 20.24 14.6499 19.29 13.7099V13.6999Z" stroke="var(--stroke-0, #262625)" stroke-width="2" stroke-linecap="round" stroke-linejoin="round"/>
</svg>
