<svg preserveAspectRatio="none" width="100%" height="100%" overflow="visible" style="display: block;" viewBox="0 0 22 22" fill="none" xmlns="http://www.w3.org/2000/svg">
<path id="Vector" d="M1.00293 1L21.0029 21M4.78497 4.78198C3.39124 5.50262 2.28002 6.6706 1.62966 8.09847C0.979307 9.52635 0.82752 11.1313 1.19866 12.6558C1.56981 14.1803 2.44236 15.5359 3.67629 16.505C4.91021 17.4742 6.43396 18.0006 8.00297 18H16.503C16.9458 18.0003 17.3862 17.9353 17.81 17.807M20.5349 15.5001C20.8754 14.8139 21.035 14.0522 20.9988 13.2872C20.9625 12.5221 20.7316 11.7789 20.3278 11.128C19.9241 10.4771 19.3609 9.94003 18.6915 9.56766C18.0222 9.19528 17.2689 8.99992 16.5029 9.00007H14.7129C14.3304 7.71934 13.5896 6.57472 12.5779 5.70121C11.5662 4.82769 10.3258 4.26173 9.00293 4.07007" stroke="var(--stroke-0, #262625)" stroke-width="2" stroke-linecap="round" stroke-linejoin="round"/>
</svg>
