<svg preserveAspectRatio="none" width="100%" height="100%" overflow="visible" style="display: block;" viewBox="0 0 22 22" fill="none" xmlns="http://www.w3.org/2000/svg">
<path id="Vector" d="M8.17004 13.83C8.72963 14.389 9.44237 14.7695 10.2182 14.9235C10.994 15.0774 11.798 14.998 12.5287 14.6951C13.2593 14.3922 13.8838 13.8795 14.3231 13.2218C14.7624 12.5641 14.9969 11.7909 14.9969 11C14.9969 10.2091 14.7624 9.43588 14.3231 8.77818C13.8838 8.12048 13.2593 7.60779 12.5287 7.30491C11.798 7.00203 10.994 6.92255 10.2182 7.07654C9.44237 7.23052 8.72963 7.61104 8.17004 8.17M21 11C21 16.5228 16.5228 21 11 21C5.47715 21 1 16.5228 1 11C1 5.47715 5.47715 1 11 1C16.5228 1 21 5.47715 21 11Z" stroke="var(--stroke-0, #262625)" stroke-width="2" stroke-linecap="round" stroke-linejoin="round"/>
</svg>
