<svg preserveAspectRatio="none" width="100%" height="100%" overflow="visible" style="display: block;" viewBox="0 0 22 22" fill="none" xmlns="http://www.w3.org/2000/svg">
<path id="Vector" d="M21 10V19C21 19.5304 20.7893 20.0391 20.4142 20.4142C20.0391 20.7893 19.5304 21 19 21H3C2.46957 21 1.96086 20.7893 1.58579 20.4142C1.21071 20.0391 1 19.5304 1 19V10M21 10H1M21 10V8M1 10V8M17 10V3M17 3H5M17 3V1M5 3V10M5 3V1M14 21V17C14 16.2044 13.6839 15.4413 13.1213 14.8787C12.5587 14.3161 11.7956 14 11 14C10.2044 14 9.44129 14.3161 8.87868 14.8787C8.31607 15.4413 8 16.2044 8 17V21M9 3V1M13 3V1" stroke="var(--stroke-0, #262625)" stroke-width="2" stroke-linecap="round" stroke-linejoin="round"/>
</svg>
