<svg preserveAspectRatio="none" width="100%" height="100%" overflow="visible" style="display: block;" viewBox="0 0 20 22" fill="none" xmlns="http://www.w3.org/2000/svg">
<path id="Vector" d="M11.2344 19.2513L19.0004 11.2993M14.0005 4.99915L5.58651 13.5851C5.21157 13.9602 5.00094 14.4688 5.00094 14.9991C5.00094 15.5295 5.21157 16.0381 5.58651 16.4131C5.96156 16.7881 6.47018 16.9987 7.00051 16.9987C7.53084 16.9987 8.03945 16.7881 8.41451 16.4131L16.8285 7.82715C17.5784 7.07703 17.9997 6.0598 17.9997 4.99915C17.9997 3.93849 17.5784 2.92126 16.8285 2.17115C16.0784 1.42126 15.0612 1 14.0005 1C12.9399 1 11.9226 1.42126 11.1725 2.17115L2.75751 10.7561C1.63219 11.8815 1 13.4077 1 14.9991C1 16.5906 1.63219 18.1168 2.75751 19.2421C3.88282 20.3675 5.40907 20.9997 7.00051 20.9997C8.59194 20.9997 10.1182 20.3675 11.2435 19.2421" stroke="var(--stroke-0, #262625)" stroke-width="2" stroke-linecap="round" stroke-linejoin="round"/>
</svg>
