<svg preserveAspectRatio="none" width="100%" height="100%" overflow="visible" style="display: block;" viewBox="0 0 22 22" fill="none" xmlns="http://www.w3.org/2000/svg">
<path id="Vector" d="M1 11H4M4 11C4 9.1 4.83 7.39011 6.11 6.11011M4 11C4 14.87 7.13 18 11 18M18 11H21M18 11C18 11.67 17.9 12.33 17.71 12.96M18 11C18 7.13 14.87 4 11 4M11 1V4M11 4C10.33 4 9.67004 4.1 9.04004 4.29M11 18V21M11 18C12.9 18 14.61 17.1701 15.89 15.8901M1 1L21 21" stroke="var(--stroke-0, #262625)" stroke-width="2" stroke-linecap="round" stroke-linejoin="round"/>
</svg>
