<svg preserveAspectRatio="none" width="100%" height="100%" overflow="visible" style="display: block;" viewBox="0 0 22 22" fill="none" xmlns="http://www.w3.org/2000/svg">
<path id="Vector" d="M16.5999 5.49194C16.8419 5.07253 16.9788 4.60076 16.9989 4.11694M5.00366 4.11694C5.02344 4.60068 5.15999 5.07244 5.40166 5.49194M2.47778 9.88794C2.66072 9.73895 2.85649 9.60643 3.06278 9.49194M18.9387 9.49194C19.145 9.60643 19.3408 9.73895 19.5237 9.88794M5.00069 16.9918C4.31152 16.9922 3.63396 16.8144 3.03369 16.4758M18.9677 16.4758C18.3675 16.8144 17.6899 16.9922 17.0007 16.9918M14.7008 9.39185L13.8008 9.79185M8.20078 12.1919L7.30078 12.5919M12.6007 14.692L12.2007 13.792M9.80064 8.19199L9.40064 7.29199M14.7008 12.492L13.8008 12.092M8.20078 9.89194L7.30078 9.49194M9.50073 14.692L9.90073 13.792M12.1008 8.19199L12.5008 7.29199M11.0008 3.99189C10.9997 3.59263 10.919 3.1976 10.7632 2.82996C10.6075 2.46232 10.38 2.12946 10.094 1.85089C9.80796 1.57231 9.46921 1.35364 9.09759 1.20767C8.72597 1.06171 8.32895 0.991389 7.9298 1.00084C7.53065 1.01029 7.13741 1.09932 6.77311 1.26271C6.40882 1.4261 6.0808 1.66057 5.80829 1.95236C5.53578 2.24416 5.32425 2.58742 5.18611 2.96202C5.04797 3.33662 4.98599 3.73502 5.00381 4.13389C4.41601 4.28502 3.87031 4.56794 3.40804 4.9612C2.94577 5.35446 2.57905 5.84776 2.33565 6.40373C2.09225 6.95971 1.97857 7.56378 2.0032 8.1702C2.02783 8.77662 2.19013 9.36948 2.47781 9.90388C1.97199 10.3148 1.57423 10.8431 1.31915 11.4428C1.06406 12.0425 0.959365 12.6955 1.01417 13.3449C1.06898 13.9943 1.28162 14.6204 1.63361 15.1689C1.9856 15.7174 2.46627 16.1715 3.03381 16.4919C2.91026 17.4477 3.13598 18.416 3.66944 19.2187C4.2029 20.0214 5.00823 20.6044 5.93732 20.8607C6.86641 21.1169 7.85677 21.0291 8.72627 20.6133C9.59577 20.1976 10.2859 19.4819 10.6698 18.5979C10.7406 18.4211 10.7955 18.2384 10.8338 18.0519C10.8618 17.9219 11.1398 17.9219 11.1688 18.0519C11.2068 18.2384 11.2613 18.4211 11.3318 18.5979C11.7157 19.4819 12.4058 20.1976 13.2753 20.6133C14.1448 21.0291 15.1352 21.1169 16.0643 20.8607C16.9934 20.6044 17.7987 20.0214 18.3322 19.2187C18.8656 18.416 19.0914 17.4477 18.9678 16.4919C19.5353 16.1715 20.016 15.7174 20.368 15.1689C20.72 14.6204 20.9326 13.9943 20.9874 13.3449C21.0423 12.6955 20.9376 12.0425 20.6825 11.4428C20.4274 10.8431 20.0296 10.3148 19.5238 9.90388C19.8115 9.36948 19.9738 8.77662 19.9984 8.1702C20.023 7.56378 19.9094 6.95971 19.666 6.40373C19.4226 5.84776 19.0558 5.35446 18.5936 4.9612C18.1313 4.56794 17.5856 4.28502 16.9978 4.13389C17.0156 3.73502 16.9536 3.33662 16.8155 2.96202C16.6774 2.58742 16.4658 2.24416 16.1933 1.95236C15.9208 1.66057 15.5928 1.4261 15.2285 1.26271C14.8642 1.09932 14.471 1.01029 14.0718 1.00084C13.6727 0.991389 13.2756 1.06171 12.904 1.20767C12.5324 1.35364 12.1937 1.57231 11.9076 1.85089C11.6216 2.12946 11.3941 2.46232 11.2384 2.82996C11.0827 3.1976 11.0019 3.59263 11.0008 3.99189ZM14.0007 10.9919C14.0007 12.6488 12.6576 13.9919 11.0007 13.9919C9.34388 13.9919 8.00073 12.6488 8.00073 10.9919C8.00073 9.33509 9.34388 7.99194 11.0007 7.99194C12.6576 7.99194 14.0007 9.33509 14.0007 10.9919Z" stroke="var(--stroke-0, #262625)" stroke-width="2" stroke-linecap="round" stroke-linejoin="round"/>
</svg>
