<svg preserveAspectRatio="none" width="100%" height="100%" overflow="visible" style="display: block;" viewBox="0 0 21 21" fill="none" xmlns="http://www.w3.org/2000/svg">
<path id="Vector" d="M12.5 1.1C12 1.1 11.5 1 11 1C10.5 1 10 1.1 9.50003 1.1M18.3 4.79995C17.7035 4.00355 16.9964 3.29641 16.2 2.69995M19.9001 11.5C20.0001 11 20.0001 10.5 20.0001 10C20.0001 9.5 19.9001 9 19.9001 8.5M16.2 17.2999C16.9964 16.7035 17.7035 15.9964 18.3 15.2M9.50003 18.8999C10 18.9999 10.5 18.9999 11 18.9999C11.5 18.9999 12 18.8999 12.5 18.8999M2.50003 15.5L1.00003 20L5.50003 18.5M2.10003 8.5C2.10003 9 2.00003 9.5 2.00003 10C2.00003 10.5 2.10003 11 2.10003 11.5M5.79998 2.69995C5.00357 3.29641 4.29643 4.00355 3.69998 4.79995" stroke="var(--stroke-0, #262625)" stroke-width="2" stroke-linecap="round" stroke-linejoin="round"/>
</svg>
