<svg preserveAspectRatio="none" width="100%" height="100%" overflow="visible" style="display: block;" viewBox="0 0 22 22" fill="none" xmlns="http://www.w3.org/2000/svg">
<path id="Vector" d="M11.75 6.09058C12.2705 6.22417 12.7455 6.4951 13.1255 6.87507C13.5055 7.25504 13.7764 7.73009 13.91 8.25058M16.072 16.0724C14.438 18.2424 12.545 19.9844 11.601 20.7994C11.4277 20.9297 11.2168 21.0001 11 21.0001C10.7832 21.0001 10.5723 20.9297 10.399 20.7994C8.539 19.1934 3 13.9934 3 9.00037C2.99988 7.36723 3.4996 5.77318 4.432 4.43237M1 1.00049L21 21.0005M7.4751 1.81847C8.6948 1.21979 10.0469 0.941622 11.4039 1.0102C12.7608 1.07877 14.078 1.49183 15.2311 2.21043C16.3843 2.92902 17.3354 3.92947 17.9948 5.11744C18.6542 6.30542 19.0002 7.64176 19.0001 9.00047C19.0001 10.1835 18.6901 11.3775 18.1901 12.5335M8.12992 8.13037C7.97277 8.64997 7.95956 9.20246 8.09168 9.72898C8.2238 10.2555 8.4963 10.7363 8.88014 11.1201C9.26399 11.504 9.74479 11.7765 10.2713 11.9086C10.7978 12.0407 11.3503 12.0275 11.8699 11.8704" stroke="var(--stroke-0, #262625)" stroke-width="2" stroke-linecap="round" stroke-linejoin="round"/>
</svg>
