<svg preserveAspectRatio="none" width="100%" height="100%" overflow="visible" style="display: block;" viewBox="0 0 22 22" fill="none" xmlns="http://www.w3.org/2000/svg">
<path id="Vector" d="M19.9999 7L17.7399 4.74C15.9309 2.99122 13.5159 2.00947 10.9999 2C9.99988 2 9.02988 2.16 8.12988 2.47M19.9999 7L20 2M19.9999 7H15M7 15H2M2 15V20M2 15L4.26 17.26C6.06897 19.0088 8.48395 19.9905 11 20C13.49 20 15.74 19 17.36 17.36M2 10.9999C2 8.50989 3 6.25989 4.64 4.63989M20 11C20 12 19.84 12.97 19.53 13.87M21 21L1 1" stroke="var(--stroke-0, #262625)" stroke-width="2" stroke-linecap="round" stroke-linejoin="round"/>
</svg>
