<svg preserveAspectRatio="none" width="100%" height="100%" overflow="visible" style="display: block;" viewBox="0 0 21 22" fill="none" xmlns="http://www.w3.org/2000/svg">
<path id="Vector" d="M11.0032 5.00366V11.0037L15.0032 13.0037M15.0032 20.1638C13.2058 20.949 11.2171 21.1882 9.28474 20.8518C7.35236 20.5154 5.56158 19.6181 4.1353 18.2716C2.70901 16.9251 1.7102 15.1889 1.26317 13.2791C0.816143 11.3692 0.940644 9.37009 1.62118 7.53048C2.30171 5.69086 3.50822 4.092 5.09055 2.93289C6.67288 1.77377 8.56115 1.1056 10.5203 1.01151C12.4795 0.917431 14.4231 1.4016 16.1093 2.40376C17.7954 3.40592 19.1495 4.88181 20.0032 6.64775M19.0032 10.5037V16.5037M19.0032 20.5037H19.0132" stroke="var(--stroke-0, #262625)" stroke-width="2" stroke-linecap="round" stroke-linejoin="round"/>
</svg>
