<svg preserveAspectRatio="none" width="100%" height="100%" overflow="visible" style="display: block;" viewBox="0 0 22 22" fill="none" xmlns="http://www.w3.org/2000/svg">
<path id="Vector" d="M14 1V3M14 19V21M1 14H3M1 8H3M19 14H21M19 8H21M8 1V3M8 19V21M5 3H17C18.1046 3 19 3.89543 19 5V17C19 18.1046 18.1046 19 17 19H5C3.89543 19 3 18.1046 3 17V5C3 3.89543 3.89543 3 5 3ZM9 8H13C13.5523 8 14 8.44772 14 9V13C14 13.5523 13.5523 14 13 14H9C8.44772 14 8 13.5523 8 13V9C8 8.44772 8.44772 8 9 8Z" stroke="var(--stroke-0, #262625)" stroke-width="2" stroke-linecap="round" stroke-linejoin="round"/>
</svg>
