<svg preserveAspectRatio="none" width="100%" height="100%" overflow="visible" style="display: block;" viewBox="0 0 22 22" fill="none" xmlns="http://www.w3.org/2000/svg">
<path id="Vector" d="M8.5 13.5L15 7M1 21V16L6 11L11 16L6 21H1ZM16 1L21 6L20.5 6.5C20.1721 6.82896 19.7824 7.08997 19.3534 7.26807C18.9244 7.44616 18.4645 7.53783 18 7.53783C17.5355 7.53783 17.0756 7.44616 16.6466 7.26807C16.2176 7.08997 15.8279 6.82896 15.5 6.5C15.171 6.17207 14.91 5.78243 14.7319 5.35343C14.5538 4.92443 14.4622 4.4645 14.4622 4C14.4622 3.5355 14.5538 3.07557 14.7319 2.64657C14.91 2.21757 15.171 1.82793 15.5 1.5L16 1Z" stroke="var(--stroke-0, #262625)" stroke-width="2" stroke-linecap="round" stroke-linejoin="round"/>
</svg>
