<svg preserveAspectRatio="none" width="100%" height="100%" overflow="visible" style="display: block;" viewBox="0 0 22 22" fill="none" xmlns="http://www.w3.org/2000/svg">
<path id="Vector" d="M4.34571 9.62473C4.60935 10.218 5.01343 10.7382 5.52307 11.1404C6.03271 11.5426 6.63258 11.8147 7.27089 11.9332C7.9092 12.0517 8.56676 12.013 9.1868 11.8206C9.80684 11.6281 10.3707 11.2876 10.8297 10.8285C11.2888 10.3694 11.6291 9.80548 11.8215 9.18541C12.0138 8.56533 12.0523 7.90776 11.9337 7.26948C11.8151 6.63119 11.5429 6.03137 11.1406 5.52181C10.7383 5.01224 10.218 4.60826 9.62471 4.34473M9.16961 5.60261C8.95861 6.48261 8.64461 7.36461 8.00461 8.00461C7.36461 8.64461 6.48361 8.95861 5.60261 9.16961C4.17317 9.51194 2.91911 10.3671 2.07839 11.5728C1.23767 12.7784 0.868765 14.2508 1.04168 15.7104C1.21459 17.1701 1.91729 18.5155 3.01645 19.4914C4.11561 20.4673 5.53475 21.0057 7.00461 21.0046C14.7366 21.0046 21.0046 14.7366 21.0046 7.00461C21.0057 5.53475 20.4673 4.11561 19.4914 3.01645C18.5155 1.91729 17.1701 1.21459 15.7104 1.04168C14.2508 0.868765 12.7784 1.23767 11.5728 2.07839C10.3671 2.91911 9.51194 4.17317 9.16961 5.60261Z" stroke="var(--stroke-0, #262625)" stroke-width="2" stroke-linecap="round" stroke-linejoin="round"/>
</svg>
