<svg preserveAspectRatio="none" width="100%" height="100%" overflow="visible" style="display: block;" viewBox="0 0 21 21" fill="none" xmlns="http://www.w3.org/2000/svg">
<path id="Vector" d="M8.08999 7.0079C8.3251 6.33956 8.78915 5.776 9.39995 5.41703C10.0108 5.05805 10.7289 4.92683 11.4272 5.04661C12.1255 5.16638 12.7588 5.52942 13.2151 6.07142C13.6713 6.61343 13.921 7.29942 13.92 8.0079C13.92 10.0079 10.92 11.0079 10.92 11.0079M11 15.0078H11.01M6.90003 18.0079C8.80861 18.9869 11.0041 19.2521 13.0909 18.7556C15.1777 18.2592 17.0186 17.0337 18.2818 15.3C19.545 13.5664 20.1474 11.4386 19.9806 9.30002C19.8138 7.16147 18.8886 5.15283 17.3718 3.63605C15.8551 2.11928 13.8464 1.19411 11.7079 1.02728C9.56932 0.860442 7.4415 1.46291 5.70785 2.72611C3.9742 3.98931 2.74872 5.83017 2.25225 7.91697C1.75578 10.0038 2.02097 12.1993 3.00003 14.1079L1.00003 20.0079L6.90003 18.0079Z" stroke="var(--stroke-0, #262625)" stroke-width="2" stroke-linecap="round" stroke-linejoin="round"/>
</svg>
