<svg preserveAspectRatio="none" width="100%" height="100%" overflow="visible" style="display: block;" viewBox="0 0 22 21" fill="none" xmlns="http://www.w3.org/2000/svg">
<path id="Vector" d="M9.3 18.0001H3C2.46957 18.0001 1.96086 17.7894 1.58579 17.4143C1.21071 17.0392 1 16.5305 1 16.0001V3.0001C1 2.46966 1.21071 1.96096 1.58579 1.58588C1.96086 1.21081 2.46957 1.0001 3 1.0001H6.9C7.23449 0.996817 7.56445 1.07748 7.8597 1.23472C8.15495 1.39195 8.40604 1.62072 8.59 1.9001L9.4 3.1001C9.58211 3.37663 9.83003 3.60362 10.1215 3.7607C10.413 3.91778 10.7389 4.00004 11.07 4.0001H19C19.5304 4.0001 20.0391 4.21081 20.4142 4.58588C20.7893 4.96096 21 5.46966 21 6.0001V9.3001M20.7001 17.4001L19.8 17.1001M14.2 14.9001L13.3 14.6001M15.6001 19.7001L15.9001 18.8M18.1001 13.2L18.4001 12.3M18.6 19.7L18.2 18.7M15.7999 13.3L15.3999 12.3M13.3 17.6L14.3 17.2M19.7 14.7999L20.7 14.3999M20 16C20 17.6569 18.6569 19 17 19C15.3431 19 14 17.6569 14 16C14 14.3431 15.3431 13 17 13C18.6569 13 20 14.3431 20 16Z" stroke="var(--stroke-0, #262625)" stroke-width="2" stroke-linecap="round" stroke-linejoin="round"/>
</svg>
