<svg preserveAspectRatio="none" width="100%" height="100%" overflow="visible" style="display: block;" viewBox="0 0 23 23" fill="none" xmlns="http://www.w3.org/2000/svg">
<path id="Vector" d="M9.40967 20.9145C11.3324 21.2305 13.3056 20.9778 15.0867 20.1875C16.8678 19.3973 18.3792 18.1039 19.4352 16.4663C20.4912 14.8287 21.0458 12.9183 21.0307 10.9698C21.0157 9.0213 20.4318 7.11965 19.3507 5.49854M12.5096 1.11461C10.5947 0.822184 8.63608 1.09222 6.87175 1.8919C5.10742 2.69159 3.61333 3.98649 2.57103 5.61926C1.52872 7.25204 0.983081 9.15239 1.0004 11.0894C1.01772 13.0264 1.59725 14.9167 2.66859 16.5306M14.0096 11.0146C14.0096 12.6715 12.6665 14.0146 11.0096 14.0146C9.35279 14.0146 8.00964 12.6715 8.00964 11.0146C8.00964 9.35779 9.35279 8.01465 11.0096 8.01465C12.6665 8.01465 14.0096 9.35779 14.0096 11.0146ZM20.0096 4.01465C20.0096 5.11922 19.1142 6.01465 18.0096 6.01465C16.9051 6.01465 16.0096 5.11922 16.0096 4.01465C16.0096 2.91008 16.9051 2.01465 18.0096 2.01465C19.1142 2.01465 20.0096 2.91008 20.0096 4.01465ZM6.00964 18.0146C6.00964 19.1192 5.11421 20.0146 4.00964 20.0146C2.90507 20.0146 2.00964 19.1192 2.00964 18.0146C2.00964 16.9101 2.90507 16.0146 4.00964 16.0146C5.11421 16.0146 6.00964 16.9101 6.00964 18.0146Z" stroke="var(--stroke-0, #262625)" stroke-width="2" stroke-linecap="round" stroke-linejoin="round"/>
</svg>
