<svg preserveAspectRatio="none" width="100%" height="100%" overflow="visible" style="display: block;" viewBox="0 0 23 23" fill="none" xmlns="http://www.w3.org/2000/svg">
<path id="Vector" d="M3.925 15.2C0.025 11.3 0.025 4.9 3.925 1M6.82505 3.80005C5.87635 4.78303 5.28257 6.05432 5.13767 7.41273C4.99277 8.77114 5.30504 10.1391 6.02505 11.3M11.025 10.1001C12.1296 10.1001 13.025 9.20467 13.025 8.1001C13.025 6.99553 12.1296 6.1001 11.025 6.1001C9.92045 6.1001 9.02502 6.99553 9.02502 8.1001C9.02502 9.20467 9.92045 10.1001 11.025 10.1001ZM11.025 10.1001L7.02502 21.1001M11.025 10.1001L15.025 21.1001M15.225 3.90015C17.225 5.90015 17.485 9.01015 16.025 11.3701M18.1251 1C19.0522 1.92514 19.7876 3.02402 20.2894 4.23376C20.7913 5.44349 21.0496 6.74032 21.0496 8.05C21.0496 9.35968 20.7913 10.6565 20.2894 11.8662C19.7876 13.076 19.0522 14.1749 18.1251 15.1M8.52502 17.1001H13.525" stroke="var(--stroke-0, #262625)" stroke-width="2" stroke-linecap="round" stroke-linejoin="round"/>
</svg>
