<svg preserveAspectRatio="none" width="100%" height="100%" overflow="visible" style="display: block;" viewBox="0 0 22 20" fill="none" xmlns="http://www.w3.org/2000/svg">
<path id="Vector" d="M8.85543 10.2795L2.67543 11.5975C2.43555 11.6496 2.18482 11.6051 1.97747 11.4738C1.77012 11.3424 1.62282 11.1347 1.56743 10.8955L1.03043 8.74553C0.9673 8.48649 1.00315 8.21321 1.13097 7.97922C1.25878 7.74523 1.46935 7.56739 1.72143 7.48053L15.2254 3.04053M12.3506 9.53362L16.6826 8.60962M14.7905 18.7867L11.6855 12.5767M4.94849 6.41968L6.06249 10.8757M6.79053 18.7867L9.89553 12.5767M15.2755 3.72674C15.1469 3.21222 15.228 2.66772 15.5008 2.21296C15.7737 1.75821 16.216 1.43044 16.7305 1.30174L17.8205 1.02974C18.0776 0.9656 18.3497 1.00614 18.5769 1.14245C18.8042 1.27876 18.968 1.4997 19.0325 1.75674L20.5475 7.81674C20.6119 8.074 20.5715 8.34632 20.4352 8.5738C20.2988 8.80128 20.0777 8.96529 19.8205 9.02974L18.7305 9.30174C18.216 9.43029 17.6714 9.34922 17.2167 9.07637C16.7619 8.80352 16.4342 8.36122 16.3055 7.84674L15.2755 3.72674ZM12.7905 10.7866C12.7905 11.8912 11.8951 12.7866 10.7905 12.7866C9.68596 12.7866 8.79053 11.8912 8.79053 10.7866C8.79053 9.68205 9.68596 8.78662 10.7905 8.78662C11.8951 8.78662 12.7905 9.68205 12.7905 10.7866Z" stroke="var(--stroke-0, #262625)" stroke-width="2" stroke-linecap="round" stroke-linejoin="round"/>
</svg>
