<svg preserveAspectRatio="none" width="100%" height="100%" overflow="visible" style="display: block;" viewBox="0 0 22 22" fill="none" xmlns="http://www.w3.org/2000/svg">
<path id="Vector" d="M12.2283 20.9243C10.1991 21.1754 8.14173 20.7985 6.33336 19.8443C4.52499 18.8902 3.05257 17.4046 2.11451 15.5878C1.17646 13.771 0.817865 11.7103 1.08705 9.68348C1.35624 7.65661 2.24027 5.76096 3.62001 4.252C4.99975 2.74304 6.80889 1.69328 8.80362 1.24419C10.7984 0.795104 12.8828 0.968271 14.7761 1.74036C16.6694 2.51244 18.2805 3.84634 19.3923 5.56229C20.5042 7.27824 21.0633 9.29378 20.9943 11.3373M11.0004 4.99927V10.9993L12.5624 11.7803M13.0004 16.9993L17.0004 12.9993M17.0004 12.9993L21.0004 16.9993M17.0004 12.9993V20.9993" stroke="var(--stroke-0, #262625)" stroke-width="2" stroke-linecap="round" stroke-linejoin="round"/>
</svg>
