<svg preserveAspectRatio="none" width="100%" height="100%" overflow="visible" style="display: block;" viewBox="0 0 35 50" fill="none" xmlns="http://www.w3.org/2000/svg">
<path id="Vector" d="M19.5306 15.9723C16.5251 15.9723 13.656 16.7071 11.225 18.1017L7.70236 20.3738C7.7634 18.9756 7.79213 15.184 7.82085 11.2035C7.84958 7.35126 7.8819 3.3671 7.93935 1.4089C7.96449 0.634898 7.14218 0.33885 6.52456 0.181909C6.05775 0.0642032 5.34317 0 4.51369 0C3.6842 0 2.7829 0.0713369 2.20478 0.19261C0.779213 0.485091 0.0789985 0.859609 0.114907 1.28406L0 48.1238C0 48.1524 0.00718168 48.1809 0.0179542 48.2059C0.326767 48.9478 2.82599 49.3437 4.5101 49.3437C5.48322 49.3437 7.19605 49.2224 7.75263 48.4021C7.77776 48.3628 7.79213 48.3164 7.78854 48.2701L7.69876 45.9445C9.33619 47.7993 12.9701 49.6683 14.9882 49.868C15.8679 49.9572 16.7405 50 17.5808 50C23.8396 50 28.9781 47.521 32.0411 43.0197C35.7289 37.6052 35.9874 30.0471 32.7162 23.295C30.5257 18.7759 25.4734 15.9688 19.527 15.9688L19.5306 15.9723ZM23.9581 40.2233C22.1447 42.1101 19.5593 43.1089 16.482 43.1089C15.8248 43.1089 15.139 43.0625 14.446 42.9733C11.6451 42.6095 9.58037 40.8832 8.63238 38.1153C7.22836 34.017 8.53184 28.6453 11.5948 25.8881C13.6057 24.0798 15.9218 23.1238 18.2917 23.1238C22.6798 23.1238 26.0946 26.416 26.5902 31.1314C26.978 34.8231 26.0444 38.0511 23.9617 40.2197L23.9581 40.2233Z" fill="var(--fill-0, #262625)"/>
</svg>
