<svg preserveAspectRatio="none" width="100%" height="100%" overflow="visible" style="display: block;" viewBox="0 0 21 17" fill="none" xmlns="http://www.w3.org/2000/svg">
<path id="Vector" d="M18.387 12V3C18.387 2.46957 18.1763 1.96086 17.8012 1.58579C17.4261 1.21071 16.9174 1 16.387 1H4.38698C3.85655 1 3.34784 1.21071 2.97277 1.58579C2.5977 1.96086 2.38698 2.46957 2.38698 3V12M18.387 12H2.38698M18.387 12L19.667 14.55C19.7441 14.703 19.7806 14.8732 19.773 15.0444C19.7654 15.2155 19.714 15.3818 19.6236 15.5274C19.5333 15.6729 19.407 15.7928 19.257 15.8756C19.107 15.9584 18.9383 16.0012 18.767 16H2.00698C1.83567 16.0012 1.66693 15.9584 1.51693 15.8756C1.36693 15.7928 1.2407 15.6729 1.15036 15.5274C1.06002 15.3818 1.00858 15.2155 1.00098 15.0444C0.993388 14.8732 1.02989 14.703 1.10698 14.55L2.38698 12" stroke="var(--stroke-0, #262625)" stroke-width="2" stroke-linecap="round" stroke-linejoin="round"/>
</svg>
