<svg preserveAspectRatio="none" width="100%" height="100%" overflow="visible" style="display: block;" viewBox="0 0 22 20" fill="none" xmlns="http://www.w3.org/2000/svg">
<path id="Vector" d="M3.19546 13.0908C2.41468 12.3539 1.81385 11.4473 1.43945 10.4411C1.06505 9.43495 0.92711 8.35612 1.0363 7.28809C1.14548 6.22006 1.49887 5.19146 2.06913 4.28184C2.63939 3.37221 3.41123 2.60595 4.32497 2.04231C5.2387 1.47866 6.26984 1.13275 7.33864 1.03131C8.40743 0.92988 9.48523 1.07565 10.4887 1.45734C11.4921 1.83903 12.3944 2.44642 13.1255 3.23252C13.8567 4.01863 14.3973 4.96239 14.7055 5.99081H16.4955C17.4493 6.00367 18.3744 6.31934 19.1372 6.89223C19.9 7.46512 20.461 8.26559 20.7392 9.17809C21.0174 10.0906 20.9984 11.0679 20.685 11.9689C20.3716 12.8699 19.7799 13.648 18.9955 14.1908M14.6955 16.3908L13.7955 16.0908M8.19553 13.8908L7.29553 13.5908M9.59546 18.6908L9.89546 17.7908M12.0955 12.1908L12.3955 11.2908M12.5954 18.6907L12.1954 17.6907M9.79551 12.2908L9.39551 11.2908M7.29553 16.5907L8.29553 16.1907M13.6954 13.7906L14.6954 13.3906M13.9955 14.9907C13.9955 16.6476 12.6523 17.9907 10.9955 17.9907C9.33863 17.9907 7.99548 16.6476 7.99548 14.9907C7.99548 13.3339 9.33863 11.9907 10.9955 11.9907C12.6523 11.9907 13.9955 13.3339 13.9955 14.9907Z" stroke="var(--stroke-0, #262625)" stroke-width="2" stroke-linecap="round" stroke-linejoin="round"/>
</svg>
