<svg preserveAspectRatio="none" width="100%" height="100%" overflow="visible" style="display: block;" viewBox="0 0 20 22" fill="none" xmlns="http://www.w3.org/2000/svg">
<path id="Vector" d="M5.0001 11H18.0001C18.2653 11 18.5197 11.1054 18.7072 11.2929C18.8947 11.4804 19.0001 11.7348 19.0001 12C19.0001 13.3261 18.4733 14.5979 17.5356 15.5355C16.598 16.4732 15.3262 17 14.0001 17H13.4021C13.3128 17 13.2252 17.0239 13.1483 17.0692C13.0714 17.1145 13.008 17.1796 12.9648 17.2576C12.9215 17.3357 12.8999 17.4239 12.9023 17.5131C12.9046 17.6023 12.9308 17.6893 12.9781 17.765L14.5221 20.235C14.5694 20.3107 14.5956 20.3977 14.5979 20.4869C14.6003 20.5761 14.5787 20.6643 14.5354 20.7424C14.4922 20.8204 14.4288 20.8855 14.3519 20.9308C14.275 20.9761 14.1874 21 14.0981 21H3.4021C3.31285 21 3.22522 20.9761 3.14832 20.9308C3.07142 20.8855 3.00805 20.8204 2.96478 20.7424C2.92151 20.6643 2.89993 20.5761 2.90227 20.4869C2.90461 20.3977 2.9308 20.3107 2.9781 20.235L5.0001 17M6 17C4.67392 17 3.40215 16.4732 2.46447 15.5355C1.52678 14.5979 1 13.3261 1 12V3C1 2.46957 1.21071 1.96086 1.58579 1.58579C1.96086 1.21071 2.46957 1 3 1H11C11.5304 1 12.0391 1.21071 12.4142 1.58579C12.7893 1.96086 13 2.46957 13 3V11" stroke="var(--stroke-0, #262625)" stroke-width="2" stroke-linecap="round" stroke-linejoin="round"/>
</svg>
