<svg preserveAspectRatio="none" width="100%" height="100%" overflow="visible" style="display: block;" viewBox="0 0 20 20" fill="none" xmlns="http://www.w3.org/2000/svg">
<path id="Vector" d="M15 1H17C17.5304 1 18.0391 1.21071 18.4142 1.58579C18.7893 1.96086 19 2.46957 19 3V5M19 15V17C19 17.5304 18.7893 18.0391 18.4142 18.4142C18.0391 18.7893 17.5304 19 17 19H15M1 5V3C1 2.46957 1.21071 1.96086 1.58579 1.58579C1.96086 1.21071 2.46957 1 3 1H5M5 19H3C2.46957 19 1.96086 18.7893 1.58579 18.4142C1.21071 18.0391 1 17.5304 1 17V15M9.24607 14.657C9.33993 14.7648 9.4558 14.8512 9.58587 14.9104C9.71593 14.9695 9.85717 15.0002 10.0001 15.0002C10.143 15.0002 10.2842 14.9695 10.4143 14.9104C10.5443 14.8512 10.6602 14.7648 10.7541 14.657L14.3241 10.556C14.5682 10.2745 14.7525 9.94629 14.8659 9.59133C14.9792 9.23637 15.0193 8.86207 14.9836 8.49116C14.9479 8.12025 14.8372 7.76046 14.6582 7.43364C14.4792 7.10683 14.2356 6.81979 13.9423 6.58997C13.649 6.36015 13.312 6.19234 12.9519 6.09672C12.5917 6.0011 12.2159 5.97967 11.8472 6.03374C11.4786 6.0878 11.1247 6.21622 10.8072 6.41121C10.4896 6.60621 10.215 6.8637 10.0001 7.16805C9.78508 6.8637 9.51049 6.60621 9.19296 6.41121C8.87542 6.21622 8.52157 6.0878 8.15289 6.03374C7.78421 5.97967 7.40838 6.0011 7.04824 6.09672C6.68809 6.19234 6.35113 6.36015 6.05782 6.58997C5.7645 6.81979 5.52096 7.10683 5.34196 7.43364C5.16297 7.76046 5.05226 8.12025 5.01656 8.49116C4.98086 8.86207 5.02091 9.23637 5.13428 9.59133C5.24765 9.94629 5.43198 10.2745 5.67607 10.556L9.24607 14.657Z" stroke="var(--stroke-0, #262625)" stroke-width="2" stroke-linecap="round" stroke-linejoin="round"/>
</svg>
