<svg preserveAspectRatio="none" width="100%" height="100%" overflow="visible" style="display: block;" viewBox="0 0 22 22" fill="none" xmlns="http://www.w3.org/2000/svg">
<path id="Vector" d="M5 8H3.5C2.83696 8 2.20107 7.73661 1.73223 7.26777C1.26339 6.79893 1 6.16304 1 5.5C1 4.83696 1.26339 4.20107 1.73223 3.73223C2.20107 3.26339 2.83696 3 3.5 3H5M5 8V1H17V8M5 8C5 9.5913 5.63214 11.1174 6.75736 12.2426C7.88258 13.3679 9.4087 14 11 14C12.5913 14 14.1174 13.3679 15.2426 12.2426C16.3679 11.1174 17 9.5913 17 8M17 8H18.5C19.163 8 19.7989 7.73661 20.2678 7.26777C20.7366 6.79893 21 6.16304 21 5.5C21 4.83696 20.7366 4.20107 20.2678 3.73223C19.7989 3.26339 19.163 3 18.5 3H17M3 21H19M9 13.6599V15.9999C9 16.5499 8.53 16.9799 8.03 17.2099C6.85 17.7499 6 19.2399 6 20.9999M13 13.6599V15.9999C13 16.5499 13.47 16.9799 13.97 17.2099C15.15 17.7499 16 19.2399 16 20.9999" stroke="var(--stroke-0, #262625)" stroke-width="2" stroke-linecap="round" stroke-linejoin="round"/>
</svg>
