<svg preserveAspectRatio="none" width="100%" height="100%" overflow="visible" style="display: block;" viewBox="0 0 23 21" fill="none" xmlns="http://www.w3.org/2000/svg">
<path id="Vector" d="M11.0134 9.35071H11.0234M6.51337 1.5506C6.21337 1.0506 5.61337 0.850596 5.21337 1.1506C2.91337 2.8506 1.31337 5.4506 1.01337 8.3506C0.91337 8.8506 1.41337 9.3506 2.01337 9.3506H7.01337C7.01337 7.8506 7.81337 6.5506 9.01337 5.9506C7.91337 4.0506 7.01337 2.4506 6.51337 1.5506ZM20.0134 9.35066C20.6134 9.35066 21.0134 8.95066 21.0134 8.35066C20.7134 5.45066 19.2134 2.85066 16.9134 1.25066C16.5134 0.950658 15.8134 1.05066 15.6134 1.55066C15.0134 2.45066 14.1134 4.05066 13.0134 5.85066C14.2134 6.55066 15.0134 7.85066 15.0134 9.35066H20.0134ZM6.51334 17.1507C6.21334 17.6507 6.41334 18.2507 6.91334 18.4507C9.51334 19.6507 12.5133 19.6507 15.1133 18.4507C15.6133 18.2507 15.8133 17.6507 15.5133 17.1507C15.0133 16.2507 14.1133 14.6507 13.0133 12.8507C11.8133 13.5507 10.2133 13.5507 9.01334 12.8507C7.91334 14.6507 7.01334 16.2507 6.51334 17.1507Z" stroke="var(--stroke-0, #262625)" stroke-width="2" stroke-linecap="round" stroke-linejoin="round"/>
</svg>
