<svg preserveAspectRatio="none" width="100%" height="100%" overflow="visible" style="display: block;" viewBox="0 0 70 100" fill="none" xmlns="http://www.w3.org/2000/svg">
<path id="Vector" d="M38.8001 31.9446C32.8292 31.9446 27.1294 33.4142 22.2999 36.2035L15.3018 40.7476C15.423 37.9512 15.4801 30.3681 15.5372 22.4069C15.5942 14.7025 15.6584 6.7342 15.7726 2.81781C15.8225 1.2698 14.1889 0.6777 12.9619 0.363818C12.0345 0.128406 10.6149 0 8.96704 0C7.31916 0 5.52861 0.142674 4.38008 0.385219C1.54801 0.970181 0.156941 1.71922 0.228278 2.56813L0 96.2477C0 96.3048 0.0142674 96.3618 0.0356684 96.4118C0.649165 97.8956 5.61421 98.6874 8.95991 98.6874C10.8931 98.6874 14.2959 98.4449 15.4016 96.8041C15.4516 96.7256 15.4801 96.6329 15.473 96.5402L15.2946 91.889C18.5476 95.5985 25.7669 99.3366 29.776 99.7361C31.5238 99.9144 33.2572 100 34.9265 100C47.3605 100 57.5688 95.0421 63.6539 86.0394C70.9802 75.2104 71.4938 60.0942 64.995 46.5901C60.6434 37.5517 50.6064 31.9375 38.793 31.9375L38.8001 31.9446ZM47.5959 80.4466C43.9934 84.2203 38.8572 86.2177 32.7436 86.2177C31.4381 86.2177 30.0756 86.125 28.6988 85.9466C23.1345 85.219 19.0327 81.7663 17.1494 76.2306C14.3601 68.034 16.9496 57.2906 23.0347 51.7763C27.0295 48.1595 31.6308 46.2477 36.339 46.2477C45.0564 46.2477 51.8405 52.8321 52.8249 62.2628C53.5954 69.6462 51.7406 76.1021 47.6031 80.4394L47.5959 80.4466Z" fill="var(--fill-0, #262625)"/>
</svg>
