<svg preserveAspectRatio="none" width="100%" height="100%" overflow="visible" style="display: block;" viewBox="0 0 311 100" fill="none" xmlns="http://www.w3.org/2000/svg">
<g id="logo">
<g id="Vector">
<path d="M16.7124 42.6073C14.1397 42.6073 11.6865 43.2734 9.60442 44.5397L6.58848 46.602C6.64002 45.3337 6.66476 41.8917 6.68949 38.2765C6.71423 34.7788 6.74103 31.1615 6.79257 29.3838C6.81318 28.6806 6.11228 28.4125 5.58248 28.2722C5.18255 28.167 4.57236 28.1072 3.86115 28.1072C3.14994 28.1072 2.38101 28.1732 1.88419 28.2825C0.665857 28.5506 0.0659673 28.8909 0.0968894 29.2766L0 71.7931C0 71.8199 0.00412295 71.8446 0.0144303 71.8694C0.278299 72.5417 2.41811 72.9005 3.85909 72.9005C4.69192 72.9005 6.15969 72.7892 6.63383 72.0447C6.65651 72.0096 6.66682 71.9684 6.66682 71.9251L6.58848 69.8133C7.99029 71.4982 11.099 73.1934 12.8265 73.3749C13.579 73.4532 14.3252 73.4945 15.0447 73.4945C20.4024 73.4945 24.7975 71.2445 27.4197 67.1591C30.5758 62.2446 30.7964 55.3833 27.9969 49.2562C26.123 45.1543 21.7981 42.6073 16.7103 42.6073H16.7124ZM20.5014 64.6204C18.9512 66.3342 16.7392 67.2395 14.1026 67.2395C13.5418 67.2395 12.9543 67.1983 12.3606 67.1158C9.96312 66.7858 8.19643 65.2205 7.38627 62.7066C6.18443 58.9862 7.29969 54.1109 9.92189 51.6093C11.6432 49.9677 13.6243 49.0995 15.6507 49.0995C19.4067 49.0995 22.3258 52.0877 22.7525 56.3691C23.0865 59.7183 22.2866 62.6488 20.5014 64.6204Z" fill="var(--fill-0, #262625)"/>
<path d="M181.159 45.6183C176.974 45.6183 173.168 47.4702 170.837 50.6049L171.395 32.0813C171.395 32.0627 171.395 32.0442 171.389 32.0256C171.131 30.9862 169.385 30.9285 168.342 30.8955C168.243 30.8914 168.151 30.8893 168.072 30.8852C167.728 30.8687 167.408 30.8604 167.097 30.8604C165.087 30.8604 164.046 31.1677 163.916 31.8008C163.914 31.8111 163.912 31.8215 163.912 31.8318C163.902 32.0483 163.201 46.7649 163.104 59.3677C162.776 59.8998 162.409 60.4236 162.003 60.8835C159.692 63.4985 155.924 66.4373 154.949 66.924L154.852 56.167C154.852 55.9463 154.831 55.2493 154.805 54.282C154.722 51.3329 154.572 45.8431 154.629 43.6942C154.633 43.523 154.565 43.358 154.429 43.2178C153.809 42.5805 151.96 42.531 151.407 42.531C149.937 42.531 147.427 42.8486 147.344 44.0406C147.278 44.9913 147.334 46.4659 147.4 48.1735C147.585 53.0632 147.866 60.4545 145.497 63.7666C144.132 65.6742 142.106 66.9075 140.335 66.9075C138.414 66.9075 137.136 65.4989 136.74 62.9396L136.779 43.754C136.779 43.7395 136.779 43.723 136.775 43.7086C136.542 42.6589 134.107 42.5454 133.07 42.5454C133.033 42.5454 129.354 42.5558 129.269 43.4962C129.199 43.9499 129.259 46.1215 129.343 49.1263C129.488 54.2965 129.688 61.3764 129.267 62.8695C128.865 64.3028 127.581 65.8433 126.216 66.5363C125.925 66.6847 125.596 66.7611 125.266 66.7611C124.855 66.7611 124.46 66.6435 124.119 66.4228C123.054 65.7278 122.479 64.6245 122.307 62.9479C121.821 58.2128 122.188 52.1785 122.542 46.3442C122.714 43.523 122.876 40.8585 122.932 38.4683C122.984 36.2905 123.027 31.2193 122.897 29.3591C122.808 28.0969 120.217 28 119.426 28C117.857 28 115.515 28.3465 115.49 29.3054L115.428 45.5461C114.558 44.8016 112.266 42.9125 111.132 42.6754C109.984 42.4341 108.848 42.3124 107.755 42.3124C98.2583 42.3124 93.0922 51.1473 93.0551 59.4605C93.0551 59.7307 93.0674 60.0895 93.0839 60.471C93.1231 61.4692 93.1726 62.7107 92.9932 63.2799C92.4861 64.8864 91.845 65.3958 91.5956 65.5938C90.9276 66.1238 90.0165 66.4538 89.2166 66.4538C88.625 66.4538 87.5922 66.2579 87.3427 64.9483C86.9614 62.954 87.1139 60.5679 87.2747 58.0437C87.5839 53.2035 87.9055 48.2003 84.6607 44.8099C83.2053 43.2879 80.9686 42.4506 78.3629 42.4506C75.5882 42.4506 72.7578 43.4013 70.7911 44.9934C70.3087 45.3832 70.0263 45.7771 69.8016 46.0926C69.6759 46.2679 69.5666 46.4226 69.4409 46.5525C69.379 46.3009 69.3419 45.7523 69.3192 45.3997C69.2759 44.7294 69.2409 44.3067 69.1378 44.1046C68.775 43.4013 67.7917 43.028 66.293 43.028C64.7943 43.028 63.1266 43.4137 62.2875 43.7725C61.9804 43.9045 61.7825 44.2015 61.7845 44.5315C61.7907 45.6327 61.8897 46.7959 61.9845 47.9219C62.1041 49.3511 62.2298 50.8297 62.1803 52.2651C62.0154 57.2373 61.6485 58.5077 57.8162 61.8981C55.1115 64.2925 50.399 67.089 46.0225 67.089C44.2207 67.089 42.6293 66.6126 41.2955 65.6763C40.6503 65.2226 38.228 62.7313 38.2507 61.6775C38.2528 61.5682 38.2837 61.4898 38.3455 61.4321C39.3928 61.4919 40.3514 61.5207 41.277 61.5207C49.7331 61.5207 54.6477 58.9429 55.8866 53.8593C56.637 50.7844 56.1917 48.0869 54.6003 46.0596C52.7656 43.721 49.527 42.3805 45.7174 42.3805C42.7653 42.3805 39.8731 43.1992 37.5704 44.6882C32.1034 48.223 29.3039 55.6349 30.7614 62.7127C31.4746 66.1692 33.2619 68.8543 36.0738 70.6939C38.5579 72.319 41.7346 73.179 45.2556 73.179C51.4071 73.179 57.4863 70.5887 60.9331 66.5383V71.4198C60.9331 72.0839 61.4073 72.5665 62.2339 72.7479C62.6153 72.8304 64.4005 72.8407 65.1489 72.8407C65.7714 72.8407 66.3589 72.8345 66.6104 72.8263C66.6805 72.8242 66.7527 72.8222 66.829 72.8201C67.3258 72.8077 67.8906 72.7954 68.3771 72.5561C68.7049 72.3953 68.9275 72.0818 68.975 71.7168C69.1069 70.6939 69.0451 68.3841 68.9956 66.526C68.9667 65.4226 68.9399 64.4719 68.9605 64.0244C68.977 63.6676 68.9935 63.251 69.0121 62.7932C69.1007 60.5391 69.2244 57.4518 69.5171 55.9443C70.0737 53.0838 73.3618 49.6315 76.6086 49.6315C78.4804 49.6315 79.6452 50.9349 79.8884 53.3004C80.0554 54.9296 79.9544 56.9094 79.8472 59.0047C79.6142 63.5624 79.3504 68.7264 81.9561 71.4693C83.2301 72.8098 85.0359 73.4615 87.4747 73.4615C88.0333 73.4615 88.6291 73.4264 89.2517 73.3563C92.2862 73.014 94.0075 70.8795 95.634 68.7553C96.7266 70.1041 97.8872 71.3765 99.7219 72.2633C101.604 73.1728 103.709 73.6533 105.807 73.6533C110.009 73.6533 113.723 71.7457 115.841 68.5243C116.776 71.5972 119.065 73.3481 122.178 73.3481C125.311 73.3481 128.768 71.5064 130.714 68.8337C132.308 71.8859 134.915 73.5625 138.092 73.5625C140.659 73.5625 143.427 72.486 145.889 70.533C146.515 70.036 147.018 69.5885 147.441 69.1513C147.488 71.0589 147.326 71.5085 145.637 72.6654C144.318 73.5687 142.949 74.1957 141.498 74.8556C139.653 75.697 137.746 76.5673 135.965 78.0563C131.893 81.4632 130.129 86.0539 131.471 89.7517C132.435 92.412 134.874 94 137.991 94C139.84 94 141.867 93.4638 144.011 92.4079C147.375 90.7498 150.026 87.8646 151.89 83.8328C153.797 79.7103 154.421 75.3671 154.609 72.4077C157.353 71.0486 160.49 69.4854 163.141 67.4354C163.203 70.1041 163.318 72.4159 163.508 74.1111C163.621 75.1258 167.693 75.1546 168.157 75.1546C170.449 75.1546 170.565 74.8288 170.608 74.7071C170.841 74.0554 170.822 73.2841 170.773 72.783C173.529 74.9134 176.429 75.9919 179.402 75.9919C183.77 75.9919 188.009 73.5069 190.736 69.3431C194.03 64.3131 194.556 57.9942 192.138 52.4383C190.305 48.2271 186.096 45.61 181.152 45.61L181.159 45.6183ZM40.5967 50.4358C41.9036 48.8499 43.6353 47.9425 45.3484 47.9425C45.9503 47.9425 46.544 48.0559 47.1151 48.2807C49.1745 49.0891 49.6527 50.7328 49.4115 52.0011C49.0075 54.1356 46.9769 55.2513 45.1773 55.2513H38.1497C38.83 53.1849 39.6319 51.6072 40.5987 50.4358H40.5967ZM109.574 66.4043C108.652 66.7693 107.766 66.9549 106.937 66.9549C103.092 66.9549 101.076 63.0283 100.786 59.1367C100.316 52.8673 103.682 49.0417 107.248 48.5035C107.737 48.4292 108.215 48.3921 108.671 48.3921C112.165 48.3921 114.678 50.6359 115.395 54.3934C116.241 58.8315 114.294 64.5379 109.576 66.4063L109.574 66.4043ZM146.482 78.1367C146.216 78.7534 145.969 79.3824 145.728 79.9928C144.497 83.1151 143.335 86.0622 140.049 87.2563C139.863 87.3243 139.667 87.3594 139.471 87.3594C139.016 87.3594 138.587 87.18 138.267 86.852C137.81 86.3839 137.589 85.8786 137.597 85.3074C137.61 84.2907 138.337 83.0925 139.824 81.6427C140.199 81.2756 143.759 78.7472 145.86 77.7428C145.996 77.6768 146.122 77.617 146.235 77.5614C146.451 77.4562 146.672 77.3469 146.81 77.2953C146.75 77.518 146.569 77.9367 146.482 78.1388V78.1367ZM185.191 64.9503C183.777 68.1614 181.045 70.003 177.695 70.003C177.551 70.003 177.405 69.9989 177.258 69.9927C174.615 69.871 172.583 68.3263 171.538 65.6412C170.082 61.9064 170.938 56.9651 173.488 54.3934C175.153 52.7147 177.349 51.7103 179.363 51.7103C181.006 51.7103 182.476 52.3682 183.616 53.6138C186.226 56.466 186.875 61.1268 185.193 64.9483L185.191 64.9503Z" fill="var(--fill-0, #262625)"/>
<path d="M310.955 62.3023C310.902 61.927 310.735 61.6012 310.477 61.364C309.896 60.8278 308.809 60.4401 307.89 60.4401C307.311 60.4401 306.878 60.5927 306.639 60.8814C304.293 63.715 302.981 65.2494 301.165 66.4187C298.139 68.3655 294.808 69.4833 292.029 69.4833C290.073 69.4833 288.368 68.9512 286.964 67.9015C284.406 65.9877 283.134 62.1807 283.721 58.2025C284.278 54.4429 286.306 51.5825 289.149 50.5513C289.792 50.3183 290.394 50.1987 290.936 50.1987C291.734 50.1987 292.408 50.4606 292.882 50.9535C293.356 51.4464 293.61 52.1517 293.581 52.8859C293.561 53.3932 293.433 53.9005 293.309 54.3913C293.049 55.4266 292.779 56.497 293.781 57.1775C294.288 57.5219 294.925 57.7055 295.626 57.7055C297.597 57.7055 299.883 56.2227 300.015 54.0964C300.332 48.9819 298.182 45.5812 294.117 44.7624C293.161 44.5706 292.194 44.4716 291.241 44.4716C287.479 44.4716 283.841 46.0081 280.994 48.7963C278.236 51.4979 276.438 55.1255 275.929 59.0109C275.855 59.5801 275.842 60.3823 275.83 61.232C275.811 62.4116 275.795 63.6325 275.603 64.1976C275.09 65.7175 272.107 68.545 270.19 68.545C269.278 68.545 268.716 67.8871 268.514 66.5919C268.215 64.6761 268.524 62.2487 268.85 59.6791C269.532 54.313 270.303 48.2312 265.034 46.2906C264.09 45.9441 263.084 45.7668 262.038 45.7668C256.827 45.7668 251.754 50.0749 249.729 51.8815C249.723 51.6134 249.736 51.3329 249.752 50.9535C249.76 50.7741 249.769 50.574 249.777 50.3451C249.88 50.2873 250.094 50.1863 250.319 50.077C251.484 49.5181 254.215 48.2106 256.582 46.206C259.546 43.6942 261.022 40.9121 260.969 37.9383C260.841 31.0687 258.254 28.0041 252.574 28.0041C252.236 28.0041 251.884 28.0144 251.523 28.0371C247.132 28.3011 244.341 31.4606 242.992 37.697C241.855 42.9579 241.954 49.547 242.034 54.843C242.073 57.4601 242.108 59.7203 242.001 61.4919C241.832 64.2884 237.552 67.9654 235.88 68.1593C235.695 68.1799 235.511 68.1923 235.332 68.1923C233.438 68.1923 232.067 67.0065 231.84 65.1731C231.498 62.3993 231.615 59.3244 231.731 56.3526C231.79 54.8017 231.846 53.3354 231.842 51.9104C231.842 51.9104 238.544 51.9104 238.546 51.9104C239.441 51.9104 239.509 49.3676 239.509 48.588C239.509 47.8085 239.439 45.3172 238.534 45.3172H232.05L232.207 35.9605C232.168 34.8799 230.255 34.4942 228.48 34.4942C227.222 34.4942 225.082 34.7314 225.045 35.6243C224.948 37.9156 225.027 44.0901 225.045 45.3151C225.045 45.3151 220.254 45.2471 220.25 45.2471C219.189 45.2471 218.904 47.6125 218.904 49.0108C218.904 49.7511 218.982 51.4752 219.7 51.4752C220.244 51.4752 220.887 51.4443 221.508 51.4154C222.143 51.3845 222.8 51.3536 223.369 51.3536C224.662 51.3536 224.938 51.5289 224.996 51.6134L224.064 60.7494C223.924 61.861 215.849 69.011 208.861 69.011C207.096 69.011 205.548 68.5408 204.257 67.6149C202.985 66.7013 202.357 65.3711 201.689 63.9625L201.635 63.8491C201.586 63.7439 201.505 63.5727 201.464 63.4634C201.464 63.4634 201.466 63.4634 201.468 63.4634C201.524 63.4634 201.588 63.4655 201.664 63.4696C201.734 63.4717 201.812 63.4758 201.899 63.4779L202.474 63.4923C203.379 63.515 204.313 63.5397 205.267 63.5397C210.003 63.5397 215.181 62.9499 217.682 58.584C219.473 55.4555 219.628 52.294 218.115 49.6831C216.385 46.6969 212.773 44.8429 208.687 44.8429C207.782 44.8429 206.869 44.9377 205.975 45.1233C197.984 46.7814 194.193 54.4656 194.051 60.9041C193.977 64.2615 194.797 67.3777 196.426 69.9143C198.213 72.7026 200.912 74.6205 204.228 75.464C205.566 75.8043 206.939 75.9754 208.312 75.9754C213.452 75.9754 218.772 73.6306 224.571 68.8069C224.864 71.2363 226.117 73.2676 228.055 74.4205C229.49 75.2763 231.191 75.728 232.972 75.728C237.093 75.728 241.123 73.3872 242.72 70.1164C242.76 70.7949 242.731 72.0674 242.714 72.8366C242.7 73.5151 242.687 74.0534 242.704 74.2658C242.772 75.1505 243.904 75.6805 245.732 75.6805C247.381 75.6805 249.709 75.167 249.721 74.0286C249.725 73.6347 249.721 72.783 249.721 71.7951C249.715 69.739 249.705 66.9219 249.752 65.8227C249.843 63.6923 250.634 60.7329 251.768 58.285C253.137 55.3297 254.867 53.321 256.637 52.6301C257.567 52.2672 258.375 52.0836 259.039 52.0836C259.761 52.0836 260.315 52.294 260.736 52.725C261.88 53.9026 261.808 56.5423 261.742 58.8727C261.731 59.279 261.719 59.6791 261.715 60.0627C261.702 61.0382 261.618 62.0817 261.527 63.185C261.278 66.2166 261.02 69.3513 262.195 71.8343C263.519 74.6329 265.887 75.2186 267.642 75.2186C271.284 75.2186 275.675 72.6716 277.479 69.5266L277.675 69.4689C280.248 73.6059 284.894 75.8806 290.782 75.8806C294.059 75.8806 297.492 75.134 300.448 73.777C303.107 72.5561 311.588 66.5961 310.968 62.3106L310.955 62.3023ZM252.801 33.9766C252.894 33.9601 252.984 33.9539 253.071 33.9539C254.168 33.9539 254.712 35.1789 254.846 36.2265C255.13 38.458 253.263 40.9802 252.448 41.9598C251.35 43.2817 250.29 44.1211 249.777 44.352C249.773 44.1437 249.767 43.9272 249.76 43.7065C249.674 40.281 249.544 35.1088 252.799 33.9766H252.801ZM209.12 50.1925C209.434 50.1925 209.761 50.211 210.093 50.2502C211.248 50.3843 212.314 51.4175 212.742 52.8219C213.076 53.9129 213.035 55.4225 211.92 56.3815C211.384 56.8434 210.005 57.6353 208.252 57.6787H201.827C203.19 52.6425 205.577 50.1925 209.118 50.1925H209.12Z" fill="var(--fill-0, #262625)"/>
</g>
</g>
</svg>
