<svg preserveAspectRatio="none" width="100%" height="100%" overflow="visible" style="display: block;" viewBox="0 0 23 21" fill="none" xmlns="http://www.w3.org/2000/svg">
<path id="Vector" d="M10 12.2402H12C12.5304 12.2402 13.0391 12.0295 13.4142 11.6544C13.7893 11.2794 14 10.7707 14 10.2402C14 9.7098 13.7893 9.20109 13.4142 8.82602C13.0391 8.45095 12.5304 8.24023 12 8.24023H9C8.4 8.24023 7.9 8.44023 7.6 8.84023L2 14.2402M6 18.2403L7.6 16.8403C7.9 16.4403 8.4 16.2403 9 16.2403H13C14.1 16.2403 15.1 15.8403 15.8 15.0403L20.4 10.6403C20.7859 10.2756 21.0111 9.77256 21.0261 9.24183C21.0411 8.7111 20.8447 8.19615 20.48 7.81026C20.1153 7.42437 19.6123 7.19915 19.0816 7.18415C18.5508 7.16915 18.0359 7.36559 17.65 7.73026L13.45 11.6303M1 13.2402L7 19.2402M18.4999 6.74024C19.1999 6.04024 19.9999 5.14024 19.9999 4.04024C20.0698 3.42916 19.9313 2.81239 19.6068 2.28987C19.2824 1.76735 18.791 1.36971 18.2123 1.16138C17.6336 0.953045 17.0015 0.946235 16.4184 1.14205C15.8354 1.33786 15.3355 1.72483 14.9999 2.24024C14.6429 1.76482 14.1429 1.41636 13.5734 1.24602C13.0038 1.07568 12.3946 1.09242 11.8352 1.2938C11.2758 1.49517 10.7957 1.87057 10.4654 2.36488C10.1351 2.85919 9.97194 3.44638 9.9999 4.04024C9.9999 5.24024 10.7999 6.04024 11.4999 6.84024L14.9999 10.2402L18.4999 6.74024Z" stroke="var(--stroke-0, #262625)" stroke-width="2" stroke-linecap="round" stroke-linejoin="round"/>
</svg>
