<svg preserveAspectRatio="none" width="100%" height="100%" overflow="visible" style="display: block;" viewBox="0 0 22 21" fill="none" xmlns="http://www.w3.org/2000/svg">
<path id="Vector" d="M11 15.7002V19.7002M14.2 3.6002L13.3 3.2002M14.2 5.8003L13.3 6.2003M15.9 1.90025L15.5 1.00025M15.9 7.50025L15.5 8.40025M18.5001 1.00025L18.1001 1.90025M18.5001 8.40025L18.1001 7.50025M20.7001 3.2002L19.8 3.6002M20.7001 6.2003L19.8 5.8003M21 11.7002V13.7002C21 14.2306 20.7893 14.7393 20.4142 15.1144C20.0391 15.4895 19.5304 15.7002 19 15.7002H3C2.46957 15.7002 1.96086 15.4895 1.58579 15.1144C1.21071 14.7393 1 14.2306 1 13.7002V3.7002C1 3.16977 1.21071 2.66106 1.58579 2.28599C1.96086 1.91091 2.46957 1.7002 3 1.7002H10M7 19.7002H15M20 4.7002C20 6.35705 18.6569 7.7002 17 7.7002C15.3431 7.7002 14 6.35705 14 4.7002C14 3.04335 15.3431 1.7002 17 1.7002C18.6569 1.7002 20 3.04335 20 4.7002Z" stroke="var(--stroke-0, #262625)" stroke-width="2" stroke-linecap="round" stroke-linejoin="round"/>
</svg>
