<svg preserveAspectRatio="none" width="100%" height="100%" overflow="visible" style="display: block;" viewBox="0 0 22 23" fill="none" xmlns="http://www.w3.org/2000/svg">
<path id="Vector" d="M11 1V2M14.5 20C14.3083 20.3884 13.9864 20.6972 13.5904 20.8726C13.1943 21.0481 12.7493 21.079 12.3329 20.96C11.9164 20.841 11.5549 20.5796 11.3114 20.2215C11.0678 19.8633 10.9576 19.4311 11 19V11H1C1.25787 8.45007 2.48498 6.09644 4.428 4.42505M16.4999 11.0001H20.9999C20.8537 9.51616 20.3775 8.08371 19.6062 6.8076C18.8349 5.53149 17.7879 4.44403 16.542 3.62482C15.2961 2.80562 13.8827 2.27541 12.4054 2.07302C10.9281 1.87062 9.42425 2.00116 8.00391 2.45508M1 1L21 21" stroke="var(--stroke-0, #262625)" stroke-width="2" stroke-linecap="round" stroke-linejoin="round"/>
</svg>
