<svg preserveAspectRatio="none" width="100%" height="100%" overflow="visible" style="display: block;" viewBox="0 0 21 22" fill="none" xmlns="http://www.w3.org/2000/svg">
<path id="Vector" d="M13.1201 2.88L15.0001 1M17 10C17 8.93913 16.5786 7.92172 15.8284 7.17157C15.0783 6.42143 14.0609 6 13 6H9C7.93913 6 6.92172 6.42143 6.17157 7.17157C5.42143 7.92172 5 8.93913 5 10V13C5.00232 13.8479 5.18137 14.686 5.52573 15.4608C5.87009 16.2356 6.37219 16.9301 7 17.5M19.97 4C19.97 6.1 18.37 7.8 16.47 8M2 20C2 17.9 3.7 16.1 5.8 16M5 12H1M5.53 8C3.6 7.8 2 6.1 2 4M7 1L8.88 2.88M8.00007 6.13012V5.13012C7.98194 4.72486 8.04611 4.32014 8.1887 3.94037C8.33129 3.5606 8.54934 3.21365 8.8297 2.92047C9.11006 2.62728 9.44692 2.39394 9.81994 2.23453C10.193 2.07511 10.5944 1.99292 11.0001 1.99292C11.4057 1.99292 11.8072 2.07511 12.1802 2.23453C12.5532 2.39394 12.8901 2.62728 13.1704 2.92047C13.4508 3.21365 13.6689 3.5606 13.8114 3.94037C13.954 4.32014 14.0182 4.72486 14.0001 5.13012V6.13012M11.765 20.5221C11.6893 20.5694 11.6023 20.5956 11.5131 20.5979C11.4239 20.6003 11.3357 20.5787 11.2576 20.5354C11.1796 20.4922 11.1145 20.4288 11.0692 20.3519C11.0239 20.275 11 20.1874 11 20.0981V11.9021C11 11.8128 11.0239 11.7252 11.0692 11.6483C11.1145 11.5714 11.1796 11.508 11.2576 11.4648C11.3357 11.4215 11.4239 11.3999 11.5131 11.4023C11.6023 11.4046 11.6893 11.4308 11.765 11.4781L17.643 15.1521C17.7868 15.242 17.9054 15.367 17.9876 15.5153C18.0699 15.6637 18.113 15.8305 18.113 16.0001C18.113 16.1697 18.0699 16.3365 17.9876 16.4849C17.9054 16.6332 17.7868 16.7582 17.643 16.8481L11.765 20.5221Z" stroke="var(--stroke-0, #262625)" stroke-width="2" stroke-linecap="round" stroke-linejoin="round"/>
</svg>
