<svg preserveAspectRatio="none" width="100%" height="100%" overflow="visible" style="display: block;" viewBox="0 0 22 21" fill="none" xmlns="http://www.w3.org/2000/svg">
<path id="Vector" d="M11.9999 15C12.5793 14.9992 13.1466 15.1663 13.6332 15.481C14.1197 15.7958 14.5047 16.2446 14.7416 16.7735C14.9785 17.3023 15.0572 17.8884 14.9682 18.461C14.8791 19.0336 14.6262 19.5681 14.2399 20M16.9999 11H17.0099M16.9999 19.9999H8.99988C7.93901 19.9999 6.9216 19.5785 6.17145 18.8283C5.42131 18.0782 4.99988 17.0608 4.99988 15.9999C4.99988 14.1434 5.73738 12.3629 7.05013 11.0502C8.36289 9.73742 10.1434 8.99992 11.9999 8.99992H12.1999L8.59988 5.39992C8.41603 5.21607 8.27019 4.99781 8.17069 4.75759C8.07119 4.51738 8.01998 4.25992 8.01998 3.99992C8.01998 3.47482 8.22858 2.97122 8.59988 2.59992C8.97118 2.22862 9.47478 2.02002 9.99988 2.02002C10.2599 2.02002 10.5173 2.07123 10.7576 2.17073C10.9978 2.27023 11.216 2.41607 11.3999 2.59992L14.7999 5.99992H14.9999M14.9999 5.99992C18.2999 5.99992 20.9999 8.69992 20.9999 11.9999V12.9999C20.9999 13.5304 20.7892 14.0391 20.4141 14.4141C20.039 14.7892 19.5303 14.9999 18.9999 14.9999H17.9999C17.2042 14.9999 16.4412 15.316 15.8786 15.8786C15.3159 16.4412 14.9999 17.2043 14.9999 17.9999M14.9999 5.99992V3C14.9999 2.46957 15.2106 1.96086 15.5857 1.58579C15.9607 1.21071 16.4694 1 16.9999 1C17.5303 1 18.039 1.21071 18.4141 1.58579C18.7892 1.96086 18.9999 2.46957 18.9999 3V7.54M6.6119 11.524C6.3307 11.0263 5.91318 10.6193 5.40849 10.351C4.90379 10.0826 4.33293 9.96399 3.76311 10.0091C3.19329 10.0543 2.64822 10.2613 2.19207 10.6057C1.73592 10.9502 1.38767 11.4178 1.18834 11.9536C0.988996 12.4893 0.946857 13.0708 1.06688 13.6297C1.1869 14.1885 1.46409 14.7015 1.86581 15.1081C2.26753 15.5148 2.77706 15.7982 3.33443 15.925C3.89179 16.0518 4.47378 16.0168 5.0119 15.8239" stroke="var(--stroke-0, #262625)" stroke-width="2" stroke-linecap="round" stroke-linejoin="round"/>
</svg>
