<svg preserveAspectRatio="none" width="100%" height="100%" overflow="visible" style="display: block;" viewBox="0 0 18 10" fill="none" xmlns="http://www.w3.org/2000/svg">
<path id="Vector" d="M7 3V9M11 1V9M7 6C7 7.65685 5.65685 9 4 9C2.34315 9 1 7.65685 1 6C1 4.34315 2.34315 3 4 3C5.65685 3 7 4.34315 7 6ZM17 6C17 7.65685 15.6569 9 14 9C12.3431 9 11 7.65685 11 6C11 4.34315 12.3431 3 14 3C15.6569 3 17 4.34315 17 6Z" stroke="var(--stroke-0, #262625)" stroke-width="2" stroke-linecap="round" stroke-linejoin="round"/>
</svg>
