<svg preserveAspectRatio="none" width="100%" height="100%" overflow="visible" style="display: block;" viewBox="0 0 22 22" fill="none" xmlns="http://www.w3.org/2000/svg">
<path id="Vector" d="M17.8 3C18.5646 4.45539 18.9838 6.20214 19 8M8 8H8.01M13 17.9999C16 17.9999 17.6 16.3999 17.6 16.3999M15 8C15 11.866 11.866 15 8 15C4.13401 15 1 11.866 1 8C1 4.13401 4.13401 1 8 1C11.866 1 15 4.13401 15 8ZM5 15H11C12.1046 15 13 15.8954 13 17V19C13 20.1046 12.1046 21 11 21H5C3.89543 21 3 20.1046 3 19V17C3 15.8954 3.89543 15 5 15ZM21 15C21 16.1046 20.1046 17 19 17C17.8954 17 17 16.1046 17 15C17 13.8954 17.8954 13 19 13C20.1046 13 21 13.8954 21 15Z" stroke="var(--stroke-0, #262625)" stroke-width="2" stroke-linecap="round" stroke-linejoin="round"/>
</svg>
