<svg preserveAspectRatio="none" width="100%" height="100%" overflow="visible" style="display: block;" viewBox="0 0 22 22" fill="none" xmlns="http://www.w3.org/2000/svg">
<path id="Vector" d="M11 17C9.5 18.5 8.3 19 6.5 19C5.04131 19 3.64236 18.4205 2.61091 17.3891C2.10019 16.8784 1.69506 16.272 1.41866 15.6048C1.14226 14.9375 1 14.2223 1 13.5C1 11.2 2.5 9.5 4 8L11 1L18 8C19.5 9.5 21 11.2 21 13.5C21 14.2223 20.8577 14.9375 20.5813 15.6048C20.3049 16.272 19.8998 16.8784 19.3891 17.3891C18.8784 17.8998 18.272 18.3049 17.6048 18.5813C16.9375 18.8577 16.2223 19 15.5 19C13.7 19 12.5 18.5 11 17ZM11 17V21" stroke="var(--stroke-0, #262625)" stroke-width="2" stroke-linecap="round" stroke-linejoin="round"/>
</svg>
