<svg preserveAspectRatio="none" width="100%" height="100%" overflow="visible" style="display: block;" viewBox="0 0 21 21" fill="none" xmlns="http://www.w3.org/2000/svg">
<path id="Vector" d="M14.8 7.20781C14.3327 6.74974 13.7044 6.49317 13.05 6.49317C12.3957 6.49317 11.7674 6.74974 11.3 7.20781L11 7.60781L10.65 7.30781C10.4208 7.05967 10.1421 6.86229 9.83199 6.72835C9.52185 6.59441 9.1871 6.5269 8.84929 6.53014C8.51148 6.53339 8.17809 6.60733 7.87058 6.7472C7.56307 6.88707 7.28825 7.08978 7.06381 7.34227C6.83937 7.59476 6.67028 7.89145 6.56743 8.21324C6.46458 8.53503 6.43023 8.87479 6.46662 9.21065C6.503 9.54651 6.6093 9.87103 6.77867 10.1633C6.94804 10.4556 7.17674 10.7092 7.45004 10.9078L11.05 14.4078L14.65 10.9078C15.85 9.70781 15.75 8.20781 14.85 7.20781M6.90003 18.0079C8.80861 18.9869 11.0041 19.2521 13.0909 18.7556C15.1777 18.2592 17.0186 17.0337 18.2818 15.3C19.545 13.5664 20.1474 11.4386 19.9806 9.30002C19.8138 7.16147 18.8886 5.15283 17.3718 3.63605C15.8551 2.11928 13.8464 1.19411 11.7079 1.02728C9.56932 0.860442 7.4415 1.46291 5.70785 2.72611C3.9742 3.98931 2.74872 5.83017 2.25225 7.91697C1.75578 10.0038 2.02097 12.1993 3.00003 14.1079L1.00003 20.0079L6.90003 18.0079Z" stroke="var(--stroke-0, #262625)" stroke-width="2" stroke-linecap="round" stroke-linejoin="round"/>
</svg>
