<svg preserveAspectRatio="none" width="100%" height="100%" overflow="visible" style="display: block;" viewBox="0 0 22 20" fill="none" xmlns="http://www.w3.org/2000/svg">
<path id="Vector" d="M10 18.0001H3C2.46957 18.0001 1.96086 17.7894 1.58579 17.4143C1.21071 17.0392 1 16.5305 1 16.0001V3.0001C1 2.46966 1.21071 1.96096 1.58579 1.58588C1.96086 1.21081 2.46957 1.0001 3 1.0001H6.9C7.23449 0.996817 7.56445 1.07748 7.8597 1.23472C8.15495 1.39195 8.40604 1.62072 8.59 1.9001L9.4 3.1001C9.58211 3.37663 9.83003 3.60362 10.1215 3.7607C10.413 3.91778 10.7389 4.00004 11.07 4.0001H19C19.5304 4.0001 20.0391 4.21081 20.4142 4.58588C20.7893 4.96096 21 5.46966 21 6.0001V7.5001M12.8999 15.4501C11.6999 14.2501 11.7599 12.6501 12.6999 11.7201C12.9257 11.4939 13.1938 11.3145 13.4889 11.1921C13.784 11.0696 14.1004 11.0066 14.4199 11.0066C14.7395 11.0066 15.0559 11.0696 15.351 11.1921C15.6461 11.3145 15.9142 11.4939 16.1399 11.7201L16.4999 12.0601L16.8399 11.7201C17.0652 11.4918 17.3334 11.3103 17.6291 11.1861C17.9248 11.0619 18.2421 10.9975 18.5629 10.9966C18.8836 10.9957 19.2013 11.0582 19.4977 11.1807C19.7941 11.3031 20.0634 11.4831 20.2899 11.7101C21.2399 12.6601 21.2899 14.2401 20.0899 15.4501L16.4999 19.0001L12.8999 15.4501Z" stroke="var(--stroke-0, #262625)" stroke-width="2" stroke-linecap="round" stroke-linejoin="round"/>
</svg>
