<svg preserveAspectRatio="none" width="100%" height="100%" overflow="visible" style="display: block;" viewBox="0 0 20 22" fill="none" xmlns="http://www.w3.org/2000/svg">
<path id="Vector" d="M2.99748 21H16.9975C17.5279 21 18.0366 20.7893 18.4117 20.4142C18.7868 20.0391 18.9975 19.5304 18.9975 19V6L13.9975 1H4.99748C4.46704 1 3.95834 1.21071 3.58326 1.58579C3.20819 1.96086 2.99748 2.46957 2.99748 3V5M12.9975 1V5C12.9975 5.53043 13.2082 6.03914 13.5833 6.41421C13.9583 6.78929 14.467 7 14.9975 7H18.9975M9.28752 9.69995C8.94593 9.35887 8.5105 9.12726 8.03675 9.03465C7.563 8.94203 7.0724 8.99262 6.62752 9.17995C6.33752 9.29995 6.06752 9.47995 5.84752 9.70995L5.49752 10.0499L5.14752 9.70995C4.80789 9.3692 4.37475 9.13693 3.90299 9.04258C3.43123 8.94823 2.94208 8.99604 2.49752 9.17995C2.19752 9.29995 1.93752 9.47995 1.70752 9.70995C0.757518 10.6499 0.707518 12.2399 1.90752 13.4499L5.49752 16.9999L9.09752 13.4499C10.2975 12.2399 10.2375 10.6499 9.28752 9.70995V9.69995Z" stroke="var(--stroke-0, #262625)" stroke-width="2" stroke-linecap="round" stroke-linejoin="round"/>
</svg>
