<svg preserveAspectRatio="none" width="100%" height="100%" overflow="visible" style="display: block;" viewBox="0 0 21 21" fill="none" xmlns="http://www.w3.org/2000/svg">
<path id="Vector" d="M12.8003 2.9004L10.8003 4.8004M3.90025 6.80025L1.00025 6.00025M4.80028 10.8003L2.90028 12.8003M6.00025 1.00025L6.80025 3.90025M7.83733 8.49021C7.79855 8.39886 7.78795 8.29801 7.80689 8.2006C7.82582 8.10318 7.87343 8.01365 7.9436 7.94348C8.01377 7.87331 8.10331 7.8257 8.20072 7.80676C8.29813 7.78783 8.39898 7.79843 8.49033 7.83721L19.4903 12.3372C19.5882 12.3774 19.6709 12.4476 19.7263 12.5377C19.7818 12.6278 19.8073 12.7332 19.799 12.8387C19.7908 12.9442 19.7493 13.0443 19.6806 13.1248C19.6118 13.2052 19.5193 13.2617 19.4163 13.2862L15.0673 14.3272C14.8878 14.3701 14.7236 14.4618 14.593 14.5923C14.4624 14.7227 14.3705 14.8867 14.3273 15.0662L13.2873 19.4162C13.2631 19.5195 13.2066 19.6124 13.1261 19.6815C13.0456 19.7506 12.9452 19.7922 12.8394 19.8005C12.7336 19.8087 12.6279 19.7831 12.5377 19.7273C12.4474 19.6715 12.3773 19.5885 12.3373 19.4902L7.83733 8.49021Z" stroke="var(--stroke-0, #262625)" stroke-width="2" stroke-linecap="round" stroke-linejoin="round"/>
</svg>
