<svg preserveAspectRatio="none" width="100%" height="100%" overflow="visible" style="display: block;" viewBox="0 0 22 22" fill="none" xmlns="http://www.w3.org/2000/svg">
<path id="Vector" d="M7.71357 13H4.00357C3.7939 13.0001 3.58956 13.0661 3.41945 13.1886C3.24933 13.3112 3.12204 13.4841 3.05557 13.683L1.05157 19.683C1.00134 19.8333 0.987541 19.9934 1.01133 20.1501C1.03512 20.3068 1.09581 20.4556 1.1884 20.5842C1.28098 20.7128 1.40282 20.8176 1.54385 20.8899C1.68489 20.9622 1.84109 20.9999 1.99957 21H19.9996C20.1579 20.9999 20.314 20.9621 20.455 20.8899C20.5959 20.8177 20.7176 20.713 20.8102 20.5845C20.9028 20.456 20.9635 20.3074 20.9874 20.1508C21.0113 19.9942 20.9976 19.8343 20.9476 19.684L18.9476 13.684C18.8812 13.4848 18.7539 13.3115 18.5835 13.1888C18.4132 13.066 18.2085 12.9999 17.9986 13H14.2866M16.9995 7C16.9995 10.613 13.1305 14.429 11.6065 15.795C11.4322 15.9282 11.2189 16.0003 10.9995 16.0003C10.7801 16.0003 10.5668 15.9282 10.3925 15.795C8.86951 14.429 4.99951 10.613 4.99951 7C4.99951 5.4087 5.63165 3.88258 6.75687 2.75736C7.88209 1.63214 9.40821 1 10.9995 1C12.5908 1 14.1169 1.63214 15.2422 2.75736C16.3674 3.88258 16.9995 5.4087 16.9995 7ZM12.9995 7C12.9995 8.10457 12.1041 9 10.9995 9C9.89494 9 8.99951 8.10457 8.99951 7C8.99951 5.89543 9.89494 5 10.9995 5C12.1041 5 12.9995 5.89543 12.9995 7Z" stroke="var(--stroke-0, #262625)" stroke-width="2" stroke-linecap="round" stroke-linejoin="round"/>
</svg>
