<svg preserveAspectRatio="none" width="100%" height="100%" overflow="visible" style="display: block;" viewBox="0 0 21 20" fill="none" xmlns="http://www.w3.org/2000/svg">
<path id="Vector" d="M5 18.6831H15M9.37989 9.68308C8.77426 9.68872 8.18888 9.46517 7.74117 9.05727C7.29346 8.64937 7.01653 8.08728 6.96592 7.48373C6.91531 6.88019 7.09476 6.27983 7.46828 5.80306C7.8418 5.32629 8.38177 5.00837 8.97989 4.91308C8.88413 4.4893 8.9052 4.04748 9.04084 3.63475C9.17649 3.22201 9.42163 2.85383 9.75011 2.56948C10.0786 2.28514 10.4781 2.0953 10.906 2.0202C11.3339 1.9451 11.7742 1.98757 12.1799 2.14308C12.3575 1.86344 12.5911 1.62361 12.866 1.43867C13.1409 1.25374 13.451 1.12772 13.777 1.06854C14.103 1.00936 14.4376 1.01831 14.76 1.09481C15.0823 1.17132 15.3853 1.31373 15.6499 1.51308C16.1115 1.1503 16.69 0.969281 17.276 1.00427C17.862 1.03926 18.4149 1.28783 18.83 1.70295C19.2451 2.11807 19.4937 2.67094 19.5287 3.25696C19.5637 3.84299 19.3827 4.42151 19.0199 4.88308C19.2457 5.18301 19.398 5.53173 19.4645 5.90121C19.5311 6.27069 19.51 6.65063 19.403 7.01048C19.296 7.37034 19.1061 7.70008 18.8485 7.97321C18.5909 8.24633 18.2729 8.45521 17.9199 8.58308C18.0111 8.94301 18.0214 9.3187 17.9499 9.68308M11 9.68311L15 5.68311M8.90005 4.93307C8.35154 4.34834 7.6396 3.94241 6.85703 3.7682C6.07445 3.59398 5.25754 3.65956 4.51278 3.95638C3.76802 4.25321 3.12995 4.76751 2.68175 5.43226C2.23354 6.097 1.99599 6.88135 2.00005 7.68307C2.00005 8.41307 2.20005 9.09307 2.54005 9.68307M10 18.6831C12.3869 18.6831 14.6761 17.7349 16.364 16.0471C18.0518 14.3592 19 12.0701 19 9.68311H1C1 12.0701 1.94821 14.3592 3.63604 16.0471C5.32387 17.7349 7.61305 18.6831 10 18.6831Z" stroke="var(--stroke-0, #262625)" stroke-width="2" stroke-linecap="round" stroke-linejoin="round"/>
</svg>
