<svg preserveAspectRatio="none" width="100%" height="100%" overflow="visible" style="display: block;" viewBox="0 0 26 19" fill="none" xmlns="http://www.w3.org/2000/svg">
<g id="Vector">
<path d="M1.07292 9.57195C0.975692 9.31001 0.975692 9.02188 1.07292 8.75995C2.01991 6.46378 3.62736 4.50049 5.69149 3.119C7.75562 1.7375 10.1835 1 12.6673 1C15.151 1 17.5789 1.7375 19.643 3.119C21.7072 4.50049 23.3146 6.46378 24.2616 8.75995C24.3588 9.02188 24.3588 9.31001 24.2616 9.57195C23.3146 11.8681 21.7072 13.8314 19.643 15.2129C17.5789 16.5944 15.151 17.3319 12.6673 17.3319C10.1835 17.3319 7.75562 16.5944 5.69149 15.2129C3.62736 13.8314 2.01991 11.8681 1.07292 9.57195Z" stroke="var(--stroke-0, #BFBFBB)" stroke-width="2" stroke-linecap="round" stroke-linejoin="round"/>
<path d="M12.6672 12.6658C14.6002 12.6658 16.1672 11.0988 16.1672 9.16581C16.1672 7.23282 14.6002 5.66581 12.6672 5.66581C10.7342 5.66581 9.16724 7.23282 9.16724 9.16581C9.16724 11.0988 10.7342 12.6658 12.6672 12.6658Z" stroke="var(--stroke-0, #BFBFBB)" stroke-width="2" stroke-linecap="round" stroke-linejoin="round"/>
</g>
</svg>
