<svg preserveAspectRatio="none" width="100%" height="100%" overflow="visible" style="display: block;" viewBox="0 0 40 50" fill="none" xmlns="http://www.w3.org/2000/svg">
<g id="Vector">
<path d="M10.878 8.956C9.204 8.956 7.606 9.368 6.252 10.15L4.29 11.424C4.324 10.64 4.34 8.514 4.356 6.282C4.372 4.122 4.39 1.888 4.422 0.79C4.436 0.356 3.978 0.19 3.634 0.102C3.374 0.036 2.976 0 2.514 0C2.052 0 1.55 0.04 1.228 0.108C0.434 0.272 0.044 0.482 0.064 0.72L0 26.984C0 27 0.004 27.016 0.01 27.03C0.182 27.446 1.574 27.668 2.512 27.668C3.054 27.668 4.008 27.6 4.318 27.14C4.332 27.118 4.34 27.092 4.338 27.066L4.288 25.762C5.2 26.802 7.224 27.85 8.348 27.962C8.838 28.012 9.324 28.036 9.792 28.036C13.278 28.036 16.14 26.646 17.846 24.122C19.9 21.086 20.044 16.848 18.222 13.062C17.002 10.528 14.188 8.954 10.876 8.954L10.878 8.956ZM13.344 22.554C12.334 23.612 10.894 24.172 9.18 24.172C8.814 24.172 8.432 24.146 8.046 24.096C6.486 23.892 5.336 22.924 4.808 21.372C4.026 19.074 4.752 16.062 6.458 14.516C7.578 13.502 8.868 12.966 10.188 12.966C12.632 12.966 14.534 14.812 14.81 17.456C15.026 19.526 14.506 21.336 13.346 22.552L13.344 22.554Z" fill="var(--fill-0, #262625)"/>
<path d="M31.872 31.232C29.148 31.232 26.672 32.376 25.154 34.312L25.518 22.87C25.518 22.858 25.518 22.846 25.514 22.836C25.346 22.194 24.21 22.158 23.532 22.138C23.468 22.136 23.408 22.134 23.356 22.132C23.132 22.122 22.924 22.118 22.72 22.118C21.412 22.118 20.734 22.308 20.65 22.698C20.65 22.704 20.648 22.712 20.648 22.718C20.638 22.916 19.65 42.596 20.39 48.838C20.464 49.464 23.114 49.482 23.416 49.482C24.908 49.482 24.984 49.282 25.012 49.206C25.164 48.804 25.152 48.326 25.12 48.018C26.914 49.334 28.802 50 30.736 50C33.58 50 36.338 48.464 38.112 45.892C40.256 42.786 40.598 38.882 39.024 35.45C37.832 32.848 35.092 31.232 31.874 31.232H31.872ZM34.496 43.172C33.576 45.156 31.798 46.294 29.618 46.294C29.524 46.294 29.43 46.294 29.334 46.288C27.614 46.214 26.292 45.258 25.61 43.6C24.662 41.292 25.22 38.24 26.878 36.652C27.962 35.614 29.392 34.994 30.702 34.994C31.772 34.994 32.728 35.4 33.47 36.17C35.17 37.932 35.592 40.81 34.496 43.172Z" fill="var(--fill-0, #262625)"/>
</g>
</svg>
