<svg preserveAspectRatio="none" width="100%" height="100%" overflow="visible" style="display: block;" viewBox="0 0 22 22" fill="none" xmlns="http://www.w3.org/2000/svg">
<path id="Vector" d="M15.8 10.2C16.6 9.30001 17 8.20001 17 7.00001C16.998 5.91781 16.7033 4.8563 16.1473 3.9279C15.5912 2.99951 14.7943 2.23879 13.8412 1.72634C12.888 1.21388 11.814 0.968758 10.7329 1.01694C9.65173 1.06511 8.60376 1.4048 7.69995 2.00001M1 1L21 21M5.2999 5.30005C4.94477 6.1856 4.86941 7.15867 5.08395 8.08834C5.29849 9.01801 5.79263 9.85966 6.4999 10.5C7.1999 11.2 7.7999 12 7.9999 13M8 17H14M9 21H13" stroke="var(--stroke-0, #262625)" stroke-width="2" stroke-linecap="round" stroke-linejoin="round"/>
</svg>
