<svg preserveAspectRatio="none" width="100%" height="100%" overflow="visible" style="display: block;" viewBox="0 0 368 216" fill="none" xmlns="http://www.w3.org/2000/svg">
<g id="Vector">
<path d="M132.597 82.2512C116.81 102.45 73.1019 105.084 66.9246 75.084C63.9906 60.8392 68.9969 44.4012 81.5447 36.2811C97.7981 25.757 126.55 31.8684 120.727 55.7792C116.797 71.9296 96.3672 72.7248 82.8503 71.9296C80.3469 73.538 87.6506 80.9484 89.149 82.0044C100.248 89.8052 116.716 81.6672 125.657 73.7404C133.992 66.3528 134.934 63.562 135.302 52.4268C135.491 46.7604 134.477 40.9364 134.441 35.5576C134.441 35.0184 134.768 34.5331 135.266 34.3174C138.851 32.7806 147.877 31.4819 149.6 34.8342C150.102 35.8093 149.797 41.3184 150.739 40.5052C151.682 39.6918 152.161 38.3078 153.88 36.9147C161.856 30.4483 176.386 29.0778 183.457 36.4788C194.071 47.5872 186.759 67.4852 189.172 80.1348C190.128 85.1364 196.049 84.278 199.149 81.8108C199.665 81.402 201.182 80.2292 202.339 76.5532C202.913 74.738 202.487 70.204 202.496 68.0964C202.595 47.066 217.332 26.9298 241.297 31.9627C244.231 32.5783 251.18 38.7616 251.18 38.7616L251.314 2.39435C251.381 -0.400708 266.271 -1.22754 266.536 2.54264C266.814 6.52852 266.724 17.6144 266.612 22.3508C266.24 38.2493 263.678 60.3628 265.257 75.7492C265.616 79.236 266.778 81.9368 269.403 83.6488C270.896 84.624 272.821 84.7228 274.409 83.9184C277.621 82.292 280.407 78.7688 281.282 75.65C282.726 70.496 280.882 36.043 281.295 33.3872C281.47 31.437 296.037 30.6685 296.745 33.877L296.66 75.7132C298.661 88.7536 310.523 86.152 316.53 77.7396C323.559 67.8984 320.073 42.5768 320.634 34.5286C320.886 30.9157 335.672 30.7809 335.591 33.7332C335.425 39.9614 336.058 58.9876 336.076 60.9244L336.291 84.9564C337.323 85.1544 347.04 77.5916 352.419 71.4936C356.142 67.274 358.318 60.7672 358.91 60.4884C360.664 59.6616 365.361 60.12 366.545 61.9444C368.623 65.1484 365.253 72.2708 363.41 75.322C357.457 85.1768 345.55 91.0816 335.573 96.0288C334.586 112.48 328.454 131.74 312.743 139.492C286.764 152.308 275.082 126.253 295.718 108.971C302.501 103.291 310.065 101.826 316.731 97.2468C320.912 94.3752 320.989 93.2428 320.818 88.102C319.647 89.4504 318.261 90.6724 316.749 91.8768C305.727 100.63 290.9 101.767 284.068 87.6528C276.271 99.2644 256.034 103.601 251.799 86.754C244.621 98.788 228.857 101.448 216.757 95.5976C212.805 93.6876 210.351 91.0004 207.655 87.6304C203.963 92.4656 200.262 97.1972 193.726 97.9344C165.687 101.102 175.453 70.3972 173.838 54.6332C172.21 38.7257 152.754 48.1488 150.38 60.3536C149.604 64.3532 149.367 73.4796 149.16 78.0228C149.039 80.674 149.649 91.2476 149.196 94.7436C149.115 95.382 148.72 95.9392 148.142 96.2268C147.016 96.784 145.616 96.73 144.486 96.7704C143.086 96.82 136.119 96.8424 135.069 96.6132C134.208 96.4244 132.588 95.8448 132.588 94.1596V82.2648L132.597 82.2512ZM81.953 59.356H97.8656C107.695 59.356 111.786 47.048 102.244 43.2956C96.762 41.1432 91.1362 43.7764 87.5516 48.1264C84.9409 51.2944 83.1911 55.4556 81.953 59.356ZM232.876 43.754C210.867 47.0796 214.846 92.8656 238.17 83.6264C257.133 76.1132 256.411 40.1996 232.876 43.754ZM303.519 116.084C299.796 119.72 296.458 124.326 300.124 128.073C301.258 129.233 302.95 129.619 304.475 129.066C313.255 125.876 315.233 117.118 318.737 108.953C320.19 105.569 319.71 106.104 316.776 107.506C312.205 109.694 304.448 115.181 303.519 116.089V116.084Z" fill="var(--fill-0, #262625)"/>
<path d="M13.8846 2.52918C13.6379 10.9998 13.6603 38.5325 13.3867 40.9456L20.7036 35.9351C33.7314 28.0083 53.4703 31.5538 60.0739 46.0324C71.3881 70.8284 59.5718 101.332 27.5136 97.9524C23.319 97.512 15.5849 92.924 13.3867 89.158L13.611 95.256C11.7717 98.1408 0.704325 96.748 0 94.9504L0.210849 2.30899C0.152529 1.59899 2.07709 0.947408 3.74594 0.58342C5.82303 0.125065 9.73942 0.0666469 11.5832 0.556456C12.9695 0.92494 13.916 1.48215 13.8846 2.53367V2.52918ZM20.8292 50.6472C11.1616 59.8772 11.0853 83.096 26.3831 85.2036C41.6808 87.3112 51.0121 76.4456 49.5093 61.302C47.9615 45.7312 32.3272 39.6649 20.8292 50.6472Z" fill="var(--fill-0, #262625)"/>
<path d="M258.465 152.132C274.808 158.158 263.683 182.721 265.751 196.013C267.46 207.027 280.465 195.568 282.044 190.868C282.789 188.666 282.386 182.442 282.775 179.481C285.252 160.544 302.043 144.83 321.828 148.82C331.154 150.699 334.927 158.63 334.304 168.692C333.945 174.488 323.618 178.259 320.145 175.203C317.566 172.938 321.056 169.671 321.199 166.103C321.357 162.207 318.068 157.992 310.958 160.572C296.727 165.744 294.233 190.275 306.086 199.159C315.341 206.092 330.863 201.05 339.418 194.917C341.809 193.204 348.246 185.372 350.844 183.912C352.858 182.779 356.829 183.431 357.941 185.826C360.53 194.476 342.307 208.047 335.493 211.179C319.553 218.5 296.234 218.072 286.324 201.671L285.391 201.945C279.676 212.181 259.362 220.962 252.839 207.157C249.403 199.887 251.745 189.61 251.839 181.705C251.947 172.79 253.683 159.808 240.179 165.088C231.252 168.579 225.286 185.354 224.909 194.238C224.756 197.802 224.877 209.512 224.846 212.132C224.805 215.606 210.791 216.814 210.468 212.622C210.351 211.094 210.961 200.412 209.983 202.695C205.515 213.143 189.576 219.295 178.374 212.613C173.785 209.876 171.326 205.104 170.927 199.873C158.581 210.308 143.189 219.097 126.411 214.832C94.6174 206.753 99.0274 156.073 130.193 149.602C148.155 145.873 165.629 160.028 155.189 178.272C148.581 189.821 133.086 188.998 121.243 188.706C119.637 188.666 119.435 188.437 120.251 190.158C121.736 193.299 123.158 196.422 126.101 198.534C142 209.975 169.492 186.612 169.909 183.269L171.95 163.236C171.483 161.632 164.395 162.558 159.967 162.558C157.966 162.558 158.244 149.778 161.201 149.886L172.048 150.038C172.048 150.038 171.811 134.063 172.048 128.487C172.16 125.84 186.601 125.472 186.741 129.215L186.391 150.034H200.957C203.232 150.034 203.147 163.614 200.957 163.501H185.942C186.01 172.817 184.794 183.588 185.942 192.904C186.507 197.496 190.262 200.386 195.233 199.806C198.871 199.383 208.552 191.326 208.947 184.86C210.158 164.863 203.097 113.959 229.251 112.386C244.235 111.483 249.071 119.288 249.332 133.52C249.654 150.978 224.999 159.794 224.985 160.32C224.913 162.558 224.805 163.551 224.936 164.85C230.96 159.426 245.379 147.306 258.479 152.132H258.465ZM236.905 129.732C236.573 127.112 235.052 123.89 231.898 124.447C223.81 127.224 224.859 140.346 224.994 148.079C227.34 147.949 237.905 137.591 236.909 129.732H236.905ZM120.498 176.974H135.065C139.178 176.87 142.265 174.96 143.337 174.039C148.236 169.82 144.831 160.558 139.12 159.893C127.77 158.572 122.934 167.564 120.498 176.974Z" fill="var(--fill-0, #262625)"/>
<path d="M53.1474 162.612C63.995 146.03 91.4727 146.61 99.597 165.308C113.074 196.323 81.6617 231.854 52.9143 208.407C52.9143 208.407 53.511 211.318 52.7347 213.498C52.322 214.657 38.3836 214.37 38.1503 212.303C35.6515 190.068 39.0161 120.236 39.0161 120.236C39.4199 118.282 45.9651 118.52 47.6027 118.596C49.4151 118.682 53.8742 118.596 54.4083 120.74L53.1474 162.607V162.612ZM81.7738 167.37C75.2732 160.257 65.2782 162.796 59.0829 169.056C49.2627 178.973 51.3932 203.068 67.5883 203.81C86.7486 204.686 92.971 179.62 81.769 167.37H81.7738Z" fill="var(--fill-0, #262625)"/>
</g>
</svg>
