<svg preserveAspectRatio="none" width="100%" height="100%" overflow="visible" style="display: block;" viewBox="0 0 340 200" fill="none" xmlns="http://www.w3.org/2000/svg">
<g id="Vector">
<path d="M122.775 76.1585C108.158 94.8615 67.687 97.2996 61.9672 69.5222C59.2505 56.3326 63.886 41.1122 75.5044 33.5936C90.5538 23.849 117.176 29.5077 111.784 51.6474C108.146 66.6015 89.2289 67.3378 76.7132 66.6015C74.3953 68.0907 81.158 74.9522 82.5453 75.93C92.8218 83.153 108.07 75.6178 116.349 68.2781C124.067 61.4378 124.939 58.8537 125.28 48.5433C125.454 43.2967 124.516 37.9041 124.482 32.9237C124.482 32.4244 124.786 31.9751 125.247 31.7754C128.566 30.3524 136.923 29.1499 138.518 32.2538C138.983 33.1567 138.701 38.2578 139.573 37.5048C140.446 36.7517 140.89 35.4701 142.481 34.1803C149.866 28.1929 163.321 26.9238 169.867 33.7767C179.696 44.0622 172.925 62.4863 175.16 74.1989C176.044 78.83 181.527 78.0352 184.398 75.7507C184.875 75.3722 186.279 74.2863 187.351 70.8826C187.883 69.2018 187.488 65.0037 187.496 63.0522C187.588 43.5796 201.233 24.935 223.423 29.5951C226.14 30.1651 232.574 35.8904 232.574 35.8904L232.699 2.217C232.761 -0.371026 246.547 -1.13661 246.792 2.3543C247.05 6.04492 246.967 16.3096 246.863 20.6951C246.518 35.4161 244.147 55.8915 245.609 70.1381C245.941 73.3667 247.017 75.8674 249.447 77.4526C250.83 78.3555 252.612 78.447 254.082 77.7022C257.057 76.1963 259.636 72.9341 260.446 70.0463C261.784 65.2741 260.076 33.3731 260.458 30.9141C260.621 29.1083 274.108 28.3968 274.764 31.3676L274.686 70.1048C276.538 82.1793 287.521 79.7704 293.083 71.9811C299.592 62.8689 296.364 39.423 296.884 31.9709C297.116 28.6256 310.807 28.5008 310.733 31.2344C310.579 37.0013 311.165 54.6181 311.181 56.4115L311.38 78.6633C312.336 78.8467 321.333 71.8441 326.314 66.1978C329.761 62.2907 331.776 56.2659 332.324 56.0078C333.948 55.2422 338.297 55.6667 339.394 57.3559C341.317 60.3226 338.198 66.9174 336.491 69.7426C330.979 78.8674 319.954 84.3348 310.716 88.9155C309.802 104.149 304.124 121.981 289.577 129.159C265.522 141.026 254.705 116.901 273.813 100.899C280.094 95.6396 287.097 94.283 293.27 90.0433C297.141 87.3844 297.212 86.3359 297.054 81.5759C295.97 82.8244 294.686 83.9559 293.287 85.0711C283.08 93.1763 269.352 94.2289 263.026 81.16C255.806 91.9115 237.068 95.9266 233.147 80.3278C226.501 91.4704 211.904 93.9337 200.701 88.5163C197.042 86.7478 194.77 84.2596 192.273 81.1392C188.854 85.6163 185.428 89.9974 179.376 90.68C153.414 93.6133 162.457 65.1826 160.962 50.5863C159.454 35.8571 141.439 44.5822 139.241 55.883C138.522 59.5863 138.302 68.0367 138.111 72.2433C137.999 74.6981 138.564 84.4885 138.145 87.7255C138.07 88.3167 137.704 88.8326 137.168 89.0989C136.126 89.6148 134.83 89.5648 133.783 89.6022C132.487 89.6481 126.036 89.6689 125.064 89.4567C124.266 89.2818 122.767 88.7452 122.767 87.1848V76.1711L122.775 76.1585ZM75.8825 54.9593H90.6163C99.7172 54.9593 103.506 43.563 94.6704 40.0885C89.5944 38.0956 84.3854 40.5337 81.0663 44.5615C78.649 47.4948 77.0288 51.3478 75.8825 54.9593ZM215.626 40.513C195.247 43.5922 198.932 85.9867 220.528 77.4318C238.086 70.4752 237.417 37.2218 215.626 40.513ZM281.037 107.486C277.589 110.851 274.499 115.116 277.892 118.586C278.943 119.66 280.509 120.018 281.921 119.506C290.051 116.552 291.882 108.442 295.127 100.882C296.472 97.7492 296.028 98.2441 293.311 99.5422C289.079 101.569 281.897 106.649 281.037 107.49V107.486Z" fill="var(--fill-0, #262625)"/>
<path d="M12.8561 2.34183C12.6277 10.185 12.6484 35.6782 12.3951 37.9126L19.17 33.2733C31.2328 25.9336 49.5095 29.2165 55.624 42.6226C66.1001 65.5818 55.1591 93.8255 25.4755 90.6967C21.5917 90.2889 14.4305 86.0407 12.3951 82.5537L12.6028 88.2C10.8997 90.8711 0.652153 89.5815 0 87.917L0.195231 2.13795C0.141231 1.48054 1.92323 0.877229 3.46846 0.540203C5.3917 0.115801 9.01798 0.0617101 10.7252 0.515237C12.0088 0.856426 12.8852 1.37236 12.8561 2.34599V2.34183ZM19.2863 46.8956C10.3348 55.4419 10.2642 76.9407 24.4288 78.8922C38.5933 80.8437 47.2334 70.783 45.842 56.7611C44.4088 42.3437 29.9326 36.7267 19.2863 46.8956Z" fill="var(--fill-0, #262625)"/>
<path d="M239.32 140.863C254.452 146.443 244.151 169.186 246.065 181.494C247.648 191.692 259.69 181.082 261.152 176.73C261.842 174.691 261.468 168.928 261.829 166.186C264.122 148.652 279.67 134.102 297.989 137.797C306.625 139.536 310.118 146.88 309.54 156.196C309.208 161.563 299.646 165.054 296.431 162.225C294.042 160.128 297.274 157.103 297.407 153.799C297.552 150.192 294.508 146.289 287.924 148.677C274.748 153.466 272.438 176.18 283.413 184.406C291.982 190.826 306.354 186.158 314.276 180.479C316.49 178.893 322.45 171.641 324.856 170.289C326.721 169.24 330.397 169.843 331.427 172.061C333.824 180.071 316.951 192.636 310.641 195.536C295.882 202.314 274.291 201.919 265.115 186.732L264.251 186.986C258.959 196.464 240.15 204.594 234.111 191.812C230.929 185.08 233.097 175.564 233.185 168.246C233.284 159.991 234.892 147.97 222.388 152.859C214.122 156.092 208.598 171.624 208.249 179.85C208.108 183.15 208.22 193.993 208.191 196.419C208.153 199.635 195.177 200.754 194.878 196.872C194.77 195.457 195.334 185.567 194.429 187.681C190.292 197.354 175.533 203.051 165.161 196.864C160.912 194.33 158.635 189.911 158.266 185.068C146.834 194.729 132.582 202.868 117.047 198.919C87.6088 191.438 91.6921 144.512 120.549 138.521C137.181 135.067 153.36 148.174 143.694 165.067C137.575 175.76 123.228 174.999 112.262 174.728C110.775 174.691 110.588 174.479 111.344 176.072C112.719 178.98 114.036 181.872 116.76 183.828C131.482 194.421 156.937 172.789 157.323 169.694L159.213 151.145C158.781 149.659 152.218 150.516 148.118 150.516C146.265 150.516 146.523 138.683 149.26 138.783L159.304 138.924C159.304 138.924 159.084 124.133 159.304 118.969C159.408 116.519 172.779 116.177 172.908 119.643L172.584 138.92H186.072C188.177 138.92 188.099 151.494 186.072 151.39H172.169C172.231 160.016 171.105 169.989 172.169 178.614C172.692 182.867 176.169 185.542 180.771 185.005C184.14 184.614 193.104 177.154 193.47 171.167C194.591 152.651 188.053 105.517 212.27 104.061C226.144 103.225 230.622 110.452 230.863 123.629C231.162 139.794 208.332 147.957 208.319 148.444C208.253 150.516 208.153 151.436 208.274 152.638C213.852 147.616 227.203 136.395 239.332 140.863H239.32ZM219.356 120.122C219.049 117.696 217.641 114.713 214.721 115.229C207.231 117.8 208.203 129.95 208.328 137.11C210.5 136.99 220.283 127.399 219.361 120.122H219.356ZM111.572 163.864H125.06C128.869 163.769 131.727 162 132.719 161.147C137.255 157.24 134.103 148.665 128.815 148.049C118.306 146.826 113.828 155.151 111.572 163.864Z" fill="var(--fill-0, #262625)"/>
<path d="M49.2106 150.566C59.2546 135.213 84.697 135.75 92.2195 153.063C104.698 181.781 75.6127 214.68 48.9947 192.969C48.9947 192.969 49.5472 195.665 48.8284 197.683C48.4463 198.757 35.5404 198.49 35.3243 196.577C33.0106 175.989 36.126 111.33 36.126 111.33C36.4999 109.52 42.5602 109.74 44.0766 109.811C45.7548 109.89 49.8835 109.811 50.378 111.796L49.2106 150.562V150.566ZM75.7165 154.973C69.6974 148.386 60.4428 150.737 54.7064 156.533C45.6136 165.716 47.5863 188.026 62.5818 188.713C80.3228 189.524 86.0843 166.315 75.7121 154.973H75.7165Z" fill="var(--fill-0, #262625)"/>
</g>
</svg>
