<svg preserveAspectRatio="none" width="100%" height="100%" overflow="visible" style="display: block;" viewBox="0 0 18 22" fill="none" xmlns="http://www.w3.org/2000/svg">
<path id="Vector" d="M1 18.5V3.5C1 2.83696 1.26339 2.20107 1.73223 1.73223C2.20107 1.26339 2.83696 1 3.5 1H16C16.2652 1 16.5196 1.10536 16.7071 1.29289C16.8946 1.48043 17 1.73478 17 2V20C17 20.2652 16.8946 20.5196 16.7071 20.7071C16.5196 20.8946 16.2652 21 16 21H3.5C2.83696 21 2.20107 20.7366 1.73223 20.2678C1.26339 19.7989 1 19.163 1 18.5ZM1 18.5C1 17.837 1.26339 17.2011 1.73223 16.7322C2.20107 16.2634 2.83696 16 3.5 16H17M13 7.2C12.9948 6.61814 12.7613 6.06159 12.3499 5.65013C11.9384 5.23868 11.3819 5.00522 10.8 5C10 5 9.4 5.3 9 5.9C8.6 5.3 8 5 7.2 5C6.61814 5.00522 6.06159 5.23868 5.65013 5.65013C5.23868 6.06159 5.00522 6.61814 5 7.2C5 7.8 5.3 8.4 5.7 8.8C6.78915 9.87779 7.88921 10.9445 9 12C10.1058 10.9728 11.2058 9.93949 12.3 8.9C12.7485 8.44791 13.0001 7.83684 13 7.2Z" stroke="var(--stroke-0, #262625)" stroke-width="2" stroke-linecap="round" stroke-linejoin="round"/>
</svg>
