<svg preserveAspectRatio="none" width="100%" height="100%" overflow="visible" style="display: block;" viewBox="0 0 21 10" fill="none" xmlns="http://www.w3.org/2000/svg">
<path id="Vector" d="M1.00022 9L5.00022 1L9.00022 9M2.00022 7H8.00022M13.0002 5H17.5002C18.0307 5 18.5394 5.21071 18.9144 5.58579C19.2895 5.96086 19.5002 6.46957 19.5002 7C19.5002 7.53043 19.2895 8.03914 18.9144 8.41421C18.5394 8.78929 18.0307 9 17.5002 9H13.0002V1H17.0002C17.5307 1 18.0394 1.21071 18.4144 1.58579C18.7895 1.96086 19.0002 2.46957 19.0002 3C19.0002 3.53043 18.7895 4.03914 18.4144 4.41421C18.0394 4.78929 17.5307 5 17.0002 5" stroke="var(--stroke-0, #262625)" stroke-width="2" stroke-linecap="round" stroke-linejoin="round"/>
</svg>
