<svg preserveAspectRatio="none" width="100%" height="100%" overflow="visible" style="display: block;" viewBox="0 0 16 24" fill="none" xmlns="http://www.w3.org/2000/svg">
<path id="Vector" d="M8.92827 7.66671C7.55431 7.66671 6.24273 8.0194 5.13142 8.68883L3.52108 9.77943C3.54898 9.10829 3.56211 7.28834 3.57525 5.37766C3.58838 3.52861 3.60315 1.61621 3.62942 0.676273C3.64091 0.304751 3.265 0.162648 2.98266 0.0873163C2.76926 0.0308175 2.44259 0 2.0634 0C1.68421 0 1.27218 0.0342417 1.0079 0.0924526C0.356211 0.232843 0.0361136 0.412612 0.0525289 0.61635L0 23.0994C0 23.1131 0.00328306 23.1268 0.00820764 23.1388C0.149379 23.4949 1.29188 23.685 2.06176 23.685C2.50661 23.685 3.28962 23.6268 3.54406 23.233C3.55555 23.2142 3.56211 23.1919 3.56047 23.1696L3.51943 22.0534C4.26797 22.9436 5.9292 23.8408 6.85174 23.9367C7.25391 23.9795 7.6528 24 8.03692 24C10.8981 24 13.2471 22.8101 14.6473 20.6495C16.3332 18.0505 16.4514 14.4226 14.956 11.1816C13.9546 9.01241 11.645 7.665 8.92663 7.665L8.92827 7.66671ZM10.9523 19.3072C10.1233 20.2129 8.9414 20.6923 7.53461 20.6923C7.23421 20.6923 6.92068 20.67 6.60386 20.6272C5.32347 20.4526 4.3796 19.6239 3.94623 18.2953C3.3044 16.3281 3.90027 13.7497 5.30049 12.4263C6.21975 11.5583 7.27853 11.0994 8.36194 11.0994C10.3679 11.0994 11.929 12.6797 12.1555 14.9431C12.3328 16.7151 11.906 18.2645 10.9539 19.3055L10.9523 19.3072Z" fill="var(--fill-0, #262625)"/>
</svg>
