<svg preserveAspectRatio="none" width="100%" height="100%" overflow="visible" style="display: block;" viewBox="0 0 22 22" fill="none" xmlns="http://www.w3.org/2000/svg">
<path id="Vector" d="M11 1V3M11 19V21M3.90002 3.8999L5.30002 5.2999M16.7 16.7L18.1 18.1M1 11H3M19 11H21M5.30002 16.7L3.90002 18.1M18.1 3.8999L16.7 5.2999M11 7C10.4984 7.5362 10.2249 8.24634 10.2371 8.98047C10.2493 9.71459 10.5464 10.4152 11.0656 10.9344C11.5848 11.4536 12.2854 11.7507 13.0195 11.7629C13.7537 11.7751 14.4638 11.5016 15 11C15 11.7911 14.7654 12.5645 14.3259 13.2223C13.8864 13.8801 13.2616 14.3928 12.5307 14.6955C11.7998 14.9983 10.9956 15.0775 10.2196 14.9231C9.44372 14.7688 8.73098 14.3878 8.17157 13.8284C7.61216 13.269 7.2312 12.5563 7.07686 11.7804C6.92252 11.0044 7.00173 10.2002 7.30448 9.46927C7.60723 8.73836 8.11992 8.11365 8.77772 7.67412C9.43552 7.2346 10.2089 7 11 7Z" stroke="var(--stroke-0, #262625)" stroke-width="2" stroke-linecap="round" stroke-linejoin="round"/>
</svg>
