<svg preserveAspectRatio="none" width="100%" height="100%" overflow="visible" style="display: block;" viewBox="0 0 22 22" fill="none" xmlns="http://www.w3.org/2000/svg">
<path id="Vector" d="M11 16V21M13.9999 8.34V6C13.9999 5.73478 14.1052 5.48043 14.2928 5.29289C14.4803 5.10536 14.7347 5 14.9999 5C15.5303 5 16.039 4.78929 16.4141 4.41421C16.7892 4.03914 16.9999 3.53043 16.9999 3C16.9999 2.46957 16.7892 1.96086 16.4141 1.58579C16.039 1.21071 15.5303 1 14.9999 1H6.88989M1 1L21 21M8 8V9.76C7.9998 10.1321 7.89581 10.4967 7.69972 10.813C7.50363 11.1292 7.22321 11.3844 6.89 11.55L5.11 12.45C4.77679 12.6156 4.49637 12.8708 4.30028 13.187C4.10419 13.5033 4.0002 13.8679 4 14.24V15C4 15.2652 4.10536 15.5196 4.29289 15.7071C4.48043 15.8946 4.73478 16 5 16H16" stroke="var(--stroke-0, #262625)" stroke-width="2" stroke-linecap="round" stroke-linejoin="round"/>
</svg>
