<svg preserveAspectRatio="none" width="100%" height="100%" overflow="visible" style="display: block;" viewBox="0 0 21 21" fill="none" xmlns="http://www.w3.org/2000/svg">
<path id="Vector" d="M12.9943 10.04L4.62132 18.413C4.2235 18.8109 3.68393 19.0344 3.12132 19.0344C2.55871 19.0344 2.01915 18.8109 1.62132 18.413C1.2235 18.0152 1 17.4756 1 16.913C1 16.3504 1.2235 15.8109 1.62132 15.413L9.99432 7.04004M15.9944 13.04L19.9944 9.04004M19.4944 9.54L17.5804 7.626C17.2053 7.25102 16.9945 6.74239 16.9944 6.212V5.04L14.7344 2.78C13.6189 1.66518 12.1094 1.03436 10.5324 1.024L6.99438 1L7.91438 1.82C8.56784 2.39939 9.09108 3.1107 9.4496 3.90704C9.80813 4.70339 9.9938 5.56667 9.99438 6.44V8.04L11.9944 10.04H13.1664C13.6968 10.0401 14.2054 10.2509 14.5804 10.626L16.4944 12.54" stroke="var(--stroke-0, #262625)" stroke-width="2" stroke-linecap="round" stroke-linejoin="round"/>
</svg>
