<svg preserveAspectRatio="none" width="100%" height="100%" overflow="visible" style="display: block;" viewBox="0 0 23 23" fill="none" xmlns="http://www.w3.org/2000/svg">
<path id="Vector" d="M1 21.0212L2 20.0212M2 20.0212H5L14 11.0212M2 20.0212V17.0212L11 8.02124M14.0001 5.02132L17.4001 1.62132C17.7979 1.2235 18.3375 1 18.9001 1C19.4627 1 20.0023 1.2235 20.4001 1.62132C20.7979 2.01914 21.0214 2.55871 21.0214 3.12132C21.0214 3.68393 20.7979 4.2235 20.4001 4.62132L17.0001 8.02132L17.4001 8.42132C17.5971 8.6183 17.7533 8.85216 17.8599 9.10953C17.9665 9.3669 18.0214 9.64274 18.0214 9.92132C18.0214 10.1999 17.9665 10.4757 17.8599 10.7331C17.7533 10.9905 17.5971 11.2243 17.4001 11.4213C17.2031 11.6183 16.9692 11.7746 16.7119 11.8812C16.4545 11.9878 16.1787 12.0426 15.9001 12.0426C15.6215 12.0426 15.3457 11.9878 15.0883 11.8812C14.8309 11.7746 14.5971 11.6183 14.4001 11.4213L10.6001 7.62132C10.4031 7.42434 10.2468 7.19048 10.1402 6.93311C10.0336 6.67574 9.97876 6.3999 9.97876 6.12132C9.97876 5.84274 10.0336 5.5669 10.1402 5.30953C10.2468 5.05216 10.4031 4.8183 10.6001 4.62132C10.7971 4.42434 11.0309 4.26808 11.2883 4.16148C11.5457 4.05487 11.8215 4 12.1001 4C12.3787 4 12.6545 4.05487 12.9119 4.16148C13.1692 4.26808 13.4031 4.42434 13.6001 4.62132L14.0001 5.02132Z" stroke="var(--stroke-0, #262625)" stroke-width="2" stroke-linecap="round" stroke-linejoin="round"/>
</svg>
