<svg preserveAspectRatio="none" width="100%" height="100%" overflow="visible" style="display: block;" viewBox="0 0 22 22" fill="none" xmlns="http://www.w3.org/2000/svg">
<path id="Vector" d="M17.84 11.25L19.56 9.53999H19.54C20.4606 8.58603 20.9651 7.30572 20.9426 5.98017C20.9201 4.65461 20.3725 3.39216 19.42 2.46999C18.4869 1.57019 17.2412 1.06738 15.945 1.06738C14.6488 1.06738 13.4031 1.57019 12.47 2.46999L10.75 4.17999M4.16994 10.75L2.45994 12.46C1.53931 13.414 1.03486 14.6943 1.05736 16.0198C1.07986 17.3454 1.62746 18.6078 2.57994 19.53C3.51299 20.4298 4.7587 20.9326 6.05494 20.9326C7.35118 20.9326 8.59689 20.4298 9.52994 19.53L11.2399 17.82M7 1V4M1 7H4M15 18V21M18 15H21" stroke="var(--stroke-0, #262625)" stroke-width="2" stroke-linecap="round" stroke-linejoin="round"/>
</svg>
