<svg preserveAspectRatio="none" width="100%" height="100%" overflow="visible" style="display: block;" viewBox="0 0 22 23" fill="none" xmlns="http://www.w3.org/2000/svg">
<path id="Vector" d="M8.30005 5.34473C9.08217 5.92134 10.0283 6.23242 11 6.23242C11.9717 6.23242 12.9179 5.92134 13.7 5.34473M6.8999 9.84473C7.7999 10.6447 9.2999 11.1447 10.9999 11.1447C12.6999 11.1447 14.1999 10.6447 15.0999 9.84473M6.5 11.3449L1.8 14.0449C1.3 14.3449 1 14.7449 1 15.1449C1 15.5449 1.3 15.9449 1.8 16.2449L9.4 20.7449C10.3 21.2449 11.5 21.2449 12.4 20.7449L20 16.2449C20.7 15.9449 21 15.5449 21 15.1449C21 14.7449 20.7 14.3449 20.2 14.0449L15.5 11.2449M12.9 2.64486C12.833 2.19611 12.61 1.78532 12.2702 1.48464C11.9304 1.18396 11.4955 1.0126 11.042 1.00067C10.5884 0.988733 10.1451 1.13698 9.78997 1.41937C9.43484 1.70177 9.19054 2.10025 9.1 2.54486L6.1 12.5449C6 12.7449 6 12.9449 6 13.1449C6 14.8449 8.2 16.1449 11 16.1449C13.8 16.1449 16 14.8449 16 13.1449C16 12.9449 16 12.7449 15.9 12.6449L12.9 2.64486Z" stroke="var(--stroke-0, #262625)" stroke-width="2" stroke-linecap="round" stroke-linejoin="round"/>
</svg>
