<svg preserveAspectRatio="none" width="100%" height="100%" overflow="visible" style="display: block;" viewBox="0 0 22 22" fill="none" xmlns="http://www.w3.org/2000/svg">
<path id="Vector" d="M3.5 9H3C2.46957 9 1.96086 8.78929 1.58579 8.41421C1.21071 8.03914 1 7.53043 1 7V3C1 2.46957 1.21071 1.96086 1.58579 1.58579C1.96086 1.21071 2.46957 1 3 1H19C19.5304 1 20.0391 1.21071 20.4142 1.58579C20.7893 1.96086 21 2.46957 21 3V7C21 7.53043 20.7893 8.03914 20.4142 8.41421C20.0391 8.78929 19.5304 9 19 9H18.5M3.5 13H3C2.46957 13 1.96086 13.2107 1.58579 13.5858C1.21071 13.9609 1 14.4696 1 15V19C1 19.5304 1.21071 20.0391 1.58579 20.4142C1.96086 20.7893 2.46957 21 3 21H19C19.5304 21 20.0391 20.7893 20.4142 20.4142C20.7893 20.0391 21 19.5304 21 19V15C21 14.4696 20.7893 13.9609 20.4142 13.5858C20.0391 13.2107 19.5304 13 19 13H18.5M5 5H5.01M5 17H5.01M14.7 12.4001L13.8 12.1001M8.20005 9.9001L7.30005 9.6001M9.59998 14.7L9.89997 13.8M12.6 14.7L12.2 13.7M9.80002 8.30005L9.40002 7.30005M7.30005 12.6L8.30005 12.2M13.7 9.7999L14.7 9.3999M12.4 7.30005L12.1 8.20005M14 11C14 12.6569 12.6569 14 11 14C9.34315 14 8 12.6569 8 11C8 9.34315 9.34315 8 11 8C12.6569 8 14 9.34315 14 11Z" stroke="var(--stroke-0, #262625)" stroke-width="2" stroke-linecap="round" stroke-linejoin="round"/>
</svg>
