<svg preserveAspectRatio="none" width="100%" height="100%" overflow="visible" style="display: block;" viewBox="0 0 22 22" fill="none" xmlns="http://www.w3.org/2000/svg">
<path id="Vector" d="M1 1L21 21M17.8899 12.23C17.9621 11.824 17.9989 11.4124 17.9999 11V9M4.00001 9V11C3.97966 12.3992 4.37913 13.7723 5.14684 14.9422C5.91456 16.1121 7.01529 17.0251 8.30696 17.5633C9.59864 18.1015 11.022 18.2402 12.3933 17.9616C13.7645 17.6829 15.0208 16.9997 16 16M14.0001 8.33999V3.99999C13.996 3.32636 13.7653 2.6737 13.3452 2.14711C12.9251 1.62053 12.34 1.25066 11.6841 1.09708C11.0282 0.943495 10.3397 1.01514 9.72945 1.30046C9.11922 1.58579 8.62278 2.06819 8.32007 2.66999M8 8V11C8.00052 11.593 8.17675 12.1725 8.50643 12.6653C8.83611 13.1582 9.30445 13.5423 9.85231 13.7691C10.4002 13.996 11.0029 14.0554 11.5845 13.9399C12.1661 13.8243 12.7005 13.539 13.12 13.12M11 18V21" stroke="var(--stroke-0, #262625)" stroke-width="2" stroke-linecap="round" stroke-linejoin="round"/>
</svg>
