<svg preserveAspectRatio="none" width="100%" height="100%" overflow="visible" style="display: block;" viewBox="0 0 22 21" fill="none" xmlns="http://www.w3.org/2000/svg">
<path id="Vector" d="M7 1L8.88 2.88M13.1201 2.88L15.0001 1M8.00007 6.13012V5.13012C7.98194 4.72486 8.04611 4.32014 8.1887 3.94037C8.33129 3.5606 8.54934 3.21365 8.8297 2.92047C9.11006 2.62728 9.44692 2.39394 9.81994 2.23453C10.193 2.07511 10.5944 1.99292 11.0001 1.99292C11.4057 1.99292 11.8072 2.07511 12.1802 2.23453C12.5532 2.39394 12.8901 2.62728 13.1704 2.92047C13.4508 3.21365 13.6689 3.5606 13.8114 3.94037C13.954 4.32014 14.0182 4.72486 14.0001 5.13012V6.13012M11 19C7.7 19 5 16.3 5 13V10C5 8.93913 5.42143 7.92172 6.17157 7.17157C6.92172 6.42143 7.93913 6 9 6H13C14.0609 6 15.0783 6.42143 15.8284 7.17157C16.5786 7.92172 17 8.93913 17 10V13C17 16.3 14.3 19 11 19ZM11 19V10M5.53 8C3.6 7.8 2 6.1 2 4M5 12H1M2 20C2 17.9 3.7 16.1 5.8 16M19.97 4C19.97 6.1 18.37 7.8 16.47 8M21 12H17M16.2 16C18.3 16.1 20 17.9 20 20" stroke="var(--stroke-0, #262625)" stroke-width="2" stroke-linecap="round" stroke-linejoin="round"/>
</svg>
