<svg preserveAspectRatio="none" width="100%" height="100%" overflow="visible" style="display: block;" viewBox="0 0 18 22" fill="none" xmlns="http://www.w3.org/2000/svg">
<path id="Vector" d="M5 11H10M12.9999 8.5001C12.4685 7.87874 11.7593 7.43517 10.9681 7.22915C10.1768 7.02313 9.34139 7.06455 8.57437 7.34784C7.80736 7.63112 7.14559 8.14265 6.67818 8.81354C6.21078 9.48443 5.96021 10.2824 5.96021 11.1001C5.96021 11.9178 6.21078 12.7158 6.67818 13.3867C7.14559 14.0575 7.80736 14.5691 8.57437 14.8524C9.34139 15.1356 10.1768 15.1771 10.9681 14.971C11.7593 14.765 12.4685 14.3215 12.9999 13.7001M1 1V21L3 20L5 21L7 20L9 21L11 20L13 21L15 20L17 21V1L15 2L13 1L11 2L9 1L7 2L5 1L3 2L1 1Z" stroke="var(--stroke-0, #262625)" stroke-width="2" stroke-linecap="round" stroke-linejoin="round"/>
</svg>
