<svg preserveAspectRatio="none" width="100%" height="100%" overflow="visible" style="display: block;" viewBox="0 0 22 22" fill="none" xmlns="http://www.w3.org/2000/svg">
<path id="Vector" d="M9.26794 20.0002C9.44349 20.3043 9.69596 20.5567 9.99999 20.7322C10.304 20.9078 10.6489 21.0002 10.9999 21.0002C11.351 21.0002 11.6959 20.9078 11.9999 20.7322C12.3039 20.5567 12.5564 20.3043 12.7319 20.0002M16 16.0003H2.99999C2.80619 16.0004 2.61655 15.9441 2.45413 15.8384C2.2917 15.7327 2.1635 15.5821 2.0851 15.4048C2.00671 15.2276 1.9815 15.0314 2.01255 14.8401C2.0436 14.6488 2.12957 14.4706 2.25999 14.3273C3.58999 12.9563 4.99999 11.4993 4.99999 7.0003C4.99985 6.41011 5.08678 5.82312 5.25799 5.2583M1 1.00024L21 21.0002M7.66797 2.01023C8.57145 1.40692 9.62179 1.06023 10.7069 1.00716C11.792 0.954098 12.8712 1.19665 13.8292 1.70893C14.7872 2.22121 15.5882 2.98401 16.1466 3.9159C16.7051 4.8478 17 5.91383 17 7.00023C17 9.68723 17.77 11.6532 18.707 13.0502" stroke="var(--stroke-0, #262625)" stroke-width="2" stroke-linecap="round" stroke-linejoin="round"/>
</svg>
