<svg preserveAspectRatio="none" width="100%" height="100%" overflow="visible" style="display: block;" viewBox="0 0 20 20" fill="none" xmlns="http://www.w3.org/2000/svg">
<path id="Vector" d="M10 5V9M5.99788 7.00305C5.44121 7.74624 5.10249 8.62977 5.01968 9.55463C4.93687 10.4795 5.11324 11.4091 5.52902 12.2394C5.9448 13.0697 6.58358 13.7678 7.37376 14.2554C8.16395 14.7431 9.07432 15.0011 10.0029 15.0005C10.9314 15 11.8415 14.7408 12.6311 14.2522C13.4206 13.7635 14.0585 13.0646 14.4733 12.2338C14.888 11.403 15.0632 10.4732 14.9793 9.54841C14.8953 8.62365 14.5555 7.74055 13.9979 6.99805M3 1H17C18.1046 1 19 1.89543 19 3V17C19 18.1046 18.1046 19 17 19H3C1.89543 19 1 18.1046 1 17V3C1 1.89543 1.89543 1 3 1Z" stroke="var(--stroke-0, #262625)" stroke-width="2" stroke-linecap="round" stroke-linejoin="round"/>
</svg>
