<svg preserveAspectRatio="none" width="100%" height="100%" overflow="visible" style="display: block;" viewBox="0 0 21 21" fill="none" xmlns="http://www.w3.org/2000/svg">
<path id="Vector" d="M1 20C1 17 2.85 14.64 6.08 14C8.5 13.52 11 12 12 11M9.99998 19C8.24404 19.0053 6.55023 18.3505 5.2545 17.1654C3.95876 15.9803 3.15575 14.3516 3.00471 12.6021C2.85368 10.8527 3.36567 9.11037 4.43913 7.72075C5.51259 6.33113 7.06911 5.39571 8.79998 5.10001C14.5 4.00001 16 3.48001 18 1.00001C19 3.00001 20 5.18001 20 9.00001C20 14.5 15.22 19 9.99998 19Z" stroke="var(--stroke-0, #262625)" stroke-width="2" stroke-linecap="round" stroke-linejoin="round"/>
</svg>
