<svg preserveAspectRatio="none" width="100%" height="100%" overflow="visible" style="display: block;" viewBox="0 0 23 17" fill="none" xmlns="http://www.w3.org/2000/svg">
<path id="Vector" d="M3.925 15.2C0.025 11.3 0.025 4.9 3.925 1M6.82485 12.3C4.52485 10 4.52485 6.20005 6.82485 3.80005M15.2249 3.90015C17.5249 6.20015 17.5249 10.0001 15.2249 12.4001M18.125 1C22.025 4.9 22.025 11.2 18.125 15.1M13.0249 8.1001C13.0249 9.20467 12.1295 10.1001 11.0249 10.1001C9.92033 10.1001 9.0249 9.20467 9.0249 8.1001C9.0249 6.99553 9.92033 6.1001 11.0249 6.1001C12.1295 6.1001 13.0249 6.99553 13.0249 8.1001Z" stroke="var(--stroke-0, #262625)" stroke-width="2" stroke-linecap="round" stroke-linejoin="round"/>
</svg>
