<svg preserveAspectRatio="none" width="100%" height="100%" overflow="visible" style="display: block;" viewBox="0 0 22 22" fill="none" xmlns="http://www.w3.org/2000/svg">
<path id="Vector" d="M11 6.00029C12 5.44029 13.78 4.00029 16 4.00029C17.2955 3.9761 18.548 4.46496 19.4846 5.36034C20.4212 6.25572 20.9659 7.48502 21 8.78029C21 13.0003 18 21.0003 15 21.0003C13.75 21.0003 12.5 19.9403 11 19.9403C9.5 19.9403 8.25 21.0003 7 21.0003C4 21.0003 1 13.0003 1 8.78029C1.03147 7.48415 1.57536 6.25331 2.51253 5.35738C3.4497 4.46144 4.70375 3.97345 6 4.00029C8.22 4.00029 10 5.44029 11 6.00029ZM11 6.00029C11 3.00029 10 1.50022 9 1.00022" stroke="var(--stroke-0, #262625)" stroke-width="2" stroke-linecap="round" stroke-linejoin="round"/>
</svg>
