<svg preserveAspectRatio="none" width="100%" height="100%" overflow="visible" style="display: block;" viewBox="0 0 22 22" fill="none" xmlns="http://www.w3.org/2000/svg">
<path id="Vector" d="M1 1L21 21M6 6H3C2.46957 6 1.96086 6.21071 1.58579 6.58579C1.21071 6.96086 1 7.46957 1 8V17C1 17.5304 1.21071 18.0391 1.58579 18.4142C1.96086 18.7893 2.46957 19 3 19H19M8.5 3H13.5L16 6H19C19.5304 6 20.0391 6.21071 20.4142 6.58579C20.7893 6.96086 21 7.46957 21 8V15.5M13.121 14.1209C12.8455 14.4122 12.5143 14.6453 12.1471 14.8065C11.78 14.9676 11.3842 15.0535 10.9832 15.0591C10.5823 15.0647 10.1843 14.9898 9.81278 14.8389C9.44125 14.6881 9.10375 14.4642 8.82021 14.1807C8.53667 13.8972 8.31285 13.5596 8.16197 13.1881C8.0111 12.8166 7.93624 12.4186 7.94182 12.0177C7.94739 11.6167 8.03329 11.2209 8.19444 10.8538C8.35558 10.4866 8.5887 10.1554 8.88002 9.87988" stroke="var(--stroke-0, #262625)" stroke-width="2" stroke-linecap="round" stroke-linejoin="round"/>
</svg>
