<svg preserveAspectRatio="none" width="100%" height="100%" overflow="visible" style="display: block;" viewBox="0 0 22 23" fill="none" xmlns="http://www.w3.org/2000/svg">
<path id="Vector" d="M9 1H13M3.59999 10C2.99419 11.4562 2.83235 13.059 3.13482 14.607C3.43729 16.1549 4.19058 17.5789 5.29999 18.7C6.42107 19.8094 7.84506 20.5627 9.39301 20.8652C10.9409 21.1676 12.5438 21.0058 14 20.4M6.3999 6.40003C7.957 5.31969 9.84706 4.82722 11.7334 5.01035C13.6197 5.19349 15.3797 6.04034 16.6999 7.40003C18.0189 8.72671 18.8312 10.4737 18.9956 12.3372C19.16 14.2007 18.6662 16.0629 17.5999 17.6M1 1L21 21M11 11V9" stroke="var(--stroke-0, #262625)" stroke-width="2" stroke-linecap="round" stroke-linejoin="round"/>
</svg>
