<svg preserveAspectRatio="none" width="100%" height="100%" overflow="visible" style="display: block;" viewBox="0 0 22 20" fill="none" xmlns="http://www.w3.org/2000/svg">
<path id="Vector" d="M11 3C12.5 1.5 13.74 1 15.5 1C16.9587 1 18.3576 1.57946 19.3891 2.61091C20.4205 3.64236 21 5.04131 21 6.5C21 8.79 19.49 10.54 18 12L11 19L4 12C2.5 10.55 1 8.8 1 6.5C1 5.04131 1.57946 3.64236 2.61091 2.61091C3.64236 1.57946 5.04131 1 6.5 1C8.26 1 9.5 1.5 11 3ZM11 3L8.03998 5.96C7.8368 6.16171 7.67554 6.40162 7.5655 6.66593C7.45546 6.93023 7.3988 7.2137 7.3988 7.5C7.3988 7.7863 7.45546 8.06977 7.5655 8.33407C7.67554 8.59838 7.8368 8.83829 8.03998 9.04C8.85998 9.86 10.17 9.89 11.04 9.11L13.11 7.21C13.6288 6.73919 14.3044 6.47839 15.005 6.47839C15.7056 6.47839 16.3811 6.73919 16.9 7.21L19.86 9.87M17 13L15 11M14 16L12 14" stroke="var(--stroke-0, #262625)" stroke-width="2" stroke-linecap="round" stroke-linejoin="round"/>
</svg>
