<svg preserveAspectRatio="none" width="100%" height="100%" overflow="visible" style="display: block;" viewBox="0 0 22 22" fill="none" xmlns="http://www.w3.org/2000/svg">
<path id="Vector" d="M1 21L11 11M15.0001 7L13.8301 8.17M15.0001 7H17C18.0609 7 19.0783 6.57857 19.8284 5.82843C20.5786 5.07828 21 4.06087 21 3V1H19C17.9391 1 16.9217 1.42143 16.1716 2.17157C15.4214 2.92172 15 3.93913 15 5L15.0001 7ZM5.52997 16.47C6.18337 15.814 6.55023 14.9259 6.55023 14C6.55023 13.0741 6.18337 12.186 5.52997 11.53L3.99997 10L2.46997 11.53C1.81657 12.186 1.44971 13.0741 1.44971 14C1.44971 14.9259 1.81657 15.814 2.46997 16.47L3.99997 18M5.52997 16.47L3.99997 18M5.52997 16.47C6.18595 15.8166 7.07413 15.4497 8 15.4497C8.92587 15.4497 9.81402 15.8166 10.47 16.47L12 18L10.47 19.53C9.81402 20.1834 8.92587 20.5502 8 20.5502C7.07413 20.5502 6.18598 20.1834 5.53 19.53L3.99997 18M6.99997 7L6.46997 7.53C5.81657 8.18598 5.44971 9.07413 5.44971 10C5.44971 10.9259 5.81657 11.814 6.46997 12.47L7.99997 14M7.99997 14L9.52997 12.47M7.99997 14L9.53 15.53C10.186 16.1834 11.0741 16.5503 12 16.5503C12.9259 16.5503 13.814 16.1834 14.47 15.53L15 15M9.52997 12.47C10.08 11.92 10.41 11.22 10.51 10.5M9.52997 12.47C10.0638 11.9395 10.7548 11.5957 11.5 11.49M9.90991 4.26C10.0599 4 10.2499 3.75 10.4699 3.53L11.9999 2L13.5299 3.53C14.131 4.13401 14.4911 4.93655 14.5426 5.78711C14.5942 6.63767 14.3336 7.47782 13.8099 8.15M17.7401 12.09C18.0001 11.94 18.2501 11.75 18.4701 11.53L20.0001 10L18.4701 8.47004C17.8661 7.86897 17.0635 7.50889 16.213 7.45734C15.3624 7.40579 14.5223 7.66631 13.8501 8.19004M1 1L21 21" stroke="var(--stroke-0, #262625)" stroke-width="2" stroke-linecap="round" stroke-linejoin="round"/>
</svg>
