<svg preserveAspectRatio="none" width="100%" height="100%" overflow="visible" style="display: block;" viewBox="0 0 20 24" fill="none" xmlns="http://www.w3.org/2000/svg">
<g id="Vector">
<path d="M5.22144 4.29888C4.41792 4.29888 3.65088 4.49664 3.00096 4.872L2.0592 5.48352C2.07552 5.1072 2.0832 4.08672 2.09088 3.01536C2.09856 1.97856 2.1072 0.90624 2.12256 0.3792C2.12928 0.17088 1.90944 0.0912 1.74432 0.04896C1.61952 0.01728 1.42848 0 1.20672 0C0.98496 0 0.744 0.0192 0.58944 0.05184C0.20832 0.13056 0.02112 0.23136 0.03072 0.3456L0 12.9523C0 12.96 0.00192 12.9677 0.0048 12.9744C0.08736 13.1741 0.75552 13.2806 1.20576 13.2806C1.46592 13.2806 1.92384 13.248 2.07264 13.0272C2.07936 13.0166 2.0832 13.0042 2.08224 12.9917L2.05824 12.3658C2.496 12.865 3.46752 13.368 4.00704 13.4218C4.24224 13.4458 4.47552 13.4573 4.70016 13.4573C6.37344 13.4573 7.7472 12.7901 8.56608 11.5786C9.552 10.1213 9.62112 8.08704 8.74656 6.26976C8.16096 5.05344 6.81024 4.29792 5.22048 4.29792L5.22144 4.29888ZM6.40512 10.8259C5.92032 11.3338 5.22912 11.6026 4.4064 11.6026C4.23072 11.6026 4.04736 11.5901 3.86208 11.5661C3.11328 11.4682 2.56128 11.0035 2.30784 10.2586C1.93248 9.15552 2.28096 7.70976 3.09984 6.96768C3.63744 6.48096 4.25664 6.22368 4.89024 6.22368C6.06336 6.22368 6.97632 7.10976 7.1088 8.37888C7.21248 9.37248 6.96288 10.2413 6.40608 10.825L6.40512 10.8259Z" fill="var(--fill-0, #262625)"/>
<path d="M15.2986 14.9914C13.991 14.9914 12.8026 15.5405 12.0739 16.4698L12.2486 10.9776C12.2486 10.9718 12.2486 10.9661 12.2467 10.9613C12.1661 10.6531 11.6208 10.6358 11.2954 10.6262C11.2646 10.6253 11.2358 10.6243 11.2109 10.6234C11.1034 10.6186 11.0035 10.6166 10.9056 10.6166C10.2778 10.6166 9.95232 10.7078 9.912 10.895C9.912 10.8979 9.91104 10.9018 9.91104 10.9046C9.90624 10.9997 9.432 20.4461 9.7872 23.4422C9.82272 23.7427 11.0947 23.7514 11.2397 23.7514C11.9558 23.7514 11.9923 23.6554 12.0058 23.6189C12.0787 23.4259 12.073 23.1965 12.0576 23.0486C12.9187 23.6803 13.825 24 14.7533 24C16.1184 24 17.4422 23.2627 18.2938 22.0282C19.3229 20.5373 19.487 18.6634 18.7315 17.016C18.1594 15.767 16.8432 14.9914 15.2986 14.9914ZM16.5581 20.7226C16.1165 21.6749 15.263 22.2211 14.2166 22.2211C14.1715 22.2211 14.1264 22.2211 14.0803 22.2182C13.2547 22.1827 12.6202 21.7238 12.2928 20.928C11.8378 19.8202 12.1056 18.3552 12.9014 17.593C13.4218 17.0947 14.1082 16.7971 14.737 16.7971C15.2506 16.7971 15.7094 16.992 16.0656 17.3616C16.8816 18.2074 17.0842 19.5888 16.5581 20.7226Z" fill="var(--fill-0, #262625)"/>
</g>
</svg>
