<svg preserveAspectRatio="none" width="100%" height="100%" overflow="visible" style="display: block;" viewBox="0 0 22 22" fill="none" xmlns="http://www.w3.org/2000/svg">
<path id="Vector" d="M4 6.75659L8 10.7566M11 13.7566L15 17.7566M5 13.7566L1 9.75661L7.75 2.98661C9.23382 1.65793 11.1702 0.948087 13.1612 1.00296C15.1522 1.05783 17.0466 1.87326 18.455 3.28164C19.8633 4.69003 20.6788 6.58439 20.7336 8.57539C20.7885 10.5664 20.0787 12.5028 18.75 13.9866L12 20.7566L8 16.7566L14.39 10.3966C14.7052 9.98468 14.8601 9.47229 14.8258 8.95473C14.7916 8.43717 14.5705 7.94967 14.2037 7.5829C13.8369 7.21613 13.3494 6.99505 12.8319 6.96078C12.3143 6.92651 11.8019 7.08139 11.39 7.39661L5 13.7566Z" stroke="var(--stroke-0, #262625)" stroke-width="2" stroke-linecap="round" stroke-linejoin="round"/>
</svg>
