<svg preserveAspectRatio="none" width="100%" height="100%" overflow="visible" style="display: block;" viewBox="0 0 22 20" fill="none" xmlns="http://www.w3.org/2000/svg">
<path id="Vector" d="M11 1V6M8.17 15C8.01087 15.4524 7.9625 15.9363 8.02894 16.4112C8.09538 16.8861 8.27471 17.3382 8.55188 17.7295C8.82905 18.1208 9.196 18.44 9.62195 18.6603C10.0479 18.8806 10.5205 18.9955 11 18.9955C11.4795 18.9955 11.9521 18.8806 12.3781 18.6603C12.804 18.44 13.171 18.1208 13.4481 17.7295C13.7253 17.3382 13.9046 16.8861 13.9711 16.4112C14.0375 15.9363 13.9891 15.4524 13.83 15M5 6H17L21 15H1L5 6Z" stroke="var(--stroke-0, #262625)" stroke-width="2" stroke-linecap="round" stroke-linejoin="round"/>
</svg>
