<svg preserveAspectRatio="none" width="100%" height="100%" overflow="visible" style="display: block;" viewBox="0 0 20 20" fill="none" xmlns="http://www.w3.org/2000/svg">
<path id="Vector" d="M5 19C6.06087 19 7.07828 18.5786 7.82843 17.8284C8.57857 17.0783 9 16.0609 9 15V3C9 2.46957 8.78929 1.96086 8.41421 1.58579C8.03914 1.21071 7.53043 1 7 1H3C2.46957 1 1.96086 1.21071 1.58579 1.58579C1.21071 1.96086 1 2.46957 1 3V15C1 16.0609 1.42143 17.0783 2.17157 17.8284C2.92172 18.5786 3.93913 19 5 19ZM5 19H17C17.5304 19 18.0391 18.7893 18.4142 18.4142C18.7893 18.0391 19 17.5304 19 17V13C19 12.4696 18.7893 11.9609 18.4142 11.5858C18.0391 11.2107 17.5304 11 17 11H14.7M5 15H5.01M8.9999 6.00004L11.2999 3.70004C11.5232 3.47596 11.7886 3.29824 12.0808 3.17709C12.3731 3.05595 12.6864 2.99377 13.0027 2.99414C13.3191 2.99451 13.6322 3.05742 13.9242 3.17926C14.2161 3.30109 14.4811 3.47944 14.7039 3.70405L16.5999 5.60005C16.8305 5.82185 17.0144 6.08753 17.1408 6.38146C17.2673 6.67538 17.3336 6.99162 17.3361 7.31157C17.3385 7.63152 17.2769 7.94873 17.1549 8.24453C17.033 8.54034 16.8531 8.80877 16.6259 9.03405L7.8999 17.8" stroke="var(--stroke-0, #262625)" stroke-width="2" stroke-linecap="round" stroke-linejoin="round"/>
</svg>
