<svg preserveAspectRatio="none" width="100%" height="100%" overflow="visible" style="display: block;" viewBox="0 0 22 22" fill="none" xmlns="http://www.w3.org/2000/svg">
<path id="Vector" d="M16.0001 16H11.0001C9.9101 15.98 9.0601 16.92 8.5001 17.9C8.24402 18.355 7.90083 18.7552 7.49011 19.0776C7.07939 19.4 6.6092 19.6383 6.10637 19.779C5.60354 19.9197 5.07792 19.9599 4.55953 19.8975C4.04114 19.835 3.54013 19.6711 3.0851 19.415C2.63007 19.1589 2.22993 18.8157 1.90754 18.405C1.58514 17.9943 1.3468 17.5241 1.20612 17.0213C1.06544 16.5184 1.02517 15.9928 1.08763 15.4744C1.15008 14.956 1.31402 14.455 1.5701 14M8 2.39989C8.42001 1.91294 8.95123 1.53443 9.54863 1.29645C10.146 1.05847 10.792 0.968026 11.4318 1.03279C12.0716 1.09755 12.6863 1.31561 13.2239 1.66849C13.7615 2.02136 14.2061 2.49865 14.52 3.05989M5 15.9999L8.1 10.1999C8.2539 9.88165 8.33855 9.53439 8.34838 9.18102C8.3582 8.82765 8.29298 8.47621 8.157 8.1499M19.3 19.3C18.6233 19.7637 17.8203 20.0081 17 20M17.6001 12C18.453 12.1308 19.2408 12.534 19.8458 13.1492C20.4508 13.7645 20.8407 14.559 20.9571 15.414M11 5L11.6 6M1 1L21 21" stroke="var(--stroke-0, #262625)" stroke-width="2" stroke-linecap="round" stroke-linejoin="round"/>
</svg>
