<svg preserveAspectRatio="none" width="100%" height="100%" overflow="visible" style="display: block;" viewBox="0 0 22 22" fill="none" xmlns="http://www.w3.org/2000/svg">
<path id="Vector" d="M13 20.7639V16.7639C13 16.2335 12.7893 15.7248 12.4142 15.3497C12.0391 14.9746 11.5304 14.7639 11 14.7639C10.4696 14.7639 9.96086 14.9746 9.58579 15.3497C9.21071 15.7248 9 16.2335 9 16.7639V20.7639M17 8.76392L20.447 10.4879C20.6131 10.5709 20.7528 10.6985 20.8504 10.8564C20.9481 11.0143 20.9999 11.1963 21 11.3819V18.7639C21 19.2943 20.7893 19.8031 20.4142 20.1781C20.0391 20.5532 19.5304 20.7639 19 20.7639H3C2.46957 20.7639 1.96086 20.5532 1.58579 20.1781C1.21071 19.8031 1 19.2943 1 18.7639V11.3819C1.0001 11.1963 1.05188 11.0143 1.14955 10.8564C1.24722 10.6985 1.38692 10.5709 1.553 10.4879L5 8.76392M17 3.76392V20.7639M3 4.76393L10.106 1.21093C10.3836 1.07222 10.6897 1 11 1C11.3103 1 11.6164 1.07222 11.894 1.21093L19 4.76393M5 3.76392V20.7639M13 7.76392C13 8.86849 12.1046 9.76392 11 9.76392C9.89543 9.76392 9 8.86849 9 7.76392C9 6.65935 9.89543 5.76392 11 5.76392C12.1046 5.76392 13 6.65935 13 7.76392Z" stroke="var(--stroke-0, #262625)" stroke-width="2" stroke-linecap="round" stroke-linejoin="round"/>
</svg>
