<svg preserveAspectRatio="none" width="100%" height="100%" overflow="visible" style="display: block;" viewBox="0 0 22 22" fill="none" xmlns="http://www.w3.org/2000/svg">
<path id="Vector" d="M10.8999 11.0858L15.4139 6.57178M15.4139 6.57178C15.789 6.19679 15.9999 5.68825 16.0001 5.15786V3.81386C16.0002 3.28347 16.211 2.77484 16.5861 2.39986L17.7001 1.28586C17.887 1.10263 18.1383 1 18.4001 1C18.6618 1 18.9131 1.10263 19.1001 1.28586L20.7001 2.88586C20.8833 3.07279 20.9859 3.3241 20.9859 3.58586C20.9859 3.84761 20.8833 4.09893 20.7001 4.28586L19.5861 5.39986C19.2111 5.77496 18.7025 5.98574 18.1721 5.98586H16.8281C16.2977 5.98597 15.7889 6.19668 15.4139 6.57178ZM5 14.9858L7 16.9858M7.2 8.88584C7.7 7.78584 8.8 6.98584 10 6.98584C12.8 6.98584 15 9.18584 15 11.9858C15 13.1858 14.2 14.2858 13.1 14.7858L12.2 15.1858C11.8484 15.3392 11.5484 15.5904 11.3356 15.9096C11.1229 16.2287 11.0064 16.6023 11 16.9858C11 18.0467 10.5786 19.0641 9.82843 19.8143C9.07828 20.5644 8.06087 20.9858 7 20.9858C3.7 20.9858 1 18.2858 1 14.9858C1 13.925 1.42143 12.9076 2.17157 12.1574C2.92172 11.4073 3.93913 10.9858 5 10.9858C5.38351 10.9795 5.75711 10.863 6.07625 10.6502C6.39539 10.4375 6.64663 10.1374 6.8 9.78584L7.2 8.88584ZM11 11.4858C11 11.762 10.7761 11.9858 10.5 11.9858C10.2239 11.9858 10 11.762 10 11.4858C10 11.2097 10.2239 10.9858 10.5 10.9858C10.7761 10.9858 11 11.2097 11 11.4858Z" stroke="var(--stroke-0, #262625)" stroke-width="2" stroke-linecap="round" stroke-linejoin="round"/>
</svg>
