<?xml version="1.0" encoding="UTF-8"?>
<svg id="Layer_2" data-name="Layer 2" xmlns="http://www.w3.org/2000/svg" viewBox="0 0 1600 340">
  <defs>
    <style>
      .cls-1 {
        fill: #0c0d0d;
      }
    </style>
  </defs>
  <g id="fill">
    <g>
      <path class="cls-1" d="M19.86.53c-3.82,0-7.62.34-10.17.9C3.43,2.81.34,4.56.5,6.55l-.5,219.01c0,.13.02.27.07.39,1.36,3.47,12.36,5.31,19.78,5.31,4.28,0,11.83-.57,14.28-4.41.12-.18.17-.4.17-.61l-.4-10.88c7.21,8.68,23.2,17.41,32.1,18.35,3.87.41,7.71.62,11.42.62,27.56,0,50.18-11.59,63.67-32.63,16.24-25.32,17.38-60.66,2.97-92.23-9.64-21.13-31.89-34.25-58.07-34.25-13.23,0-25.86,3.43-36.57,9.95l-15.51,10.62c.26-6.53.39-24.26.52-42.88.13-18.02.26-36.65.53-45.81.1-3.62-3.51-5.01-6.23-5.73-2.05-.55-5.2-.85-8.86-.85h0ZM72.55,202.11c-2.89,0-5.91-.21-8.96-.64-12.33-1.7-21.42-9.77-25.6-22.71-6.18-19.16-.45-44.27,13.05-57.16,8.85-8.46,19.05-12.92,29.48-12.92,19.32,0,34.35,15.4,36.54,37.44,1.71,17.26-2.4,32.35-11.58,42.5-7.98,8.82-19.36,13.49-32.92,13.49h0Z"/>
      <path class="cls-1" d="M614.42,0c-8.07,0-20.12,1.78-20.24,6.72l-.31,83.66c-4.48-3.84-16.27-13.57-22.1-14.79-5.9-1.24-11.75-1.87-17.37-1.87-48.86,0-75.44,45.51-75.63,88.33,0,1.39.07,3.24.14,5.2.2,5.14.46,11.53-.47,14.47-2.61,8.28-5.91,10.9-7.19,11.92-3.43,2.73-8.12,4.42-12.24,4.42-3.05,0-8.35-1.01-9.64-7.76-1.96-10.27-1.18-22.56-.34-35.57,1.59-24.93,3.24-50.71-13.45-68.17-7.49-7.84-19-12.16-32.41-12.16-14.28,0-28.84,4.9-38.95,13.1-2.48,2.01-3.93,4.04-5.09,5.67-.64.9-1.21,1.7-1.85,2.36-.32-1.3-.51-4.12-.62-5.94-.22-3.45-.4-5.63-.93-6.67-1.86-3.63-6.93-5.54-14.64-5.54s-16.29,1.99-20.6,3.83c-1.58.68-2.6,2.21-2.59,3.91.04,5.67.54,11.67,1.03,17.46.62,7.36,1.26,14.97,1.01,22.38-.85,25.61-2.74,32.15-22.45,49.62-13.92,12.34-38.16,26.74-60.68,26.74-9.27,0-17.45-2.45-24.32-7.28-3.32-2.33-15.78-15.17-15.67-20.6.01-.56.17-.96.49-1.26,5.39.31,10.32.46,15.08.46,43.5,0,68.79-13.28,75.17-39.47,3.86-15.84,1.57-29.73-6.62-40.18-9.44-12.04-26.1-18.95-45.71-18.95-15.19,0-30.07,4.22-41.91,11.89-28.13,18.21-42.53,56.39-35.03,92.84,3.67,17.8,12.86,31.64,27.33,41.12,12.78,8.38,29.12,12.8,47.24,12.8h0c31.65,0,62.92-13.34,80.66-34.2v25.15c0,3.42,2.44,5.91,6.7,6.84,1.96.43,11.14.48,15,.48,3.2,0,6.22-.03,7.52-.08.36-.01.74-.02,1.12-.03,2.56-.06,5.46-.13,7.96-1.36,1.68-.83,2.83-2.45,3.07-4.32.68-5.27.36-17.17.1-26.73-.15-5.68-.28-10.59-.18-12.88.08-1.84.17-3.99.26-6.34.46-11.61,1.09-27.52,2.6-35.28,2.87-14.73,19.78-32.52,36.49-32.52,9.63,0,15.63,6.71,16.87,18.9.86,8.39.34,18.59-.21,29.38-1.2,23.47-2.55,50.08,10.85,64.21,6.55,6.91,15.84,10.26,28.4,10.26h0c2.87,0,5.94-.18,9.14-.54,15.61-1.76,24.46-12.76,32.84-23.7,5.62,6.95,11.59,13.5,21.04,18.07,9.68,4.68,20.51,7.16,31.3,7.16h0c21.61,0,40.72-9.83,51.62-26.42,4.82,15.83,16.58,24.84,32.6,24.84h0c16.12,0,33.91-9.49,43.91-23.26,8.19,15.72,21.61,24.35,37.96,24.35h0c13.2,0,27.45-5.54,40.12-15.6,3.23-2.56,5.82-4.87,7.98-7.11.24,9.82-.59,12.15-9.28,18.11-6.78,4.66-13.83,7.88-21.3,11.29-9.49,4.33-19.3,8.81-28.46,16.49-20.95,17.55-30.03,41.19-23.12,60.24,4.97,13.71,17.51,21.89,33.54,21.89h0c9.52,0,19.94-2.76,30.97-8.2,17.31-8.54,30.95-23.4,40.54-44.17,9.81-21.23,13.03-43.61,13.99-58.85,14.12-7,30.25-15.06,43.9-25.61.31,13.75.91,25.65,1.89,34.39.59,5.22,21.53,5.37,23.92,5.37,11.79,0,12.39-1.68,12.61-2.31,1.2-3.36,1.1-7.33.85-9.91,14.18,10.97,29.1,16.53,44.4,16.53,22.48,0,44.28-12.8,58.31-34.25,16.95-25.91,19.65-58.46,7.21-87.08-9.43-21.69-31.08-35.17-56.52-35.17-21.53,0-41.11,9.54-53.1,25.69l2.87-95.42c0-.1,0-.19-.03-.29-1.33-5.35-10.31-5.65-15.68-5.82-.51-.02-.98-.03-1.39-.05-1.77-.08-3.41-.12-5.02-.12-10.34,0-15.7,1.59-16.37,4.84-.01.05-.02.11-.02.16-.05,1.12-3.66,76.92-4.16,141.85-1.68,2.74-3.57,5.44-5.66,7.81-11.89,13.47-31.27,28.61-36.29,31.12l-.5-55.41c-.01-1.14-.11-4.73-.25-9.71-.42-15.19-1.2-43.47-.9-54.54.02-.89-.33-1.73-1.03-2.45-3.19-3.28-12.7-3.54-15.54-3.54-7.56,0-20.48,1.64-20.9,7.77-.34,4.9-.05,12.49.28,21.29.95,25.19,2.39,63.27-9.79,80.32-7.02,9.83-17.44,16.18-26.55,16.18-9.89,0-16.46-7.26-18.5-20.43l.2-98.82c0-.08,0-.16-.02-.23-1.19-5.4-13.73-5.99-19.06-5.99-.19,0-19.12.06-19.55,4.89-.36,2.34-.05,13.52.39,29,.75,26.63,1.77,63.1-.39,70.79-2.07,7.38-8.67,15.32-15.7,18.88-1.5.76-3.19,1.16-4.89,1.16-2.11,0-4.15-.6-5.9-1.74-5.48-3.58-8.44-9.27-9.33-17.9-2.5-24.39-.62-55.47,1.21-85.53.88-14.53,1.71-28.26,2-40.57.26-11.21.49-37.34-.18-46.93-.45-6.5-13.78-7-17.86-7h0ZM196.27,140.36c3.5-10.65,7.62-18.77,12.59-24.8,6.73-8.16,15.64-12.85,24.44-12.85,3.09,0,6.15.59,9.09,1.74,10.6,4.16,13.05,12.63,11.82,19.17-2.08,10.99-12.53,16.75-21.78,16.75h-36.16ZM550.18,200.63c-19.78,0-30.15-20.23-31.65-40.27-2.42-32.3,14.9-52,33.25-54.78,2.51-.38,4.97-.57,7.32-.57,17.98,0,30.91,11.56,34.59,30.91,4.35,22.86-5.66,52.26-29.95,61.88-4.74,1.88-9.31,2.83-13.56,2.83h0ZM914.22,216.35c-.74,0-1.49-.02-2.25-.05-13.6-.62-24.05-8.58-29.44-22.42-7.49-19.24-3.09-44.69,10.03-57.94,8.57-8.65,19.87-13.82,30.22-13.82,8.45,0,16.02,3.39,21.89,9.81,13.43,14.69,16.77,38.7,8.12,58.39-7.27,16.54-21.33,26.03-38.56,26.03h0ZM717.56,305.74c-2.34,0-4.54-.93-6.19-2.61-2.36-2.41-3.49-5.01-3.45-7.96.06-5.23,3.81-11.41,11.46-18.88,1.93-1.89,20.24-14.92,31.06-20.09.7-.34,1.35-.65,1.93-.94,1.11-.54,2.25-1.1,2.96-1.37-.31,1.14-1.24,3.31-1.69,4.35-1.36,3.18-2.64,6.42-3.88,9.56-6.33,16.08-12.31,31.27-29.22,37.41-.96.35-1.96.53-2.97.53h0Z"/>
      <path class="cls-1" d="M1299.44,0c-1.74,0-3.56.06-5.41.17-22.59,1.36-36.95,17.64-43.89,49.77-5.86,27.1-5.34,61.04-4.93,88.32.2,13.48.38,25.13-.17,34.25-.87,14.4-22.89,33.35-31.48,34.35-.95.11-1.9.17-2.82.17-9.75,0-16.8-6.11-17.97-15.56-1.76-14.29-1.15-30.12-.56-45.43.31-7.98.6-15.55.57-22.89,0,0,34.48,0,34.49,0,4.6,0,4.96-13.1,4.96-17.12s-.36-16.85-5.02-16.85h-33.36l.81-48.2c-.21-5.57-10.04-7.55-19.18-7.55-6.47,0-17.48,1.23-17.67,5.82-.5,11.81-.1,43.61-.01,49.92,0,0-24.65-.35-24.67-.35-5.47,0-6.93,12.19-6.93,19.39,0,3.82.4,12.69,4.1,12.69,2.8,0,6.11-.16,9.3-.31,3.27-.16,6.65-.32,9.58-.32,6.65,0,8.07.9,8.37,1.34l-4.8,47.06c-.72,5.73-42.27,42.55-78.22,42.55-9.08,0-17.05-2.42-23.69-7.2-6.55-4.71-9.78-11.56-13.21-18.81l-.28-.59c-.26-.54-.67-1.42-.88-1.99,0,0,.01,0,.02,0,.28,0,.62.02,1.01.03.36.02.76.03,1.21.04l2.96.07c4.65.12,9.46.24,14.37.24,24.36,0,51-3.03,63.87-25.53,9.22-16.11,10.01-32.4,2.23-45.85-8.9-15.38-27.48-24.93-48.5-24.93-4.66,0-9.35.49-13.96,1.44-41.11,8.54-60.62,48.12-61.35,81.29-.38,17.3,3.84,33.35,12.21,46.42,9.2,14.36,23.08,24.24,40.15,28.58,6.88,1.75,13.95,2.64,21.01,2.64,26.44,0,53.82-12.08,83.65-36.92,1.5,12.51,7.96,22.98,17.92,28.92,7.38,4.4,16.13,6.73,25.29,6.73,21.2,0,41.93-12.05,50.16-28.91.2,3.5.06,10.05-.03,14.01-.08,3.5-.14,6.26-.05,7.36.35,4.56,6.18,7.28,15.58,7.28h0c8.48,0,20.46-2.64,20.52-8.51.02-2.03,0-6.42-.01-11.51-.04-10.59-.09-25.11.16-30.76.47-10.97,4.54-26.21,10.37-38.83,7.04-15.22,15.94-25.57,25.05-29.13,4.79-1.87,8.94-2.82,12.35-2.82,3.71,0,6.57,1.08,8.73,3.31,5.89,6.06,5.51,19.67,5.18,31.67-.06,2.1-.11,4.15-.14,6.13-.06,5.02-.5,10.4-.97,16.09-1.28,15.62-2.61,31.76,3.43,44.55,6.81,14.41,18.99,17.44,28.02,17.44h0c18.74,0,41.33-13.12,50.61-29.32l1.01-.3c13.23,21.31,37.14,33.03,67.43,33.03,16.86,0,34.52-3.85,49.73-10.83,13.69-6.29,57.32-37,54.12-59.07-.28-1.94-1.13-3.61-2.46-4.84-2.99-2.76-8.58-4.76-13.31-4.76-2.98,0-5.21.79-6.44,2.28-12.07,14.6-18.81,22.5-28.16,28.52-15.57,10.03-32.71,15.79-47.01,15.79-10.07,0-18.84-2.74-26.05-8.15-13.16-9.86-19.71-29.47-16.68-49.96,2.87-19.37,13.3-34.1,27.92-39.41,3.31-1.2,6.4-1.81,9.19-1.81,4.11,0,7.57,1.34,10.01,3.89,2.44,2.54,3.74,6.17,3.59,9.96-.11,2.61-.76,5.23-1.4,7.76-1.34,5.33-2.73,10.84,2.43,14.36,2.6,1.78,5.88,2.72,9.49,2.72h0c10.14,0,21.91-7.64,22.58-18.6,1.63-26.34-9.43-43.87-30.34-48.08-4.92-.99-9.9-1.49-14.8-1.49-19.35,0-38.08,7.91-52.73,22.27-14.19,13.91-23.44,32.6-26.06,52.61-.38,2.93-.45,7.06-.51,11.44-.09,6.08-.19,12.37-1.17,15.28-2.64,7.83-17.99,22.4-27.85,22.4-4.68,0-7.58-3.38-8.62-10.06-1.53-9.87.05-22.37,1.73-35.61,3.51-27.64,7.48-58.97-19.63-68.96-4.85-1.79-10.04-2.7-15.41-2.7-26.81,0-52.92,22.2-63.33,31.5-.03-1.38.03-2.82.11-4.78.04-.93.08-1.96.12-3.14.53-.29,1.64-.82,2.79-1.38,6-2.88,20.04-9.62,32.22-19.94,15.26-12.94,22.85-27.27,22.57-42.59-.65-35.39-13.97-51.17-43.18-51.17h0ZM1285.08,84.21c-.02-1.07-.05-2.18-.08-3.32-.44-17.64-1.11-44.29,15.64-50.12.48-.08.94-.12,1.39-.12,5.64,0,8.44,6.31,9.13,11.71,1.46,11.5-8.14,24.48-12.34,29.54-5.66,6.81-11.11,11.13-13.74,12.32h0ZM1038.38,152.85c7.01-25.94,19.29-38.56,37.52-38.56,1.61,0,3.3.1,5.01.3,5.94.69,11.42,6.02,13.63,13.24,1.72,5.62,1.51,13.39-4.23,18.33-2.76,2.38-9.85,6.46-18.87,6.69h-33.06Z"/>
    </g>
  </g>
</svg>